<?xml version="1.0" encoding="UTF-8" standalone="no"?>
<!DOCTYPE svg PUBLIC "-//W3C//DTD SVG 1.1//EN"
 "http://www.w3.org/Graphics/SVG/1.1/DTD/svg11.dtd">
<!-- Generated by graphviz version 2.36.0 (20140111.2315)
 -->
<!-- Title: /home/elauksap/Dropbox/Progetto&#45;PACS/C++/Source/src/charge.h Pages: 1 -->
<!--zoomable 284 -->
<svg id="main" version="1.1" xmlns="http://www.w3.org/2000/svg" xmlns:xlink="http://www.w3.org/1999/xlink" xml:space="preserve" onload="init(evt)">
<style type="text/css"><![CDATA[
.edge:hover path { stroke: red; }
.edge:hover polygon { stroke: red; fill: red; }
]]></style>
<script type="text/javascript"><![CDATA[
var edges = document.getElementsByTagName('g');
if (edges && edges.length) {
  for (var i=0;i<edges.length;i++) {
    if (edges[i].id.substr(0,4)=='edge') {
      edges[i].setAttribute('class','edge');
    }
  }
}
]]></script>
        <defs>
                <circle id="rim" cx="0" cy="0" r="7"/>
                <circle id="rim2" cx="0" cy="0" r="3.5"/>
                <g id="zoomPlus">
                        <use xlink:href="#rim" fill="#404040">
                                <set attributeName="fill" to="#808080" begin="zoomplus.mouseover" end="zoomplus.mouseout"/>
                        </use>
                        <path d="M-4,0h8M0,-4v8" fill="none" stroke="white" stroke-width="1.5" pointer-events="none"/>
                </g>
                <g id="zoomMin">
                        <use xlink:href="#rim" fill="#404040">
                                <set attributeName="fill" to="#808080" begin="zoomminus.mouseover" end="zoomminus.mouseout"/>
                        </use>
                        <path d="M-4,0h8" fill="none" stroke="white" stroke-width="1.5" pointer-events="none"/>
                </g>
                <g id="dirArrow">
                        <path fill="none" stroke="white" stroke-width="1.5" d="M0,-3.0v7 M-2.5,-0.5L0,-3.0L2.5,-0.5"/>
                </g>
               <g id="resetDef">
                       <use xlink:href="#rim2" fill="#404040">
                               <set attributeName="fill" to="#808080" begin="reset.mouseover" end="reset.mouseout"/>
                       </use>
               </g>
        </defs>

<script type="text/javascript">
var viewWidth = 572;
var viewHeight = 284;
var sectionId = 'dynsection-1';
</script>
<script xlink:href="svgpan.js"/>
<svg id="graph" class="graph">
<g id="viewport">
<title>/home/elauksap/Dropbox/Progetto&#45;PACS/C++/Source/src/charge.h</title>
<polygon fill="white" stroke="none" points="-4,4 -4,-280 568,-280 568,4 -4,4"/>
<!-- Node1 -->
<g id="node1" class="node"><title>Node1</title>
<polygon fill="#bfbfbf" stroke="black" points="210.5,-234.5 210.5,-275.5 353.5,-275.5 353.5,-234.5 210.5,-234.5"/>
<text text-anchor="start" x="218.5" y="-263.5" font-family="Helvetica,sans-Serif" font-size="10.00">/home/elauksap/Dropbox</text>
<text text-anchor="start" x="218.5" y="-252.5" font-family="Helvetica,sans-Serif" font-size="10.00">/Progetto&#45;PACS/C++/Source</text>
<text text-anchor="middle" x="282" y="-241.5" font-family="Helvetica,sans-Serif" font-size="10.00">/src/charge.h</text>
</g>
<!-- Node2 -->
<g id="node2" class="node"><title>Node2</title>
<g id="a_node2"><a xlink:href="charge_8cc.html" target="_top" xlink:title="/home/elauksap/Dropbox\l/Progetto&#45;PACS/C++/Source\l/src/charge.cc">
<polygon fill="white" stroke="black" points="-0.5,-156.5 -0.5,-197.5 142.5,-197.5 142.5,-156.5 -0.5,-156.5"/>
<text text-anchor="start" x="7.5" y="-185.5" font-family="Helvetica,sans-Serif" font-size="10.00">/home/elauksap/Dropbox</text>
<text text-anchor="start" x="7.5" y="-174.5" font-family="Helvetica,sans-Serif" font-size="10.00">/Progetto&#45;PACS/C++/Source</text>
<text text-anchor="middle" x="71" y="-163.5" font-family="Helvetica,sans-Serif" font-size="10.00">/src/charge.cc</text>
</a>
</g>
</g>
<!-- Node1&#45;&gt;Node2 -->
<g id="edge1" class="edge"><title>Node1&#45;&gt;Node2</title>
<path fill="none" stroke="midnightblue" d="M218.218,-231.026C188.515,-220.328 153.552,-207.734 125.154,-197.506"/>
<polygon fill="midnightblue" stroke="midnightblue" points="217.068,-234.332 227.662,-234.428 219.44,-227.746 217.068,-234.332"/>
</g>
<!-- Node3 -->
<g id="node3" class="node"><title>Node3</title>
<g id="a_node3"><a xlink:href="dosModel_8h.html" target="_top" xlink:title="Mathematical model for Density of States extraction. ">
<polygon fill="white" stroke="black" points="260.5,-78.5 260.5,-119.5 403.5,-119.5 403.5,-78.5 260.5,-78.5"/>
<text text-anchor="start" x="268.5" y="-107.5" font-family="Helvetica,sans-Serif" font-size="10.00">/home/elauksap/Dropbox</text>
<text text-anchor="start" x="268.5" y="-96.5" font-family="Helvetica,sans-Serif" font-size="10.00">/Progetto&#45;PACS/C++/Source</text>
<text text-anchor="middle" x="332" y="-85.5" font-family="Helvetica,sans-Serif" font-size="10.00">/src/dosModel.h</text>
</a>
</g>
</g>
<!-- Node1&#45;&gt;Node3 -->
<g id="edge2" class="edge"><title>Node1&#45;&gt;Node3</title>
<path fill="none" stroke="midnightblue" d="M299.294,-225.557C303.962,-216.942 308.644,-207.294 312,-198 321.496,-171.705 326.958,-139.723 329.705,-119.607"/>
<polygon fill="midnightblue" stroke="midnightblue" points="296.152,-224.004 294.297,-234.435 302.252,-227.437 296.152,-224.004"/>
</g>
<!-- Node6 -->
<g id="node6" class="node"><title>Node6</title>
<g id="a_node6"><a xlink:href="factory_8h.html" target="_top" xlink:title="Abstract factory design patterns. ">
<polygon fill="white" stroke="black" points="160.5,-156.5 160.5,-197.5 303.5,-197.5 303.5,-156.5 160.5,-156.5"/>
<text text-anchor="start" x="168.5" y="-185.5" font-family="Helvetica,sans-Serif" font-size="10.00">/home/elauksap/Dropbox</text>
<text text-anchor="start" x="168.5" y="-174.5" font-family="Helvetica,sans-Serif" font-size="10.00">/Progetto&#45;PACS/C++/Source</text>
<text text-anchor="middle" x="232" y="-163.5" font-family="Helvetica,sans-Serif" font-size="10.00">/src/factory.h</text>
</a>
</g>
</g>
<!-- Node1&#45;&gt;Node6 -->
<g id="edge5" class="edge"><title>Node1&#45;&gt;Node6</title>
<path fill="none" stroke="midnightblue" d="M263.61,-226.048C257.372,-216.566 250.542,-206.185 244.833,-197.506"/>
<polygon fill="midnightblue" stroke="midnightblue" points="260.704,-227.998 269.124,-234.428 266.552,-224.15 260.704,-227.998"/>
</g>
<!-- Node8 -->
<g id="node8" class="node"><title>Node8</title>
<g id="a_node8"><a xlink:href="solvers_8h.html" target="_top" xlink:title="Generic solvers for PDEs. ">
<polygon fill="white" stroke="black" points="360.5,-156.5 360.5,-197.5 503.5,-197.5 503.5,-156.5 360.5,-156.5"/>
<text text-anchor="start" x="368.5" y="-185.5" font-family="Helvetica,sans-Serif" font-size="10.00">/home/elauksap/Dropbox</text>
<text text-anchor="start" x="368.5" y="-174.5" font-family="Helvetica,sans-Serif" font-size="10.00">/Progetto&#45;PACS/C++/Source</text>
<text text-anchor="middle" x="432" y="-163.5" font-family="Helvetica,sans-Serif" font-size="10.00">/src/solvers.h</text>
</a>
</g>
</g>
<!-- Node1&#45;&gt;Node8 -->
<g id="edge8" class="edge"><title>Node1&#45;&gt;Node8</title>
<path fill="none" stroke="midnightblue" d="M329.55,-229.908C350.175,-219.458 374.013,-207.38 393.502,-197.506"/>
<polygon fill="midnightblue" stroke="midnightblue" points="327.967,-226.786 320.629,-234.428 331.131,-233.031 327.967,-226.786"/>
</g>
<!-- Node4 -->
<g id="node4" class="node"><title>Node4</title>
<g id="a_node4"><a xlink:href="simulate__dos_8cc.html" target="_top" xlink:title="A test file. ">
<polygon fill="white" stroke="black" points="180.5,-0.5 180.5,-41.5 323.5,-41.5 323.5,-0.5 180.5,-0.5"/>
<text text-anchor="start" x="188.5" y="-29.5" font-family="Helvetica,sans-Serif" font-size="10.00">/home/elauksap/Dropbox</text>
<text text-anchor="start" x="188.5" y="-18.5" font-family="Helvetica,sans-Serif" font-size="10.00">/Progetto&#45;PACS/C++/Source</text>
<text text-anchor="middle" x="252" y="-7.5" font-family="Helvetica,sans-Serif" font-size="10.00">/test/simulate_dos.cc</text>
</a>
</g>
</g>
<!-- Node3&#45;&gt;Node4 -->
<g id="edge3" class="edge"><title>Node3&#45;&gt;Node4</title>
<path fill="none" stroke="midnightblue" d="M304.096,-71.4916C293.715,-61.6294 282.134,-50.6273 272.532,-41.5056"/>
<polygon fill="midnightblue" stroke="midnightblue" points="301.737,-74.0781 311.398,-78.4281 306.559,-69.0031 301.737,-74.0781"/>
</g>
<!-- Node5 -->
<g id="node5" class="node"><title>Node5</title>
<g id="a_node5"><a xlink:href="dosModel_8cc.html" target="_top" xlink:title="/home/elauksap/Dropbox\l/Progetto&#45;PACS/C++/Source\l/src/dosModel.cc">
<polygon fill="white" stroke="black" points="341.5,-0.5 341.5,-41.5 484.5,-41.5 484.5,-0.5 341.5,-0.5"/>
<text text-anchor="start" x="349.5" y="-29.5" font-family="Helvetica,sans-Serif" font-size="10.00">/home/elauksap/Dropbox</text>
<text text-anchor="start" x="349.5" y="-18.5" font-family="Helvetica,sans-Serif" font-size="10.00">/Progetto&#45;PACS/C++/Source</text>
<text text-anchor="middle" x="413" y="-7.5" font-family="Helvetica,sans-Serif" font-size="10.00">/src/dosModel.cc</text>
</a>
</g>
</g>
<!-- Node3&#45;&gt;Node5 -->
<g id="edge4" class="edge"><title>Node3&#45;&gt;Node5</title>
<path fill="none" stroke="midnightblue" d="M360.252,-71.4916C370.763,-61.6294 382.489,-50.6273 392.211,-41.5056"/>
<polygon fill="midnightblue" stroke="midnightblue" points="357.757,-69.0333 352.86,-78.4281 362.547,-74.1381 357.757,-69.0333"/>
</g>
<!-- Node6&#45;&gt;Node3 -->
<g id="edge6" class="edge"><title>Node6&#45;&gt;Node3</title>
<path fill="none" stroke="midnightblue" d="M265.75,-150.35C279.011,-140.272 293.983,-128.893 306.335,-119.506"/>
<polygon fill="midnightblue" stroke="midnightblue" points="263.596,-147.591 257.752,-156.428 267.832,-153.164 263.596,-147.591"/>
</g>
<!-- Node7 -->
<g id="node7" class="node"><title>Node7</title>
<g id="a_node7"><a xlink:href="factory_8cc.html" target="_top" xlink:title="/home/elauksap/Dropbox\l/Progetto&#45;PACS/C++/Source\l/src/factory.cc">
<polygon fill="white" stroke="black" points="99.5,-78.5 99.5,-119.5 242.5,-119.5 242.5,-78.5 99.5,-78.5"/>
<text text-anchor="start" x="107.5" y="-107.5" font-family="Helvetica,sans-Serif" font-size="10.00">/home/elauksap/Dropbox</text>
<text text-anchor="start" x="107.5" y="-96.5" font-family="Helvetica,sans-Serif" font-size="10.00">/Progetto&#45;PACS/C++/Source</text>
<text text-anchor="middle" x="171" y="-85.5" font-family="Helvetica,sans-Serif" font-size="10.00">/src/factory.cc</text>
</a>
</g>
</g>
<!-- Node6&#45;&gt;Node7 -->
<g id="edge7" class="edge"><title>Node6&#45;&gt;Node7</title>
<path fill="none" stroke="midnightblue" d="M210.03,-148.627C202.295,-138.99 193.764,-128.362 186.656,-119.506"/>
<polygon fill="midnightblue" stroke="midnightblue" points="207.302,-150.82 216.291,-156.428 212.761,-146.439 207.302,-150.82"/>
</g>
<!-- Node8&#45;&gt;Node3 -->
<g id="edge9" class="edge"><title>Node8&#45;&gt;Node3</title>
<path fill="none" stroke="midnightblue" d="M398.25,-150.35C384.989,-140.272 370.017,-128.893 357.665,-119.506"/>
<polygon fill="midnightblue" stroke="midnightblue" points="396.168,-153.164 406.248,-156.428 400.404,-147.591 396.168,-153.164"/>
</g>
<!-- Node9 -->
<g id="node9" class="node"><title>Node9</title>
<g id="a_node9"><a xlink:href="solvers_8cc.html" target="_top" xlink:title="/home/elauksap/Dropbox\l/Progetto&#45;PACS/C++/Source\l/src/solvers.cc">
<polygon fill="white" stroke="black" points="421.5,-78.5 421.5,-119.5 564.5,-119.5 564.5,-78.5 421.5,-78.5"/>
<text text-anchor="start" x="429.5" y="-107.5" font-family="Helvetica,sans-Serif" font-size="10.00">/home/elauksap/Dropbox</text>
<text text-anchor="start" x="429.5" y="-96.5" font-family="Helvetica,sans-Serif" font-size="10.00">/Progetto&#45;PACS/C++/Source</text>
<text text-anchor="middle" x="493" y="-85.5" font-family="Helvetica,sans-Serif" font-size="10.00">/src/solvers.cc</text>
</a>
</g>
</g>
<!-- Node8&#45;&gt;Node9 -->
<g id="edge10" class="edge"><title>Node8&#45;&gt;Node9</title>
<path fill="none" stroke="midnightblue" d="M453.97,-148.627C461.705,-138.99 470.236,-128.362 477.344,-119.506"/>
<polygon fill="midnightblue" stroke="midnightblue" points="451.239,-146.439 447.709,-156.428 456.698,-150.82 451.239,-146.439"/>
</g>
</g>
</svg>
        <g id="navigator" transform="translate(0 0)" fill="#404254">
                <rect fill="#f2f5e9" fill-opacity="0.5" stroke="#606060" stroke-width=".5" x="0" y="0" width="60" height="60"/>
                <use id="zoomplus" xlink:href="#zoomPlus" x="17" y="9" onmousedown="handleZoom(evt,'in')"/>
                <use id="zoomminus" xlink:href="#zoomMin" x="42" y="9" onmousedown="handleZoom(evt,'out')"/>
                <use id="reset" xlink:href="#resetDef" x="30" y="36" onmousedown="handleReset()"/>
                <g id="arrowUp" xlink:href="#dirArrow" transform="translate(30 24)" onmousedown="handlePan(0,-1)">
                  <use xlink:href="#rim" fill="#404040">
                        <set attributeName="fill" to="#808080" begin="arrowUp.mouseover" end="arrowUp.mouseout"/>
                  </use>
                  <path fill="none" stroke="white" stroke-width="1.5" d="M0,-3.0v7 M-2.5,-0.5L0,-3.0L2.5,-0.5"/>
                </g>
                <g id="arrowRight" xlink:href="#dirArrow" transform="rotate(90) translate(36 -43)" onmousedown="handlePan(1,0)">
                  <use xlink:href="#rim" fill="#404040">
                        <set attributeName="fill" to="#808080" begin="arrowRight.mouseover" end="arrowRight.mouseout"/>
                  </use>
                  <path fill="none" stroke="white" stroke-width="1.5" d="M0,-3.0v7 M-2.5,-0.5L0,-3.0L2.5,-0.5"/>
                </g>
                <g id="arrowDown" xlink:href="#dirArrow" transform="rotate(180) translate(-30 -48)" onmousedown="handlePan(0,1)">
                  <use xlink:href="#rim" fill="#404040">
                        <set attributeName="fill" to="#808080" begin="arrowDown.mouseover" end="arrowDown.mouseout"/>
                  </use>
                  <path fill="none" stroke="white" stroke-width="1.5" d="M0,-3.0v7 M-2.5,-0.5L0,-3.0L2.5,-0.5"/>
                </g>
                <g id="arrowLeft" xlink:href="#dirArrow" transform="rotate(270) translate(-36 17)" onmousedown="handlePan(-1,0)">
                  <use xlink:href="#rim" fill="#404040">
                        <set attributeName="fill" to="#808080" begin="arrowLeft.mouseover" end="arrowLeft.mouseout"/>
                  </use>
                  <path fill="none" stroke="white" stroke-width="1.5" d="M0,-3.0v7 M-2.5,-0.5L0,-3.0L2.5,-0.5"/>
                </g>
        </g>
        <svg viewBox="0 0 15 15" width="100%" height="30px" preserveAspectRatio="xMaxYMin meet">
         <g id="arrow_out" transform="scale(0.3 0.3)">
          <a xlink:href="charge_8h__dep__incl_org.svg" target="_base">
           <rect id="button" ry="5" rx="5" y="6" x="6" height="38" width="38"
                fill="#f2f5e9" fill-opacity="0.5" stroke="#606060" stroke-width="1.0"/>
           <path id="arrow"
             d="M 11.500037,31.436501 C 11.940474,20.09759 22.043105,11.32322 32.158766,21.979434 L 37.068811,17.246167 C 37.068811,17.246167 37.088388,32 37.088388,32 L 22.160133,31.978069 C 22.160133,31.978069 26.997745,27.140456 26.997745,27.140456 C 18.528582,18.264221 13.291696,25.230495 11.500037,31.436501 z"
             style="fill:#404040;"/>
          </a>
         </g>
        </svg>
</svg>
