<?xml version="1.0" encoding="UTF-8" standalone="no"?>
<!DOCTYPE svg PUBLIC "-//W3C//DTD SVG 1.1//EN"
 "http://www.w3.org/Graphics/SVG/1.1/DTD/svg11.dtd">
<!-- Generated by graphviz version 2.36.0 (20140111.2315)
 -->
<!-- Title: GaussianCharge Pages: 1 -->
<svg width="171pt" height="154pt"
 viewBox="0.00 0.00 171.00 154.00" xmlns="http://www.w3.org/2000/svg" xmlns:xlink="http://www.w3.org/1999/xlink">
<g id="graph0" class="graph" transform="scale(1 1) rotate(0) translate(4 150)">
<title>GaussianCharge</title>
<polygon fill="white" stroke="none" points="-4,4 -4,-150 167,-150 167,4 -4,4"/>
<!-- Node1 -->
<g id="node1" class="node"><title>Node1</title>
<polygon fill="#bfbfbf" stroke="black" points="30.5,-0.5 30.5,-19.5 119.5,-19.5 119.5,-0.5 30.5,-0.5"/>
<text text-anchor="middle" x="75" y="-7.5" font-family="Helvetica,sans-Serif" font-size="10.00">GaussianCharge</text>
</g>
<!-- Node2 -->
<g id="node2" class="node"><title>Node2</title>
<g id="a_node2"><a xlink:href="classCharge.html" target="_top" xlink:title="Abstract class providing methods to calculate total electric charge (the rhs in the Poisson equation)...">
<polygon fill="white" stroke="black" points="51,-58.5 51,-77.5 99,-77.5 99,-58.5 51,-58.5"/>
<text text-anchor="middle" x="75" y="-65.5" font-family="Helvetica,sans-Serif" font-size="10.00">Charge</text>
</a>
</g>
</g>
<!-- Node2&#45;&gt;Node1 -->
<g id="edge1" class="edge"><title>Node2&#45;&gt;Node1</title>
<path fill="none" stroke="midnightblue" d="M75,-47.953C75,-38.2875 75,-27.0312 75,-19.5052"/>
<polygon fill="midnightblue" stroke="midnightblue" points="71.5001,-48.25 75,-58.25 78.5001,-48.25 71.5001,-48.25"/>
</g>
<!-- Node3 -->
<g id="node3" class="node"><title>Node3</title>
<g id="a_node3"><a xlink:href="classParamList.html" target="_top" xlink:title="Class providing methods to handle a list of parameters. ">
<polygon fill="white" stroke="black" points="-0.5,-126.5 -0.5,-145.5 60.5,-145.5 60.5,-126.5 -0.5,-126.5"/>
<text text-anchor="middle" x="30" y="-133.5" font-family="Helvetica,sans-Serif" font-size="10.00">ParamList</text>
</a>
</g>
</g>
<!-- Node3&#45;&gt;Node2 -->
<g id="edge2" class="edge"><title>Node3&#45;&gt;Node2</title>
<path fill="none" stroke="#9a32cd" stroke-dasharray="5,2" d="M41.6334,-117.938C50.3782,-105.112 62.0051,-88.0591 68.972,-77.8411"/>
<polygon fill="#9a32cd" stroke="#9a32cd" points="38.6246,-116.138 35.883,-126.372 44.4082,-120.081 38.6246,-116.138"/>
<text text-anchor="middle" x="77.5" y="-99.5" font-family="Helvetica,sans-Serif" font-size="10.00"> params_</text>
</g>
<!-- Node4 -->
<g id="node4" class="node"><title>Node4</title>
<g id="a_node4"><a xlink:href="classQuadratureRule.html" target="_top" xlink:title="Abstract class providing a quadrature rule. ">
<polygon fill="white" stroke="black" points="78.5,-126.5 78.5,-145.5 163.5,-145.5 163.5,-126.5 78.5,-126.5"/>
<text text-anchor="middle" x="121" y="-133.5" font-family="Helvetica,sans-Serif" font-size="10.00">QuadratureRule</text>
</a>
</g>
</g>
<!-- Node4&#45;&gt;Node2 -->
<g id="edge3" class="edge"><title>Node4&#45;&gt;Node2</title>
<path fill="none" stroke="#9a32cd" stroke-dasharray="5,2" d="M111.998,-117.197C108.281,-110.37 103.735,-102.631 99,-96 94.3348,-89.467 88.3348,-82.717 83.5011,-77.6002"/>
<polygon fill="#9a32cd" stroke="#9a32cd" points="109.035,-119.083 116.778,-126.314 115.234,-115.832 109.035,-119.083"/>
<text text-anchor="middle" x="118.5" y="-99.5" font-family="Helvetica,sans-Serif" font-size="10.00"> rule_</text>
</g>
</g>
</svg>
