<?xml version="1.0" encoding="UTF-8" standalone="no"?>
<!DOCTYPE svg PUBLIC "-//W3C//DTD SVG 1.1//EN"
 "http://www.w3.org/Graphics/SVG/1.1/DTD/svg11.dtd">
<!-- Generated by graphviz version 2.36.0 (20140111.2315)
 -->
<!-- Title: QuadratureRuleFactory Pages: 1 -->
<svg width="295pt" height="84pt"
 viewBox="0.00 0.00 295.00 84.00" xmlns="http://www.w3.org/2000/svg" xmlns:xlink="http://www.w3.org/1999/xlink">
<g id="graph0" class="graph" transform="scale(1 1) rotate(0) translate(4 80)">
<title>QuadratureRuleFactory</title>
<polygon fill="white" stroke="none" points="-4,4 -4,-80 291,-80 291,4 -4,4"/>
<!-- Node1 -->
<g id="node1" class="node"><title>Node1</title>
<polygon fill="#bfbfbf" stroke="black" points="83,-56.5 83,-75.5 201,-75.5 201,-56.5 83,-56.5"/>
<text text-anchor="middle" x="142" y="-63.5" font-family="Helvetica,sans-Serif" font-size="10.00">QuadratureRuleFactory</text>
</g>
<!-- Node2 -->
<g id="node2" class="node"><title>Node2</title>
<g id="a_node2"><a xlink:href="classGaussHermiteRuleFactory.html" target="_top" xlink:title="Concrete factory to handle a Gauss&#45;Hermite quadrature rule. ">
<polygon fill="white" stroke="black" points="-0.5,-0.5 -0.5,-19.5 132.5,-19.5 132.5,-0.5 -0.5,-0.5"/>
<text text-anchor="middle" x="66" y="-7.5" font-family="Helvetica,sans-Serif" font-size="10.00">GaussHermiteRuleFactory</text>
</a>
</g>
</g>
<!-- Node1&#45;&gt;Node2 -->
<g id="edge1" class="edge"><title>Node1&#45;&gt;Node2</title>
<path fill="none" stroke="midnightblue" d="M121.424,-50.3804C107.688,-40.6204 90.0747,-28.1057 78.4329,-19.8339"/>
<polygon fill="midnightblue" stroke="midnightblue" points="119.61,-53.385 129.789,-56.324 123.665,-47.6787 119.61,-53.385"/>
</g>
<!-- Node3 -->
<g id="node3" class="node"><title>Node3</title>
<g id="a_node3"><a xlink:href="classGaussLaguerreRuleFactory.html" target="_top" xlink:title="Concrete factory to handle a Gauss&#45;Laguerre quadrature rule. ">
<polygon fill="white" stroke="black" points="151,-0.5 151,-19.5 287,-19.5 287,-0.5 151,-0.5"/>
<text text-anchor="middle" x="219" y="-7.5" font-family="Helvetica,sans-Serif" font-size="10.00">GaussLaguerreRuleFactory</text>
</a>
</g>
</g>
<!-- Node1&#45;&gt;Node3 -->
<g id="edge2" class="edge"><title>Node1&#45;&gt;Node3</title>
<path fill="none" stroke="midnightblue" d="M162.901,-50.3422C176.911,-40.5169 194.883,-27.9132 206.659,-19.6545"/>
<polygon fill="midnightblue" stroke="midnightblue" points="160.549,-47.7166 154.371,-56.324 164.568,-53.4477 160.549,-47.7166"/>
</g>
</g>
</svg>
