<?xml version="1.0" encoding="UTF-8" standalone="no"?>
<!DOCTYPE svg PUBLIC "-//W3C//DTD SVG 1.1//EN"
 "http://www.w3.org/Graphics/SVG/1.1/DTD/svg11.dtd">
<!-- Generated by graphviz version 2.36.0 (20140111.2315)
 -->
<!-- Title: Charge Pages: 1 -->
<svg width="213pt" height="84pt"
 viewBox="0.00 0.00 213.00 84.00" xmlns="http://www.w3.org/2000/svg" xmlns:xlink="http://www.w3.org/1999/xlink">
<g id="graph0" class="graph" transform="scale(1 1) rotate(0) translate(4 80)">
<title>Charge</title>
<polygon fill="white" stroke="none" points="-4,4 -4,-80 209,-80 209,4 -4,4"/>
<!-- Node1 -->
<g id="node1" class="node"><title>Node1</title>
<polygon fill="#bfbfbf" stroke="black" points="81,-56.5 81,-75.5 129,-75.5 129,-56.5 81,-56.5"/>
<text text-anchor="middle" x="105" y="-63.5" font-family="Helvetica,sans-Serif" font-size="10.00">Charge</text>
</g>
<!-- Node2 -->
<g id="node2" class="node"><title>Node2</title>
<g id="a_node2"><a xlink:href="classExponentialCharge.html" target="_top" xlink:title="Class derived from Charge, under the hypothesis that Density of States is a single exponential...">
<polygon fill="white" stroke="black" points="-0.5,-0.5 -0.5,-19.5 98.5,-19.5 98.5,-0.5 -0.5,-0.5"/>
<text text-anchor="middle" x="49" y="-7.5" font-family="Helvetica,sans-Serif" font-size="10.00">ExponentialCharge</text>
</a>
</g>
</g>
<!-- Node1&#45;&gt;Node2 -->
<g id="edge1" class="edge"><title>Node1&#45;&gt;Node2</title>
<path fill="none" stroke="midnightblue" d="M88.6701,-49.2533C78.735,-39.6731 66.4125,-27.7906 58.1611,-19.8339"/>
<polygon fill="midnightblue" stroke="midnightblue" points="86.3747,-51.902 96.0026,-56.324 91.2336,-46.8631 86.3747,-51.902"/>
</g>
<!-- Node3 -->
<g id="node3" class="node"><title>Node3</title>
<g id="a_node3"><a xlink:href="classGaussianCharge.html" target="_top" xlink:title="Class derived from Charge, under the hypothesis that Density of States is a combination of gaussians...">
<polygon fill="white" stroke="black" points="116.5,-0.5 116.5,-19.5 205.5,-19.5 205.5,-0.5 116.5,-0.5"/>
<text text-anchor="middle" x="161" y="-7.5" font-family="Helvetica,sans-Serif" font-size="10.00">GaussianCharge</text>
</a>
</g>
</g>
<!-- Node1&#45;&gt;Node3 -->
<g id="edge2" class="edge"><title>Node1&#45;&gt;Node3</title>
<path fill="none" stroke="midnightblue" d="M121.33,-49.2533C131.265,-39.6731 143.588,-27.7906 151.839,-19.8339"/>
<polygon fill="midnightblue" stroke="midnightblue" points="118.766,-46.8631 113.997,-56.324 123.625,-51.902 118.766,-46.8631"/>
</g>
</g>
</svg>
