<?xml version="1.0" encoding="UTF-8" standalone="no"?>
<!DOCTYPE svg PUBLIC "-//W3C//DTD SVG 1.1//EN"
 "http://www.w3.org/Graphics/SVG/1.1/DTD/svg11.dtd">
<!-- Generated by graphviz version 2.36.0 (20140111.2315)
 -->
<!-- Title: Charge Pages: 1 -->
<svg width="171pt" height="96pt"
 viewBox="0.00 0.00 171.00 96.00" xmlns="http://www.w3.org/2000/svg" xmlns:xlink="http://www.w3.org/1999/xlink">
<g id="graph0" class="graph" transform="scale(1 1) rotate(0) translate(4 92)">
<title>Charge</title>
<polygon fill="white" stroke="none" points="-4,4 -4,-92 167,-92 167,4 -4,4"/>
<!-- Node1 -->
<g id="node1" class="node"><title>Node1</title>
<polygon fill="#bfbfbf" stroke="black" points="51,-0.5 51,-19.5 99,-19.5 99,-0.5 51,-0.5"/>
<text text-anchor="middle" x="75" y="-7.5" font-family="Helvetica,sans-Serif" font-size="10.00">Charge</text>
</g>
<!-- Node2 -->
<g id="node2" class="node"><title>Node2</title>
<g id="a_node2"><a xlink:href="classParamList.html" target="_top" xlink:title="Class providing methods to handle a list of parameters. ">
<polygon fill="white" stroke="black" points="-0.5,-68.5 -0.5,-87.5 60.5,-87.5 60.5,-68.5 -0.5,-68.5"/>
<text text-anchor="middle" x="30" y="-75.5" font-family="Helvetica,sans-Serif" font-size="10.00">ParamList</text>
</a>
</g>
</g>
<!-- Node2&#45;&gt;Node1 -->
<g id="edge1" class="edge"><title>Node2&#45;&gt;Node1</title>
<path fill="none" stroke="#9a32cd" stroke-dasharray="5,2" d="M41.6334,-59.9377C50.3782,-47.112 62.0051,-30.0591 68.972,-19.8411"/>
<polygon fill="#9a32cd" stroke="#9a32cd" points="38.6246,-58.1377 35.883,-68.3717 44.4082,-62.0811 38.6246,-58.1377"/>
<text text-anchor="middle" x="77.5" y="-41.5" font-family="Helvetica,sans-Serif" font-size="10.00"> params_</text>
</g>
<!-- Node3 -->
<g id="node3" class="node"><title>Node3</title>
<g id="a_node3"><a xlink:href="classQuadratureRule.html" target="_top" xlink:title="Abstract class providing a quadrature rule. ">
<polygon fill="white" stroke="black" points="78.5,-68.5 78.5,-87.5 163.5,-87.5 163.5,-68.5 78.5,-68.5"/>
<text text-anchor="middle" x="121" y="-75.5" font-family="Helvetica,sans-Serif" font-size="10.00">QuadratureRule</text>
</a>
</g>
</g>
<!-- Node3&#45;&gt;Node1 -->
<g id="edge2" class="edge"><title>Node3&#45;&gt;Node1</title>
<path fill="none" stroke="#9a32cd" stroke-dasharray="5,2" d="M111.998,-59.1974C108.281,-52.3695 103.735,-44.6308 99,-38 94.3348,-31.467 88.3348,-24.717 83.5011,-19.6002"/>
<polygon fill="#9a32cd" stroke="#9a32cd" points="109.035,-61.0827 116.778,-68.3141 115.234,-57.8323 109.035,-61.0827"/>
<text text-anchor="middle" x="118.5" y="-41.5" font-family="Helvetica,sans-Serif" font-size="10.00"> rule_</text>
</g>
</g>
</svg>
