<?xml version="1.0" encoding="UTF-8" standalone="no"?>
<!DOCTYPE svg PUBLIC "-//W3C//DTD SVG 1.1//EN"
 "http://www.w3.org/Graphics/SVG/1.1/DTD/svg11.dtd">
<!-- Generated by graphviz version 2.36.0 (20140111.2315)
 -->
<!-- Title: QuadratureRule Pages: 1 -->
<svg width="229pt" height="84pt"
 viewBox="0.00 0.00 229.00 84.00" xmlns="http://www.w3.org/2000/svg" xmlns:xlink="http://www.w3.org/1999/xlink">
<g id="graph0" class="graph" transform="scale(1 1) rotate(0) translate(4 80)">
<title>QuadratureRule</title>
<polygon fill="white" stroke="none" points="-4,4 -4,-80 225,-80 225,4 -4,4"/>
<!-- Node1 -->
<g id="node1" class="node"><title>Node1</title>
<polygon fill="#bfbfbf" stroke="black" points="67.5,-56.5 67.5,-75.5 152.5,-75.5 152.5,-56.5 67.5,-56.5"/>
<text text-anchor="middle" x="110" y="-63.5" font-family="Helvetica,sans-Serif" font-size="10.00">QuadratureRule</text>
</g>
<!-- Node2 -->
<g id="node2" class="node"><title>Node2</title>
<g id="a_node2"><a xlink:href="classGaussHermiteRule.html" target="_top" xlink:title="Class derived from QuadratureRule providing the Gauss&#45;Hermite quadrature rule. ">
<polygon fill="white" stroke="black" points="0,-0.5 0,-19.5 100,-19.5 100,-0.5 0,-0.5"/>
<text text-anchor="middle" x="50" y="-7.5" font-family="Helvetica,sans-Serif" font-size="10.00">GaussHermiteRule</text>
</a>
</g>
</g>
<!-- Node1&#45;&gt;Node2 -->
<g id="edge1" class="edge"><title>Node1&#45;&gt;Node2</title>
<path fill="none" stroke="midnightblue" d="M92.8191,-49.5372C82.1208,-39.9087 68.7437,-27.8694 59.8154,-19.8339"/>
<polygon fill="midnightblue" stroke="midnightblue" points="90.5856,-52.2358 100.36,-56.324 95.2684,-47.0327 90.5856,-52.2358"/>
</g>
<!-- Node3 -->
<g id="node3" class="node"><title>Node3</title>
<g id="a_node3"><a xlink:href="classGaussLaguerreRule.html" target="_top" xlink:title="Class derived from QuadratureRule providing the Gauss&#45;Laguerre quadrature rule. ">
<polygon fill="white" stroke="black" points="118.5,-0.5 118.5,-19.5 221.5,-19.5 221.5,-0.5 118.5,-0.5"/>
<text text-anchor="middle" x="170" y="-7.5" font-family="Helvetica,sans-Serif" font-size="10.00">GaussLaguerreRule</text>
</a>
</g>
</g>
<!-- Node1&#45;&gt;Node3 -->
<g id="edge2" class="edge"><title>Node1&#45;&gt;Node3</title>
<path fill="none" stroke="midnightblue" d="M127.181,-49.5372C137.879,-39.9087 151.256,-27.8694 160.185,-19.8339"/>
<polygon fill="midnightblue" stroke="midnightblue" points="124.732,-47.0327 119.64,-56.324 129.414,-52.2358 124.732,-47.0327"/>
</g>
</g>
</svg>
