<?xml version="1.0" encoding="UTF-8" standalone="no"?>
<!DOCTYPE svg PUBLIC "-//W3C//DTD SVG 1.1//EN"
 "http://www.w3.org/Graphics/SVG/1.1/DTD/svg11.dtd">
<!-- Generated by graphviz version 2.36.0 (20140111.2315)
 -->
<!-- Title: /home/elauksap/Dropbox/Progetto&#45;PACS/C++/Source/src/csvParser.h Pages: 1 -->
<svg width="608pt" height="162pt"
 viewBox="0.00 0.00 608.00 162.00" xmlns="http://www.w3.org/2000/svg" xmlns:xlink="http://www.w3.org/1999/xlink">
<g id="graph0" class="graph" transform="scale(1 1) rotate(0) translate(4 158)">
<title>/home/elauksap/Dropbox/Progetto&#45;PACS/C++/Source/src/csvParser.h</title>
<polygon fill="white" stroke="none" points="-4,4 -4,-158 604,-158 604,4 -4,4"/>
<!-- Node1 -->
<g id="node1" class="node"><title>Node1</title>
<polygon fill="#bfbfbf" stroke="black" points="384.5,-112.5 384.5,-153.5 527.5,-153.5 527.5,-112.5 384.5,-112.5"/>
<text text-anchor="start" x="392.5" y="-141.5" font-family="Helvetica,sans-Serif" font-size="10.00">/home/elauksap/Dropbox</text>
<text text-anchor="start" x="392.5" y="-130.5" font-family="Helvetica,sans-Serif" font-size="10.00">/Progetto&#45;PACS/C++/Source</text>
<text text-anchor="middle" x="456" y="-119.5" font-family="Helvetica,sans-Serif" font-size="10.00">/src/csvParser.h</text>
</g>
<!-- Node2 -->
<g id="node2" class="node"><title>Node2</title>
<g id="a_node2"><a xlink:href="typedefs_8h.html" target="_top" xlink:title="Typedefs and utility functions. ">
<polygon fill="white" stroke="black" points="245,-56.5 245,-75.5 307,-75.5 307,-56.5 245,-56.5"/>
<text text-anchor="middle" x="276" y="-63.5" font-family="Helvetica,sans-Serif" font-size="10.00">typedefs.h</text>
</a>
</g>
</g>
<!-- Node1&#45;&gt;Node2 -->
<g id="edge1" class="edge"><title>Node1&#45;&gt;Node2</title>
<path fill="none" stroke="midnightblue" d="M401.994,-112.498C372.008,-101.67 335.641,-88.5369 309.7,-79.1696"/>
<polygon fill="midnightblue" stroke="midnightblue" points="310.555,-75.7571 299.961,-75.6525 308.178,-82.3409 310.555,-75.7571"/>
</g>
<!-- Node7 -->
<g id="node7" class="node"><title>Node7</title>
<polygon fill="white" stroke="#bfbfbf" points="445,-0.5 445,-19.5 495,-19.5 495,-0.5 445,-0.5"/>
<text text-anchor="middle" x="470" y="-7.5" font-family="Helvetica,sans-Serif" font-size="10.00">fstream</text>
</g>
<!-- Node1&#45;&gt;Node7 -->
<g id="edge8" class="edge"><title>Node1&#45;&gt;Node7</title>
<path fill="none" stroke="midnightblue" d="M437.187,-112.402C424.881,-97.105 412.528,-75.2841 421,-56 426.39,-43.732 436.958,-33.3414 446.904,-25.6461"/>
<polygon fill="midnightblue" stroke="midnightblue" points="449.252,-28.2697 455.339,-19.598 445.172,-22.5811 449.252,-28.2697"/>
</g>
<!-- Node9 -->
<g id="node9" class="node"><title>Node9</title>
<polygon fill="white" stroke="#bfbfbf" points="430,-56.5 430,-75.5 482,-75.5 482,-56.5 430,-56.5"/>
<text text-anchor="middle" x="456" y="-63.5" font-family="Helvetica,sans-Serif" font-size="10.00">sstream</text>
</g>
<!-- Node1&#45;&gt;Node9 -->
<g id="edge9" class="edge"><title>Node1&#45;&gt;Node9</title>
<path fill="none" stroke="midnightblue" d="M456,-112.498C456,-104.065 456,-94.2351 456,-85.874"/>
<polygon fill="midnightblue" stroke="midnightblue" points="459.5,-85.6525 456,-75.6525 452.5,-85.6525 459.5,-85.6525"/>
</g>
<!-- Node10 -->
<g id="node10" class="node"><title>Node10</title>
<polygon fill="white" stroke="#bfbfbf" points="500.5,-56.5 500.5,-75.5 541.5,-75.5 541.5,-56.5 500.5,-56.5"/>
<text text-anchor="middle" x="521" y="-63.5" font-family="Helvetica,sans-Serif" font-size="10.00">string</text>
</g>
<!-- Node1&#45;&gt;Node10 -->
<g id="edge10" class="edge"><title>Node1&#45;&gt;Node10</title>
<path fill="none" stroke="midnightblue" d="M475.502,-112.498C484.989,-103.011 496.244,-91.7557 505.187,-82.8131"/>
<polygon fill="midnightblue" stroke="midnightblue" points="507.751,-85.1985 512.348,-75.6525 502.802,-80.2487 507.751,-85.1985"/>
</g>
<!-- Node11 -->
<g id="node11" class="node"><title>Node11</title>
<polygon fill="white" stroke="#bfbfbf" points="560,-56.5 560,-75.5 600,-75.5 600,-56.5 560,-56.5"/>
<text text-anchor="middle" x="580" y="-63.5" font-family="Helvetica,sans-Serif" font-size="10.00">utility</text>
</g>
<!-- Node1&#45;&gt;Node11 -->
<g id="edge11" class="edge"><title>Node1&#45;&gt;Node11</title>
<path fill="none" stroke="midnightblue" d="M493.204,-112.498C512.947,-102.149 536.706,-89.6946 554.371,-80.4346"/>
<polygon fill="midnightblue" stroke="midnightblue" points="556.262,-83.3952 563.494,-75.6525 553.012,-77.1954 556.262,-83.3952"/>
</g>
<!-- Node3 -->
<g id="node3" class="node"><title>Node3</title>
<polygon fill="white" stroke="#bfbfbf" points="-0.5,-0.5 -0.5,-19.5 72.5,-19.5 72.5,-0.5 -0.5,-0.5"/>
<text text-anchor="middle" x="36" y="-7.5" font-family="Helvetica,sans-Serif" font-size="10.00">Eigen/Dense</text>
</g>
<!-- Node2&#45;&gt;Node3 -->
<g id="edge2" class="edge"><title>Node2&#45;&gt;Node3</title>
<path fill="none" stroke="midnightblue" d="M244.624,-57.9404C203.344,-48.6523 130.448,-32.2509 82.6829,-21.5037"/>
<polygon fill="midnightblue" stroke="midnightblue" points="83.4165,-18.0813 72.8921,-19.3007 81.8799,-24.9106 83.4165,-18.0813"/>
</g>
<!-- Node4 -->
<g id="node4" class="node"><title>Node4</title>
<polygon fill="white" stroke="#bfbfbf" points="90.5,-0.5 90.5,-19.5 165.5,-19.5 165.5,-0.5 90.5,-0.5"/>
<text text-anchor="middle" x="128" y="-7.5" font-family="Helvetica,sans-Serif" font-size="10.00">Eigen/Sparse</text>
</g>
<!-- Node2&#45;&gt;Node4 -->
<g id="edge3" class="edge"><title>Node2&#45;&gt;Node4</title>
<path fill="none" stroke="midnightblue" d="M252.549,-56.4435C227.867,-47.4381 188.815,-33.1891 161.023,-23.049"/>
<polygon fill="midnightblue" stroke="midnightblue" points="161.935,-19.6561 151.341,-19.5164 159.536,-26.2321 161.935,-19.6561"/>
</g>
<!-- Node5 -->
<g id="node5" class="node"><title>Node5</title>
<polygon fill="white" stroke="#bfbfbf" points="183.5,-0.5 183.5,-19.5 230.5,-19.5 230.5,-0.5 183.5,-0.5"/>
<text text-anchor="middle" x="207" y="-7.5" font-family="Helvetica,sans-Serif" font-size="10.00">GetPot</text>
</g>
<!-- Node2&#45;&gt;Node5 -->
<g id="edge4" class="edge"><title>Node2&#45;&gt;Node5</title>
<path fill="none" stroke="midnightblue" d="M264.914,-56.324C254.514,-48.1849 238.739,-35.8395 226.278,-26.0874"/>
<polygon fill="midnightblue" stroke="midnightblue" points="228.32,-23.2407 218.288,-19.8339 224.006,-28.7533 228.32,-23.2407"/>
</g>
<!-- Node6 -->
<g id="node6" class="node"><title>Node6</title>
<polygon fill="white" stroke="#bfbfbf" points="249,-0.5 249,-19.5 303,-19.5 303,-0.5 249,-0.5"/>
<text text-anchor="middle" x="276" y="-7.5" font-family="Helvetica,sans-Serif" font-size="10.00">iostream</text>
</g>
<!-- Node2&#45;&gt;Node6 -->
<g id="edge5" class="edge"><title>Node2&#45;&gt;Node6</title>
<path fill="none" stroke="midnightblue" d="M276,-56.083C276,-49.0059 276,-38.8611 276,-29.9865"/>
<polygon fill="midnightblue" stroke="midnightblue" points="279.5,-29.751 276,-19.7511 272.5,-29.7511 279.5,-29.751"/>
</g>
<!-- Node2&#45;&gt;Node7 -->
<g id="edge6" class="edge"><title>Node2&#45;&gt;Node7</title>
<path fill="none" stroke="midnightblue" d="M306.74,-56.4435C341.702,-46.7118 398.663,-30.8567 435.221,-20.6807"/>
<polygon fill="midnightblue" stroke="midnightblue" points="436.261,-24.0244 444.956,-17.971 434.384,-17.2808 436.261,-24.0244"/>
</g>
<!-- Node8 -->
<g id="node8" class="node"><title>Node8</title>
<g id="a_node8"><a xlink:href="physicalConstants_8h.html" target="_top" xlink:title="Physical constants. ">
<polygon fill="white" stroke="black" points="321,-0.5 321,-19.5 427,-19.5 427,-0.5 321,-0.5"/>
<text text-anchor="middle" x="374" y="-7.5" font-family="Helvetica,sans-Serif" font-size="10.00">physicalConstants.h</text>
</a>
</g>
</g>
<!-- Node2&#45;&gt;Node8 -->
<g id="edge7" class="edge"><title>Node2&#45;&gt;Node8</title>
<path fill="none" stroke="midnightblue" d="M291.745,-56.324C307.319,-47.7428 331.377,-34.486 349.459,-24.5224"/>
<polygon fill="midnightblue" stroke="midnightblue" points="351.224,-27.546 358.294,-19.6545 347.846,-21.4152 351.224,-27.546"/>
</g>
</g>
</svg>
