<?xml version="1.0" encoding="UTF-8" standalone="no"?>
<!DOCTYPE svg PUBLIC "-//W3C//DTD SVG 1.1//EN"
 "http://www.w3.org/Graphics/SVG/1.1/DTD/svg11.dtd">
<!-- Generated by graphviz version 2.36.0 (20140111.2315)
 -->
<!-- Title: /home/elauksap/Dropbox/Progetto&#45;PACS/C++/Source/src/csvParser.cc Pages: 1 -->
<svg width="608pt" height="218pt"
 viewBox="0.00 0.00 608.00 218.00" xmlns="http://www.w3.org/2000/svg" xmlns:xlink="http://www.w3.org/1999/xlink">
<g id="graph0" class="graph" transform="scale(1 1) rotate(0) translate(4 214)">
<title>/home/elauksap/Dropbox/Progetto&#45;PACS/C++/Source/src/csvParser.cc</title>
<polygon fill="white" stroke="none" points="-4,4 -4,-214 604,-214 604,4 -4,4"/>
<!-- Node1 -->
<g id="node1" class="node"><title>Node1</title>
<polygon fill="#bfbfbf" stroke="black" points="384.5,-168.5 384.5,-209.5 527.5,-209.5 527.5,-168.5 384.5,-168.5"/>
<text text-anchor="start" x="392.5" y="-197.5" font-family="Helvetica,sans-Serif" font-size="10.00">/home/elauksap/Dropbox</text>
<text text-anchor="start" x="392.5" y="-186.5" font-family="Helvetica,sans-Serif" font-size="10.00">/Progetto&#45;PACS/C++/Source</text>
<text text-anchor="middle" x="456" y="-175.5" font-family="Helvetica,sans-Serif" font-size="10.00">/src/csvParser.cc</text>
</g>
<!-- Node2 -->
<g id="node2" class="node"><title>Node2</title>
<g id="a_node2"><a xlink:href="csvParser_8h.html" target="_top" xlink:title="Tools to store content from a .csv file in matrices or vectors. ">
<polygon fill="white" stroke="black" points="421.5,-112.5 421.5,-131.5 490.5,-131.5 490.5,-112.5 421.5,-112.5"/>
<text text-anchor="middle" x="456" y="-119.5" font-family="Helvetica,sans-Serif" font-size="10.00">csvParser.h</text>
</a>
</g>
</g>
<!-- Node1&#45;&gt;Node2 -->
<g id="edge1" class="edge"><title>Node1&#45;&gt;Node2</title>
<path fill="none" stroke="midnightblue" d="M456,-168.498C456,-160.065 456,-150.235 456,-141.874"/>
<polygon fill="midnightblue" stroke="midnightblue" points="459.5,-141.652 456,-131.652 452.5,-141.653 459.5,-141.652"/>
</g>
<!-- Node3 -->
<g id="node3" class="node"><title>Node3</title>
<g id="a_node3"><a xlink:href="typedefs_8h.html" target="_top" xlink:title="Typedefs and utility functions. ">
<polygon fill="white" stroke="black" points="245,-56.5 245,-75.5 307,-75.5 307,-56.5 245,-56.5"/>
<text text-anchor="middle" x="276" y="-63.5" font-family="Helvetica,sans-Serif" font-size="10.00">typedefs.h</text>
</a>
</g>
</g>
<!-- Node2&#45;&gt;Node3 -->
<g id="edge2" class="edge"><title>Node2&#45;&gt;Node3</title>
<path fill="none" stroke="midnightblue" d="M427.478,-112.444C396.934,-103.28 348.292,-88.6876 314.397,-78.5192"/>
<polygon fill="midnightblue" stroke="midnightblue" points="314.972,-75.0376 304.388,-75.5164 312.961,-81.7424 314.972,-75.0376"/>
</g>
<!-- Node8 -->
<g id="node8" class="node"><title>Node8</title>
<polygon fill="white" stroke="#bfbfbf" points="445,-0.5 445,-19.5 495,-19.5 495,-0.5 445,-0.5"/>
<text text-anchor="middle" x="470" y="-7.5" font-family="Helvetica,sans-Serif" font-size="10.00">fstream</text>
</g>
<!-- Node2&#45;&gt;Node8 -->
<g id="edge9" class="edge"><title>Node2&#45;&gt;Node8</title>
<path fill="none" stroke="midnightblue" d="M445.677,-112.391C432.329,-100.153 411.823,-76.8867 421,-56 426.39,-43.732 436.958,-33.3414 446.904,-25.6461"/>
<polygon fill="midnightblue" stroke="midnightblue" points="449.252,-28.2697 455.339,-19.598 445.172,-22.5811 449.252,-28.2697"/>
</g>
<!-- Node10 -->
<g id="node10" class="node"><title>Node10</title>
<polygon fill="white" stroke="#bfbfbf" points="430,-56.5 430,-75.5 482,-75.5 482,-56.5 430,-56.5"/>
<text text-anchor="middle" x="456" y="-63.5" font-family="Helvetica,sans-Serif" font-size="10.00">sstream</text>
</g>
<!-- Node2&#45;&gt;Node10 -->
<g id="edge10" class="edge"><title>Node2&#45;&gt;Node10</title>
<path fill="none" stroke="midnightblue" d="M456,-112.083C456,-105.006 456,-94.8611 456,-85.9865"/>
<polygon fill="midnightblue" stroke="midnightblue" points="459.5,-85.751 456,-75.7511 452.5,-85.7511 459.5,-85.751"/>
</g>
<!-- Node11 -->
<g id="node11" class="node"><title>Node11</title>
<polygon fill="white" stroke="#bfbfbf" points="500.5,-56.5 500.5,-75.5 541.5,-75.5 541.5,-56.5 500.5,-56.5"/>
<text text-anchor="middle" x="521" y="-63.5" font-family="Helvetica,sans-Serif" font-size="10.00">string</text>
</g>
<!-- Node2&#45;&gt;Node11 -->
<g id="edge11" class="edge"><title>Node2&#45;&gt;Node11</title>
<path fill="none" stroke="midnightblue" d="M466.443,-112.324C476.146,-104.263 490.815,-92.0765 502.5,-82.3695"/>
<polygon fill="midnightblue" stroke="midnightblue" points="504.911,-84.9163 510.367,-75.8339 500.438,-79.532 504.911,-84.9163"/>
</g>
<!-- Node12 -->
<g id="node12" class="node"><title>Node12</title>
<polygon fill="white" stroke="#bfbfbf" points="560,-56.5 560,-75.5 600,-75.5 600,-56.5 560,-56.5"/>
<text text-anchor="middle" x="580" y="-63.5" font-family="Helvetica,sans-Serif" font-size="10.00">utility</text>
</g>
<!-- Node2&#45;&gt;Node12 -->
<g id="edge12" class="edge"><title>Node2&#45;&gt;Node12</title>
<path fill="none" stroke="midnightblue" d="M475.648,-112.444C495.965,-103.596 527.903,-89.6875 551.098,-79.5865"/>
<polygon fill="midnightblue" stroke="midnightblue" points="552.673,-82.7181 560.444,-75.5164 549.878,-76.3002 552.673,-82.7181"/>
</g>
<!-- Node4 -->
<g id="node4" class="node"><title>Node4</title>
<polygon fill="white" stroke="#bfbfbf" points="-0.5,-0.5 -0.5,-19.5 72.5,-19.5 72.5,-0.5 -0.5,-0.5"/>
<text text-anchor="middle" x="36" y="-7.5" font-family="Helvetica,sans-Serif" font-size="10.00">Eigen/Dense</text>
</g>
<!-- Node3&#45;&gt;Node4 -->
<g id="edge3" class="edge"><title>Node3&#45;&gt;Node4</title>
<path fill="none" stroke="midnightblue" d="M244.624,-57.9404C203.344,-48.6523 130.448,-32.2509 82.6829,-21.5037"/>
<polygon fill="midnightblue" stroke="midnightblue" points="83.4165,-18.0813 72.8921,-19.3007 81.8799,-24.9106 83.4165,-18.0813"/>
</g>
<!-- Node5 -->
<g id="node5" class="node"><title>Node5</title>
<polygon fill="white" stroke="#bfbfbf" points="90.5,-0.5 90.5,-19.5 165.5,-19.5 165.5,-0.5 90.5,-0.5"/>
<text text-anchor="middle" x="128" y="-7.5" font-family="Helvetica,sans-Serif" font-size="10.00">Eigen/Sparse</text>
</g>
<!-- Node3&#45;&gt;Node5 -->
<g id="edge4" class="edge"><title>Node3&#45;&gt;Node5</title>
<path fill="none" stroke="midnightblue" d="M252.549,-56.4435C227.867,-47.4381 188.815,-33.1891 161.023,-23.049"/>
<polygon fill="midnightblue" stroke="midnightblue" points="161.935,-19.6561 151.341,-19.5164 159.536,-26.2321 161.935,-19.6561"/>
</g>
<!-- Node6 -->
<g id="node6" class="node"><title>Node6</title>
<polygon fill="white" stroke="#bfbfbf" points="183.5,-0.5 183.5,-19.5 230.5,-19.5 230.5,-0.5 183.5,-0.5"/>
<text text-anchor="middle" x="207" y="-7.5" font-family="Helvetica,sans-Serif" font-size="10.00">GetPot</text>
</g>
<!-- Node3&#45;&gt;Node6 -->
<g id="edge5" class="edge"><title>Node3&#45;&gt;Node6</title>
<path fill="none" stroke="midnightblue" d="M264.914,-56.324C254.514,-48.1849 238.739,-35.8395 226.278,-26.0874"/>
<polygon fill="midnightblue" stroke="midnightblue" points="228.32,-23.2407 218.288,-19.8339 224.006,-28.7533 228.32,-23.2407"/>
</g>
<!-- Node7 -->
<g id="node7" class="node"><title>Node7</title>
<polygon fill="white" stroke="#bfbfbf" points="249,-0.5 249,-19.5 303,-19.5 303,-0.5 249,-0.5"/>
<text text-anchor="middle" x="276" y="-7.5" font-family="Helvetica,sans-Serif" font-size="10.00">iostream</text>
</g>
<!-- Node3&#45;&gt;Node7 -->
<g id="edge6" class="edge"><title>Node3&#45;&gt;Node7</title>
<path fill="none" stroke="midnightblue" d="M276,-56.083C276,-49.0059 276,-38.8611 276,-29.9865"/>
<polygon fill="midnightblue" stroke="midnightblue" points="279.5,-29.751 276,-19.7511 272.5,-29.7511 279.5,-29.751"/>
</g>
<!-- Node3&#45;&gt;Node8 -->
<g id="edge7" class="edge"><title>Node3&#45;&gt;Node8</title>
<path fill="none" stroke="midnightblue" d="M306.74,-56.4435C341.702,-46.7118 398.663,-30.8567 435.221,-20.6807"/>
<polygon fill="midnightblue" stroke="midnightblue" points="436.261,-24.0244 444.956,-17.971 434.384,-17.2808 436.261,-24.0244"/>
</g>
<!-- Node9 -->
<g id="node9" class="node"><title>Node9</title>
<g id="a_node9"><a xlink:href="physicalConstants_8h.html" target="_top" xlink:title="Physical constants. ">
<polygon fill="white" stroke="black" points="321,-0.5 321,-19.5 427,-19.5 427,-0.5 321,-0.5"/>
<text text-anchor="middle" x="374" y="-7.5" font-family="Helvetica,sans-Serif" font-size="10.00">physicalConstants.h</text>
</a>
</g>
</g>
<!-- Node3&#45;&gt;Node9 -->
<g id="edge8" class="edge"><title>Node3&#45;&gt;Node9</title>
<path fill="none" stroke="midnightblue" d="M291.745,-56.324C307.319,-47.7428 331.377,-34.486 349.459,-24.5224"/>
<polygon fill="midnightblue" stroke="midnightblue" points="351.224,-27.546 358.294,-19.6545 347.846,-21.4152 351.224,-27.546"/>
</g>
</g>
</svg>
