<?xml version="1.0" encoding="UTF-8" standalone="no"?>
<!DOCTYPE svg PUBLIC "-//W3C//DTD SVG 1.1//EN"
 "http://www.w3.org/Graphics/SVG/1.1/DTD/svg11.dtd">
<!-- Generated by graphviz version 2.36.0 (20140111.2315)
 -->
<!-- Title: /home/elauksap/Dropbox/Progetto&#45;PACS/C++/Source/src/dosModel.cc Pages: 1 -->
<svg width="805pt" height="386pt"
 viewBox="0.00 0.00 805.00 386.00" xmlns="http://www.w3.org/2000/svg" xmlns:xlink="http://www.w3.org/1999/xlink">
<g id="graph0" class="graph" transform="scale(1 1) rotate(0) translate(4 382)">
<title>/home/elauksap/Dropbox/Progetto&#45;PACS/C++/Source/src/dosModel.cc</title>
<polygon fill="white" stroke="none" points="-4,4 -4,-382 801,-382 801,4 -4,4"/>
<!-- Node1 -->
<g id="node1" class="node"><title>Node1</title>
<polygon fill="#bfbfbf" stroke="black" points="280.5,-336.5 280.5,-377.5 423.5,-377.5 423.5,-336.5 280.5,-336.5"/>
<text text-anchor="start" x="288.5" y="-365.5" font-family="Helvetica,sans-Serif" font-size="10.00">/home/elauksap/Dropbox</text>
<text text-anchor="start" x="288.5" y="-354.5" font-family="Helvetica,sans-Serif" font-size="10.00">/Progetto&#45;PACS/C++/Source</text>
<text text-anchor="middle" x="352" y="-343.5" font-family="Helvetica,sans-Serif" font-size="10.00">/src/dosModel.cc</text>
</g>
<!-- Node2 -->
<g id="node2" class="node"><title>Node2</title>
<g id="a_node2"><a xlink:href="dosModel_8h.html" target="_top" xlink:title="Mathematical model for Density of States extraction. ">
<polygon fill="white" stroke="black" points="318.5,-280.5 318.5,-299.5 385.5,-299.5 385.5,-280.5 318.5,-280.5"/>
<text text-anchor="middle" x="352" y="-287.5" font-family="Helvetica,sans-Serif" font-size="10.00">dosModel.h</text>
</a>
</g>
</g>
<!-- Node1&#45;&gt;Node2 -->
<g id="edge1" class="edge"><title>Node1&#45;&gt;Node2</title>
<path fill="none" stroke="midnightblue" d="M352,-336.498C352,-328.065 352,-318.235 352,-309.874"/>
<polygon fill="midnightblue" stroke="midnightblue" points="355.5,-309.652 352,-299.652 348.5,-309.653 355.5,-309.652"/>
</g>
<!-- Node3 -->
<g id="node3" class="node"><title>Node3</title>
<g id="a_node3"><a xlink:href="charge_8h.html" target="_top" xlink:title="Classes for computing total electric charge. ">
<polygon fill="white" stroke="black" points="85,-168.5 85,-187.5 139,-187.5 139,-168.5 85,-168.5"/>
<text text-anchor="middle" x="112" y="-175.5" font-family="Helvetica,sans-Serif" font-size="10.00">charge.h</text>
</a>
</g>
</g>
<!-- Node2&#45;&gt;Node3 -->
<g id="edge2" class="edge"><title>Node2&#45;&gt;Node3</title>
<path fill="none" stroke="midnightblue" d="M318.44,-287.795C258.727,-284.87 137.855,-275.154 112,-244 101.433,-231.268 102.971,-211.797 106.213,-197.484"/>
<polygon fill="midnightblue" stroke="midnightblue" points="109.616,-198.308 108.853,-187.741 102.86,-196.478 109.616,-198.308"/>
</g>
<!-- Node4 -->
<g id="node4" class="node"><title>Node4</title>
<g id="a_node4"><a xlink:href="paramList_8h.html" target="_top" xlink:title="Interface to process a list of simulation parameters. ">
<polygon fill="white" stroke="black" points="147,-112.5 147,-131.5 215,-131.5 215,-112.5 147,-112.5"/>
<text text-anchor="middle" x="181" y="-119.5" font-family="Helvetica,sans-Serif" font-size="10.00">paramList.h</text>
</a>
</g>
</g>
<!-- Node2&#45;&gt;Node4 -->
<g id="edge27" class="edge"><title>Node2&#45;&gt;Node4</title>
<path fill="none" stroke="midnightblue" d="M318.497,-284.427C291.215,-279.075 253.359,-267.712 229,-244 200.082,-215.85 188.152,-168.096 183.581,-141.785"/>
<polygon fill="midnightblue" stroke="midnightblue" points="186.999,-140.989 182.003,-131.646 180.082,-142.065 186.999,-140.989"/>
</g>
<!-- Node5 -->
<g id="node5" class="node"><title>Node5</title>
<g id="a_node5"><a xlink:href="typedefs_8h.html" target="_top" xlink:title="Typedefs and utility functions. ">
<polygon fill="white" stroke="black" points="228,-56.5 228,-75.5 290,-75.5 290,-56.5 228,-56.5"/>
<text text-anchor="middle" x="259" y="-63.5" font-family="Helvetica,sans-Serif" font-size="10.00">typedefs.h</text>
</a>
</g>
</g>
<!-- Node2&#45;&gt;Node5 -->
<g id="edge34" class="edge"><title>Node2&#45;&gt;Node5</title>
<path fill="none" stroke="midnightblue" d="M324.928,-280.475C307.628,-273.533 286.376,-261.904 275,-244 243.335,-194.164 250.07,-119.928 255.489,-85.6201"/>
<polygon fill="midnightblue" stroke="midnightblue" points="258.965,-86.0587 257.219,-75.6088 252.068,-84.8667 258.965,-86.0587"/>
</g>
<!-- Node12 -->
<g id="node12" class="node"><title>Node12</title>
<g id="a_node12"><a xlink:href="quadratureRule_8h.html" target="_top" xlink:title="Quadrature rules. ">
<polygon fill="white" stroke="black" points="-0.5,-112.5 -0.5,-131.5 90.5,-131.5 90.5,-112.5 -0.5,-112.5"/>
<text text-anchor="middle" x="45" y="-119.5" font-family="Helvetica,sans-Serif" font-size="10.00">quadratureRule.h</text>
</a>
</g>
</g>
<!-- Node2&#45;&gt;Node12 -->
<g id="edge28" class="edge"><title>Node2&#45;&gt;Node12</title>
<path fill="none" stroke="midnightblue" d="M318.164,-286.015C258.36,-280.24 136.898,-266.125 101,-244 74.5152,-227.676 71.9077,-216.307 59,-188 52.3324,-173.378 48.7764,-155.436 46.9195,-142.11"/>
<polygon fill="midnightblue" stroke="midnightblue" points="50.3482,-141.302 45.6897,-131.786 43.3973,-142.13 50.3482,-141.302"/>
</g>
<!-- Node13 -->
<g id="node13" class="node"><title>Node13</title>
<g id="a_node13"><a xlink:href="csvParser_8h.html" target="_top" xlink:title="Tools to store content from a .csv file in matrices or vectors. ">
<polygon fill="white" stroke="black" points="358.5,-224.5 358.5,-243.5 427.5,-243.5 427.5,-224.5 358.5,-224.5"/>
<text text-anchor="middle" x="393" y="-231.5" font-family="Helvetica,sans-Serif" font-size="10.00">csvParser.h</text>
</a>
</g>
</g>
<!-- Node2&#45;&gt;Node13 -->
<g id="edge14" class="edge"><title>Node2&#45;&gt;Node13</title>
<path fill="none" stroke="midnightblue" d="M358.77,-280.083C364.562,-272.455 373.058,-261.264 380.138,-251.941"/>
<polygon fill="midnightblue" stroke="midnightblue" points="383.096,-253.832 386.356,-243.751 377.521,-249.599 383.096,-253.832"/>
</g>
<!-- Node17 -->
<g id="node17" class="node"><title>Node17</title>
<g id="a_node17"><a xlink:href="factory_8h.html" target="_top" xlink:title="Abstract factory design patterns. ">
<polygon fill="white" stroke="black" points="121.5,-224.5 121.5,-243.5 176.5,-243.5 176.5,-224.5 121.5,-224.5"/>
<text text-anchor="middle" x="149" y="-231.5" font-family="Helvetica,sans-Serif" font-size="10.00">factory.h</text>
</a>
</g>
</g>
<!-- Node2&#45;&gt;Node17 -->
<g id="edge20" class="edge"><title>Node2&#45;&gt;Node17</title>
<path fill="none" stroke="midnightblue" d="M319.834,-280.444C283.607,-270.807 224.807,-255.165 186.518,-244.98"/>
<polygon fill="midnightblue" stroke="midnightblue" points="187.339,-241.577 176.775,-242.388 185.539,-248.342 187.339,-241.577"/>
</g>
<!-- Node18 -->
<g id="node18" class="node"><title>Node18</title>
<g id="a_node18"><a xlink:href="numerics_8h.html" target="_top" xlink:title="Generic numeric algorithms. ">
<polygon fill="white" stroke="black" points="484.5,-224.5 484.5,-243.5 549.5,-243.5 549.5,-224.5 484.5,-224.5"/>
<text text-anchor="middle" x="517" y="-231.5" font-family="Helvetica,sans-Serif" font-size="10.00">numerics.h</text>
</a>
</g>
</g>
<!-- Node2&#45;&gt;Node18 -->
<g id="edge24" class="edge"><title>Node2&#45;&gt;Node18</title>
<path fill="none" stroke="midnightblue" d="M378.145,-280.444C406.023,-271.32 450.348,-256.813 481.4,-246.651"/>
<polygon fill="midnightblue" stroke="midnightblue" points="482.562,-249.953 490.978,-243.516 480.385,-243.3 482.562,-249.953"/>
</g>
<!-- Node19 -->
<g id="node19" class="node"><title>Node19</title>
<polygon fill="white" stroke="#bfbfbf" points="573,-168.5 573,-187.5 613,-187.5 613,-168.5 573,-168.5"/>
<text text-anchor="middle" x="593" y="-175.5" font-family="Helvetica,sans-Serif" font-size="10.00">limits</text>
</g>
<!-- Node2&#45;&gt;Node19 -->
<g id="edge38" class="edge"><title>Node2&#45;&gt;Node19</title>
<path fill="none" stroke="midnightblue" d="M368.271,-280.259C399.195,-263.669 464.329,-228.832 475,-224 504.36,-210.704 538.909,-197.84 563.008,-189.296"/>
<polygon fill="midnightblue" stroke="midnightblue" points="564.375,-192.525 572.651,-185.91 562.056,-185.921 564.375,-192.525"/>
</g>
<!-- Node20 -->
<g id="node20" class="node"><title>Node20</title>
<g id="a_node20"><a xlink:href="solvers_8h.html" target="_top" xlink:title="Generic solvers for PDEs. ">
<polygon fill="white" stroke="black" points="284,-224.5 284,-243.5 340,-243.5 340,-224.5 284,-224.5"/>
<text text-anchor="middle" x="312" y="-231.5" font-family="Helvetica,sans-Serif" font-size="10.00">solvers.h</text>
</a>
</g>
</g>
<!-- Node2&#45;&gt;Node20 -->
<g id="edge29" class="edge"><title>Node2&#45;&gt;Node20</title>
<path fill="none" stroke="midnightblue" d="M345.395,-280.083C339.745,-272.455 331.455,-261.264 324.549,-251.941"/>
<polygon fill="midnightblue" stroke="midnightblue" points="327.247,-249.703 318.482,-243.751 321.622,-253.87 327.247,-249.703"/>
</g>
<!-- Node21 -->
<g id="node21" class="node"><title>Node21</title>
<polygon fill="white" stroke="#bfbfbf" points="567.5,-224.5 567.5,-243.5 664.5,-243.5 664.5,-224.5 567.5,-224.5"/>
<text text-anchor="middle" x="616" y="-231.5" font-family="Helvetica,sans-Serif" font-size="10.00">gnuplot&#45;iostream.h</text>
</g>
<!-- Node2&#45;&gt;Node21 -->
<g id="edge35" class="edge"><title>Node2&#45;&gt;Node21</title>
<path fill="none" stroke="midnightblue" d="M385.704,-282.106C430.888,-272.864 511.522,-256.37 564.383,-245.558"/>
<polygon fill="midnightblue" stroke="midnightblue" points="565.144,-248.975 574.24,-243.542 563.742,-242.117 565.144,-248.975"/>
</g>
<!-- Node22 -->
<g id="node22" class="node"><title>Node22</title>
<polygon fill="white" stroke="#bfbfbf" points="683,-224.5 683,-243.5 729,-243.5 729,-224.5 683,-224.5"/>
<text text-anchor="middle" x="706" y="-231.5" font-family="Helvetica,sans-Serif" font-size="10.00">chrono</text>
</g>
<!-- Node2&#45;&gt;Node22 -->
<g id="edge36" class="edge"><title>Node2&#45;&gt;Node22</title>
<path fill="none" stroke="midnightblue" d="M385.511,-285.72C442.449,-279.84 561.833,-266.193 672.645,-243.812"/>
<polygon fill="midnightblue" stroke="midnightblue" points="673.559,-247.197 682.653,-241.761 672.154,-240.34 673.559,-247.197"/>
</g>
<!-- Node23 -->
<g id="node23" class="node"><title>Node23</title>
<polygon fill="white" stroke="#bfbfbf" points="747,-224.5 747,-243.5 797,-243.5 797,-224.5 747,-224.5"/>
<text text-anchor="middle" x="772" y="-231.5" font-family="Helvetica,sans-Serif" font-size="10.00">iomanip</text>
</g>
<!-- Node2&#45;&gt;Node23 -->
<g id="edge37" class="edge"><title>Node2&#45;&gt;Node23</title>
<path fill="none" stroke="midnightblue" d="M385.546,-286.709C451.195,-281.878 601.34,-269.124 736.707,-243.998"/>
<polygon fill="midnightblue" stroke="midnightblue" points="737.662,-247.379 746.841,-242.088 736.365,-240.501 737.662,-247.379"/>
</g>
<!-- Node3&#45;&gt;Node4 -->
<g id="edge3" class="edge"><title>Node3&#45;&gt;Node4</title>
<path fill="none" stroke="midnightblue" d="M123.086,-168.324C133.486,-160.185 149.261,-147.839 161.722,-138.087"/>
<polygon fill="midnightblue" stroke="midnightblue" points="163.994,-140.753 169.712,-131.834 159.68,-135.241 163.994,-140.753"/>
</g>
<!-- Node3&#45;&gt;Node5 -->
<g id="edge13" class="edge"><title>Node3&#45;&gt;Node5</title>
<path fill="none" stroke="midnightblue" d="M113.215,-168.174C115.565,-154.365 121.995,-127.619 138,-112 159.666,-90.8572 192.154,-79.4979 218.012,-73.484"/>
<polygon fill="midnightblue" stroke="midnightblue" points="218.873,-76.8789 227.918,-71.3612 217.407,-70.0343 218.873,-76.8789"/>
</g>
<!-- Node3&#45;&gt;Node12 -->
<g id="edge11" class="edge"><title>Node3&#45;&gt;Node12</title>
<path fill="none" stroke="midnightblue" d="M101.235,-168.324C91.2339,-160.263 76.1135,-148.077 64.0695,-138.369"/>
<polygon fill="midnightblue" stroke="midnightblue" points="65.9429,-135.384 55.9606,-131.834 61.5502,-140.834 65.9429,-135.384"/>
</g>
<!-- Node4&#45;&gt;Node5 -->
<g id="edge4" class="edge"><title>Node4&#45;&gt;Node5</title>
<path fill="none" stroke="midnightblue" d="M193.532,-112.324C205.586,-103.979 224.027,-91.2122 238.269,-81.3524"/>
<polygon fill="midnightblue" stroke="midnightblue" points="240.269,-84.2243 246.499,-75.6545 236.285,-78.469 240.269,-84.2243"/>
</g>
<!-- Node6 -->
<g id="node6" class="node"><title>Node6</title>
<polygon fill="white" stroke="#bfbfbf" points="222.5,-0.5 222.5,-19.5 295.5,-19.5 295.5,-0.5 222.5,-0.5"/>
<text text-anchor="middle" x="259" y="-7.5" font-family="Helvetica,sans-Serif" font-size="10.00">Eigen/Dense</text>
</g>
<!-- Node5&#45;&gt;Node6 -->
<g id="edge5" class="edge"><title>Node5&#45;&gt;Node6</title>
<path fill="none" stroke="midnightblue" d="M259,-56.083C259,-49.0059 259,-38.8611 259,-29.9865"/>
<polygon fill="midnightblue" stroke="midnightblue" points="262.5,-29.751 259,-19.7511 255.5,-29.7511 262.5,-29.751"/>
</g>
<!-- Node7 -->
<g id="node7" class="node"><title>Node7</title>
<polygon fill="white" stroke="#bfbfbf" points="313.5,-0.5 313.5,-19.5 388.5,-19.5 388.5,-0.5 313.5,-0.5"/>
<text text-anchor="middle" x="351" y="-7.5" font-family="Helvetica,sans-Serif" font-size="10.00">Eigen/Sparse</text>
</g>
<!-- Node5&#45;&gt;Node7 -->
<g id="edge6" class="edge"><title>Node5&#45;&gt;Node7</title>
<path fill="none" stroke="midnightblue" d="M273.781,-56.324C288.267,-47.8215 310.573,-34.7288 327.493,-24.7975"/>
<polygon fill="midnightblue" stroke="midnightblue" points="329.403,-27.735 336.255,-19.6545 325.859,-21.6981 329.403,-27.735"/>
</g>
<!-- Node8 -->
<g id="node8" class="node"><title>Node8</title>
<polygon fill="white" stroke="#bfbfbf" points="406.5,-0.5 406.5,-19.5 453.5,-19.5 453.5,-0.5 406.5,-0.5"/>
<text text-anchor="middle" x="430" y="-7.5" font-family="Helvetica,sans-Serif" font-size="10.00">GetPot</text>
</g>
<!-- Node5&#45;&gt;Node8 -->
<g id="edge7" class="edge"><title>Node5&#45;&gt;Node8</title>
<path fill="none" stroke="midnightblue" d="M286.095,-56.4435C316.008,-46.9976 364.189,-31.7826 396.46,-21.5916"/>
<polygon fill="midnightblue" stroke="midnightblue" points="397.854,-24.8219 406.335,-18.473 395.746,-18.1469 397.854,-24.8219"/>
</g>
<!-- Node9 -->
<g id="node9" class="node"><title>Node9</title>
<polygon fill="white" stroke="#bfbfbf" points="26,-0.5 26,-19.5 80,-19.5 80,-0.5 26,-0.5"/>
<text text-anchor="middle" x="53" y="-7.5" font-family="Helvetica,sans-Serif" font-size="10.00">iostream</text>
</g>
<!-- Node5&#45;&gt;Node9 -->
<g id="edge8" class="edge"><title>Node5&#45;&gt;Node9</title>
<path fill="none" stroke="midnightblue" d="M227.713,-56.7986C190.749,-47.1089 129.322,-31.0067 90.0228,-20.705"/>
<polygon fill="midnightblue" stroke="midnightblue" points="90.8544,-17.3048 80.2937,-18.1547 89.0794,-24.076 90.8544,-17.3048"/>
</g>
<!-- Node10 -->
<g id="node10" class="node"><title>Node10</title>
<polygon fill="white" stroke="#bfbfbf" points="504,-0.5 504,-19.5 554,-19.5 554,-0.5 504,-0.5"/>
<text text-anchor="middle" x="529" y="-7.5" font-family="Helvetica,sans-Serif" font-size="10.00">fstream</text>
</g>
<!-- Node5&#45;&gt;Node10 -->
<g id="edge9" class="edge"><title>Node5&#45;&gt;Node10</title>
<path fill="none" stroke="midnightblue" d="M290.236,-58.7528C340.86,-48.6281 440.502,-28.6996 493.65,-18.0701"/>
<polygon fill="midnightblue" stroke="midnightblue" points="494.511,-21.4671 503.631,-16.0738 493.139,-14.603 494.511,-21.4671"/>
</g>
<!-- Node11 -->
<g id="node11" class="node"><title>Node11</title>
<g id="a_node11"><a xlink:href="physicalConstants_8h.html" target="_top" xlink:title="Physical constants. ">
<polygon fill="white" stroke="black" points="98,-0.5 98,-19.5 204,-19.5 204,-0.5 98,-0.5"/>
<text text-anchor="middle" x="151" y="-7.5" font-family="Helvetica,sans-Serif" font-size="10.00">physicalConstants.h</text>
</a>
</g>
</g>
<!-- Node5&#45;&gt;Node11 -->
<g id="edge10" class="edge"><title>Node5&#45;&gt;Node11</title>
<path fill="none" stroke="midnightblue" d="M241.648,-56.324C224.328,-47.6641 197.485,-34.2424 177.498,-24.249"/>
<polygon fill="midnightblue" stroke="midnightblue" points="178.819,-20.9962 168.309,-19.6545 175.688,-27.2572 178.819,-20.9962"/>
</g>
<!-- Node12&#45;&gt;Node5 -->
<g id="edge12" class="edge"><title>Node12&#45;&gt;Node5</title>
<path fill="none" stroke="midnightblue" d="M78.9089,-112.444C116.61,-102.93 177.501,-87.5652 217.887,-77.3743"/>
<polygon fill="midnightblue" stroke="midnightblue" points="218.847,-80.7419 227.687,-74.9015 217.134,-73.9546 218.847,-80.7419"/>
</g>
<!-- Node13&#45;&gt;Node5 -->
<g id="edge15" class="edge"><title>Node13&#45;&gt;Node5</title>
<path fill="none" stroke="midnightblue" d="M403.903,-224.101C417.939,-211.517 439.258,-187.843 428,-168 400.732,-119.937 340.504,-92.2985 299.821,-78.4564"/>
<polygon fill="midnightblue" stroke="midnightblue" points="300.778,-75.0872 290.186,-75.3101 298.605,-81.7414 300.778,-75.0872"/>
</g>
<!-- Node13&#45;&gt;Node10 -->
<g id="edge16" class="edge"><title>Node13&#45;&gt;Node10</title>
<path fill="none" stroke="midnightblue" d="M427.665,-225.873C462.702,-217.893 513.3,-203.965 525,-188 559.92,-140.349 544.66,-64.4795 534.885,-29.6224"/>
<polygon fill="midnightblue" stroke="midnightblue" points="538.18,-28.4218 531.975,-19.8341 531.47,-30.4169 538.18,-28.4218"/>
</g>
<!-- Node14 -->
<g id="node14" class="node"><title>Node14</title>
<polygon fill="white" stroke="#bfbfbf" points="367,-168.5 367,-187.5 419,-187.5 419,-168.5 367,-168.5"/>
<text text-anchor="middle" x="393" y="-175.5" font-family="Helvetica,sans-Serif" font-size="10.00">sstream</text>
</g>
<!-- Node13&#45;&gt;Node14 -->
<g id="edge17" class="edge"><title>Node13&#45;&gt;Node14</title>
<path fill="none" stroke="midnightblue" d="M393,-224.083C393,-217.006 393,-206.861 393,-197.986"/>
<polygon fill="midnightblue" stroke="midnightblue" points="396.5,-197.751 393,-187.751 389.5,-197.751 396.5,-197.751"/>
</g>
<!-- Node15 -->
<g id="node15" class="node"><title>Node15</title>
<polygon fill="white" stroke="#bfbfbf" points="475.5,-168.5 475.5,-187.5 516.5,-187.5 516.5,-168.5 475.5,-168.5"/>
<text text-anchor="middle" x="496" y="-175.5" font-family="Helvetica,sans-Serif" font-size="10.00">string</text>
</g>
<!-- Node13&#45;&gt;Node15 -->
<g id="edge18" class="edge"><title>Node13&#45;&gt;Node15</title>
<path fill="none" stroke="midnightblue" d="M409.549,-224.324C425.992,-215.703 451.435,-202.364 470.468,-192.386"/>
<polygon fill="midnightblue" stroke="midnightblue" points="472.261,-195.398 479.492,-187.655 469.011,-189.198 472.261,-195.398"/>
</g>
<!-- Node16 -->
<g id="node16" class="node"><title>Node16</title>
<polygon fill="white" stroke="#bfbfbf" points="309,-168.5 309,-187.5 349,-187.5 349,-168.5 309,-168.5"/>
<text text-anchor="middle" x="329" y="-175.5" font-family="Helvetica,sans-Serif" font-size="10.00">utility</text>
</g>
<!-- Node13&#45;&gt;Node16 -->
<g id="edge19" class="edge"><title>Node13&#45;&gt;Node16</title>
<path fill="none" stroke="midnightblue" d="M382.717,-224.324C373.164,-216.263 358.72,-204.077 347.216,-194.369"/>
<polygon fill="midnightblue" stroke="midnightblue" points="349.37,-191.608 339.47,-187.834 344.856,-196.958 349.37,-191.608"/>
</g>
<!-- Node17&#45;&gt;Node3 -->
<g id="edge21" class="edge"><title>Node17&#45;&gt;Node3</title>
<path fill="none" stroke="midnightblue" d="M142.89,-224.083C137.718,-216.534 130.154,-205.495 123.806,-196.23"/>
<polygon fill="midnightblue" stroke="midnightblue" points="126.536,-194.022 117.996,-187.751 120.761,-197.979 126.536,-194.022"/>
</g>
<!-- Node17&#45;&gt;Node4 -->
<g id="edge22" class="edge"><title>Node17&#45;&gt;Node4</title>
<path fill="none" stroke="midnightblue" d="M151.511,-224.368C156.698,-206.537 168.696,-165.295 175.685,-141.272"/>
<polygon fill="midnightblue" stroke="midnightblue" points="179.068,-142.171 178.501,-131.591 172.347,-140.216 179.068,-142.171"/>
</g>
<!-- Node17&#45;&gt;Node12 -->
<g id="edge23" class="edge"><title>Node17&#45;&gt;Node12</title>
<path fill="none" stroke="midnightblue" d="M128.846,-224.484C112.82,-216.873 90.7219,-204.395 76,-188 63.8851,-174.509 55.5475,-155.442 50.5956,-141.447"/>
<polygon fill="midnightblue" stroke="midnightblue" points="53.9088,-140.318 47.4624,-131.91 47.2585,-142.503 53.9088,-140.318"/>
</g>
<!-- Node18&#45;&gt;Node5 -->
<g id="edge25" class="edge"><title>Node18&#45;&gt;Node5</title>
<path fill="none" stroke="midnightblue" d="M549.697,-226.327C588.275,-216.946 644.503,-197.619 622,-168 582.784,-116.383 386.717,-84.1524 300.169,-72.2283"/>
<polygon fill="midnightblue" stroke="midnightblue" points="300.555,-68.7486 290.176,-70.8748 299.615,-75.6853 300.555,-68.7486"/>
</g>
<!-- Node18&#45;&gt;Node19 -->
<g id="edge26" class="edge"><title>Node18&#45;&gt;Node19</title>
<path fill="none" stroke="midnightblue" d="M529.211,-224.324C540.776,-216.107 558.375,-203.602 572.161,-193.807"/>
<polygon fill="midnightblue" stroke="midnightblue" points="574.443,-196.479 580.567,-187.834 570.388,-190.773 574.443,-196.479"/>
</g>
<!-- Node20&#45;&gt;Node3 -->
<g id="edge30" class="edge"><title>Node20&#45;&gt;Node3</title>
<path fill="none" stroke="midnightblue" d="M283.769,-225.378C248.482,-215.85 187.996,-199.519 149.025,-188.997"/>
<polygon fill="midnightblue" stroke="midnightblue" points="149.693,-185.552 139.126,-186.324 147.868,-192.31 149.693,-185.552"/>
</g>
<!-- Node20&#45;&gt;Node5 -->
<g id="edge31" class="edge"><title>Node20&#45;&gt;Node5</title>
<path fill="none" stroke="midnightblue" d="M309.15,-224.075C300.772,-197.832 276.096,-120.545 264.784,-85.1165"/>
<polygon fill="midnightblue" stroke="midnightblue" points="268.111,-84.0298 261.736,-75.5681 261.443,-86.1589 268.111,-84.0298"/>
</g>
<!-- Node20&#45;&gt;Node16 -->
<g id="edge32" class="edge"><title>Node20&#45;&gt;Node16</title>
<path fill="none" stroke="midnightblue" d="M314.807,-224.083C317.085,-216.849 320.371,-206.409 323.208,-197.397"/>
<polygon fill="midnightblue" stroke="midnightblue" points="326.581,-198.341 326.245,-187.751 319.904,-196.239 326.581,-198.341"/>
</g>
<!-- Node20&#45;&gt;Node19 -->
<g id="edge33" class="edge"><title>Node20&#45;&gt;Node19</title>
<path fill="none" stroke="midnightblue" d="M340.244,-225.957C343.196,-225.272 346.155,-224.608 349,-224 425.793,-207.592 516.948,-191.733 563.069,-183.962"/>
<polygon fill="midnightblue" stroke="midnightblue" points="563.716,-187.402 572.999,-182.297 562.558,-180.499 563.716,-187.402"/>
</g>
</g>
</svg>
