<?xml version="1.0" encoding="UTF-8" standalone="no"?>
<!DOCTYPE svg PUBLIC "-//W3C//DTD SVG 1.1//EN"
 "http://www.w3.org/Graphics/SVG/1.1/DTD/svg11.dtd">
<!-- Generated by graphviz version 2.36.0 (20140111.2315)
 -->
<!-- Title: /home/elauksap/Dropbox/Progetto&#45;PACS/C++/Source/src/factory.cc Pages: 1 -->
<svg width="503pt" height="330pt"
 viewBox="0.00 0.00 503.00 330.00" xmlns="http://www.w3.org/2000/svg" xmlns:xlink="http://www.w3.org/1999/xlink">
<g id="graph0" class="graph" transform="scale(1 1) rotate(0) translate(4 326)">
<title>/home/elauksap/Dropbox/Progetto&#45;PACS/C++/Source/src/factory.cc</title>
<polygon fill="white" stroke="none" points="-4,4 -4,-326 499,-326 499,4 -4,4"/>
<!-- Node1 -->
<g id="node1" class="node"><title>Node1</title>
<polygon fill="#bfbfbf" stroke="black" points="169.5,-280.5 169.5,-321.5 312.5,-321.5 312.5,-280.5 169.5,-280.5"/>
<text text-anchor="start" x="177.5" y="-309.5" font-family="Helvetica,sans-Serif" font-size="10.00">/home/elauksap/Dropbox</text>
<text text-anchor="start" x="177.5" y="-298.5" font-family="Helvetica,sans-Serif" font-size="10.00">/Progetto&#45;PACS/C++/Source</text>
<text text-anchor="middle" x="241" y="-287.5" font-family="Helvetica,sans-Serif" font-size="10.00">/src/factory.cc</text>
</g>
<!-- Node2 -->
<g id="node2" class="node"><title>Node2</title>
<g id="a_node2"><a xlink:href="factory_8h.html" target="_top" xlink:title="Abstract factory design patterns. ">
<polygon fill="white" stroke="black" points="213.5,-224.5 213.5,-243.5 268.5,-243.5 268.5,-224.5 213.5,-224.5"/>
<text text-anchor="middle" x="241" y="-231.5" font-family="Helvetica,sans-Serif" font-size="10.00">factory.h</text>
</a>
</g>
</g>
<!-- Node1&#45;&gt;Node2 -->
<g id="edge1" class="edge"><title>Node1&#45;&gt;Node2</title>
<path fill="none" stroke="midnightblue" d="M241,-280.498C241,-272.065 241,-262.235 241,-253.874"/>
<polygon fill="midnightblue" stroke="midnightblue" points="244.5,-253.652 241,-243.652 237.5,-253.653 244.5,-253.652"/>
</g>
<!-- Node3 -->
<g id="node3" class="node"><title>Node3</title>
<g id="a_node3"><a xlink:href="charge_8h.html" target="_top" xlink:title="Classes for computing total electric charge. ">
<polygon fill="white" stroke="black" points="214,-168.5 214,-187.5 268,-187.5 268,-168.5 214,-168.5"/>
<text text-anchor="middle" x="241" y="-175.5" font-family="Helvetica,sans-Serif" font-size="10.00">charge.h</text>
</a>
</g>
</g>
<!-- Node2&#45;&gt;Node3 -->
<g id="edge2" class="edge"><title>Node2&#45;&gt;Node3</title>
<path fill="none" stroke="midnightblue" d="M241,-224.083C241,-217.006 241,-206.861 241,-197.986"/>
<polygon fill="midnightblue" stroke="midnightblue" points="244.5,-197.751 241,-187.751 237.5,-197.751 244.5,-197.751"/>
</g>
<!-- Node4 -->
<g id="node4" class="node"><title>Node4</title>
<g id="a_node4"><a xlink:href="paramList_8h.html" target="_top" xlink:title="Interface to process a list of simulation parameters. ">
<polygon fill="white" stroke="black" points="145,-112.5 145,-131.5 213,-131.5 213,-112.5 145,-112.5"/>
<text text-anchor="middle" x="179" y="-119.5" font-family="Helvetica,sans-Serif" font-size="10.00">paramList.h</text>
</a>
</g>
</g>
<!-- Node2&#45;&gt;Node4 -->
<g id="edge14" class="edge"><title>Node2&#45;&gt;Node4</title>
<path fill="none" stroke="midnightblue" d="M232.711,-224.27C224.807,-215.598 212.959,-201.658 205,-188 196.309,-173.085 189.258,-154.712 184.703,-141.309"/>
<polygon fill="midnightblue" stroke="midnightblue" points="188.027,-140.211 181.602,-131.787 181.371,-142.379 188.027,-140.211"/>
</g>
<!-- Node12 -->
<g id="node12" class="node"><title>Node12</title>
<g id="a_node12"><a xlink:href="quadratureRule_8h.html" target="_top" xlink:title="Quadrature rules. ">
<polygon fill="white" stroke="black" points="269.5,-112.5 269.5,-131.5 360.5,-131.5 360.5,-112.5 269.5,-112.5"/>
<text text-anchor="middle" x="315" y="-119.5" font-family="Helvetica,sans-Serif" font-size="10.00">quadratureRule.h</text>
</a>
</g>
</g>
<!-- Node2&#45;&gt;Node12 -->
<g id="edge15" class="edge"><title>Node2&#45;&gt;Node12</title>
<path fill="none" stroke="midnightblue" d="M248.567,-224.328C256.14,-215.474 267.936,-201.195 277,-188 287.616,-172.545 298.265,-154.003 305.578,-140.685"/>
<polygon fill="midnightblue" stroke="midnightblue" points="308.782,-142.118 310.464,-131.657 302.626,-138.786 308.782,-142.118"/>
</g>
<!-- Node3&#45;&gt;Node4 -->
<g id="edge3" class="edge"><title>Node3&#45;&gt;Node4</title>
<path fill="none" stroke="midnightblue" d="M231.039,-168.324C221.873,-160.341 208.063,-148.313 196.972,-138.653"/>
<polygon fill="midnightblue" stroke="midnightblue" points="198.982,-135.762 189.143,-131.834 194.385,-141.041 198.982,-135.762"/>
</g>
<!-- Node5 -->
<g id="node5" class="node"><title>Node5</title>
<g id="a_node5"><a xlink:href="typedefs_8h.html" target="_top" xlink:title="Typedefs and utility functions. ">
<polygon fill="white" stroke="black" points="210,-56.5 210,-75.5 272,-75.5 272,-56.5 210,-56.5"/>
<text text-anchor="middle" x="241" y="-63.5" font-family="Helvetica,sans-Serif" font-size="10.00">typedefs.h</text>
</a>
</g>
</g>
<!-- Node3&#45;&gt;Node5 -->
<g id="edge13" class="edge"><title>Node3&#45;&gt;Node5</title>
<path fill="none" stroke="midnightblue" d="M241,-168.368C241,-150.617 241,-109.666 241,-85.5974"/>
<polygon fill="midnightblue" stroke="midnightblue" points="244.5,-85.5914 241,-75.5914 237.5,-85.5915 244.5,-85.5914"/>
</g>
<!-- Node3&#45;&gt;Node12 -->
<g id="edge11" class="edge"><title>Node3&#45;&gt;Node12</title>
<path fill="none" stroke="midnightblue" d="M252.889,-168.324C264.15,-160.107 281.287,-147.602 294.709,-137.807"/>
<polygon fill="midnightblue" stroke="midnightblue" points="296.88,-140.556 302.894,-131.834 292.753,-134.901 296.88,-140.556"/>
</g>
<!-- Node4&#45;&gt;Node5 -->
<g id="edge4" class="edge"><title>Node4&#45;&gt;Node5</title>
<path fill="none" stroke="midnightblue" d="M188.961,-112.324C198.127,-104.341 211.937,-92.3128 223.028,-82.6529"/>
<polygon fill="midnightblue" stroke="midnightblue" points="225.615,-85.041 230.857,-75.8339 221.018,-79.7624 225.615,-85.041"/>
</g>
<!-- Node6 -->
<g id="node6" class="node"><title>Node6</title>
<polygon fill="white" stroke="#bfbfbf" points="-0.5,-0.5 -0.5,-19.5 72.5,-19.5 72.5,-0.5 -0.5,-0.5"/>
<text text-anchor="middle" x="36" y="-7.5" font-family="Helvetica,sans-Serif" font-size="10.00">Eigen/Dense</text>
</g>
<!-- Node5&#45;&gt;Node6 -->
<g id="edge5" class="edge"><title>Node5&#45;&gt;Node6</title>
<path fill="none" stroke="midnightblue" d="M209.865,-56.7986C174.729,-47.5432 117.382,-32.4372 78.2299,-22.124"/>
<polygon fill="midnightblue" stroke="midnightblue" points="79.0074,-18.7095 68.4457,-19.5467 77.2243,-25.4786 79.0074,-18.7095"/>
</g>
<!-- Node7 -->
<g id="node7" class="node"><title>Node7</title>
<polygon fill="white" stroke="#bfbfbf" points="90.5,-0.5 90.5,-19.5 165.5,-19.5 165.5,-0.5 90.5,-0.5"/>
<text text-anchor="middle" x="128" y="-7.5" font-family="Helvetica,sans-Serif" font-size="10.00">Eigen/Sparse</text>
</g>
<!-- Node5&#45;&gt;Node7 -->
<g id="edge6" class="edge"><title>Node5&#45;&gt;Node7</title>
<path fill="none" stroke="midnightblue" d="M223.095,-56.4435C204.746,-47.6751 175.995,-33.9355 154.906,-23.8579"/>
<polygon fill="midnightblue" stroke="midnightblue" points="156.353,-20.6703 145.821,-19.5164 153.335,-26.9862 156.353,-20.6703"/>
</g>
<!-- Node8 -->
<g id="node8" class="node"><title>Node8</title>
<polygon fill="white" stroke="#bfbfbf" points="183.5,-0.5 183.5,-19.5 230.5,-19.5 230.5,-0.5 183.5,-0.5"/>
<text text-anchor="middle" x="207" y="-7.5" font-family="Helvetica,sans-Serif" font-size="10.00">GetPot</text>
</g>
<!-- Node5&#45;&gt;Node8 -->
<g id="edge7" class="edge"><title>Node5&#45;&gt;Node8</title>
<path fill="none" stroke="midnightblue" d="M235.386,-56.083C230.633,-48.5341 223.682,-37.4948 217.848,-28.2298"/>
<polygon fill="midnightblue" stroke="midnightblue" points="220.8,-26.3486 212.51,-19.7511 214.876,-30.0783 220.8,-26.3486"/>
</g>
<!-- Node9 -->
<g id="node9" class="node"><title>Node9</title>
<polygon fill="white" stroke="#bfbfbf" points="249,-0.5 249,-19.5 303,-19.5 303,-0.5 249,-0.5"/>
<text text-anchor="middle" x="276" y="-7.5" font-family="Helvetica,sans-Serif" font-size="10.00">iostream</text>
</g>
<!-- Node5&#45;&gt;Node9 -->
<g id="edge8" class="edge"><title>Node5&#45;&gt;Node9</title>
<path fill="none" stroke="midnightblue" d="M246.78,-56.083C251.672,-48.5341 258.827,-37.4948 264.833,-28.2298"/>
<polygon fill="midnightblue" stroke="midnightblue" points="267.826,-30.0463 270.328,-19.7511 261.952,-26.239 267.826,-30.0463"/>
</g>
<!-- Node10 -->
<g id="node10" class="node"><title>Node10</title>
<polygon fill="white" stroke="#bfbfbf" points="321,-0.5 321,-19.5 371,-19.5 371,-0.5 321,-0.5"/>
<text text-anchor="middle" x="346" y="-7.5" font-family="Helvetica,sans-Serif" font-size="10.00">fstream</text>
</g>
<!-- Node5&#45;&gt;Node10 -->
<g id="edge9" class="edge"><title>Node5&#45;&gt;Node10</title>
<path fill="none" stroke="midnightblue" d="M257.87,-56.324C274.709,-47.6641 300.807,-34.2424 320.238,-24.249"/>
<polygon fill="midnightblue" stroke="midnightblue" points="321.88,-27.3405 329.172,-19.6545 318.678,-21.1155 321.88,-27.3405"/>
</g>
<!-- Node11 -->
<g id="node11" class="node"><title>Node11</title>
<g id="a_node11"><a xlink:href="physicalConstants_8h.html" target="_top" xlink:title="Physical constants. ">
<polygon fill="white" stroke="black" points="389,-0.5 389,-19.5 495,-19.5 495,-0.5 389,-0.5"/>
<text text-anchor="middle" x="442" y="-7.5" font-family="Helvetica,sans-Serif" font-size="10.00">physicalConstants.h</text>
</a>
</g>
</g>
<!-- Node5&#45;&gt;Node11 -->
<g id="edge10" class="edge"><title>Node5&#45;&gt;Node11</title>
<path fill="none" stroke="midnightblue" d="M272.406,-56.5625C306.867,-47.3044 362.335,-32.4026 400.393,-22.1781"/>
<polygon fill="midnightblue" stroke="midnightblue" points="401.402,-25.5312 410.151,-19.5565 399.585,-18.771 401.402,-25.5312"/>
</g>
<!-- Node12&#45;&gt;Node5 -->
<g id="edge12" class="edge"><title>Node12&#45;&gt;Node5</title>
<path fill="none" stroke="midnightblue" d="M303.111,-112.324C291.85,-104.107 274.713,-91.6017 261.291,-81.8069"/>
<polygon fill="midnightblue" stroke="midnightblue" points="263.247,-78.9014 253.106,-75.8339 259.12,-84.5559 263.247,-78.9014"/>
</g>
</g>
</svg>
