<?xml version="1.0" encoding="UTF-8" standalone="no"?>
<!DOCTYPE svg PUBLIC "-//W3C//DTD SVG 1.1//EN"
 "http://www.w3.org/Graphics/SVG/1.1/DTD/svg11.dtd">
<!-- Generated by graphviz version 2.36.0 (20140111.2315)
 -->
<!-- Title: Graphical Class Hierarchy Pages: 1 -->
<svg width="298pt" height="66pt"
 viewBox="0.00 0.00 298.00 66.00" xmlns="http://www.w3.org/2000/svg" xmlns:xlink="http://www.w3.org/1999/xlink">
<g id="graph0" class="graph" transform="scale(1 1) rotate(0) translate(4 62)">
<title>Graphical Class Hierarchy</title>
<polygon fill="white" stroke="none" points="-4,4 -4,-62 294,-62 294,4 -4,4"/>
<!-- Node1 -->
<g id="node1" class="node"><title>Node1</title>
<g id="a_node1"><a xlink:href="classQuadratureRuleFactory.html" target="_top" xlink:title="Abstract factory to handle a quadrature rule. ">
<polygon fill="white" stroke="black" points="0,-19.5 0,-38.5 118,-38.5 118,-19.5 0,-19.5"/>
<text text-anchor="middle" x="59" y="-26.5" font-family="Helvetica,sans-Serif" font-size="10.00">QuadratureRuleFactory</text>
</a>
</g>
</g>
<!-- Node2 -->
<g id="node2" class="node"><title>Node2</title>
<g id="a_node2"><a xlink:href="classGaussHermiteRuleFactory.html" target="_top" xlink:title="Concrete factory to handle a Gauss&#45;Hermite quadrature rule. ">
<polygon fill="white" stroke="black" points="155.5,-38.5 155.5,-57.5 288.5,-57.5 288.5,-38.5 155.5,-38.5"/>
<text text-anchor="middle" x="222" y="-45.5" font-family="Helvetica,sans-Serif" font-size="10.00">GaussHermiteRuleFactory</text>
</a>
</g>
</g>
<!-- Node1&#45;&gt;Node2 -->
<g id="edge1" class="edge"><title>Node1&#45;&gt;Node2</title>
<path fill="none" stroke="midnightblue" d="M128.164,-37.0442C137.158,-38.1056 146.361,-39.1917 155.312,-40.248"/>
<polygon fill="midnightblue" stroke="midnightblue" points="128.466,-33.5556 118.125,-35.8594 127.646,-40.5074 128.466,-33.5556"/>
</g>
<!-- Node3 -->
<g id="node3" class="node"><title>Node3</title>
<g id="a_node3"><a xlink:href="classGaussLaguerreRuleFactory.html" target="_top" xlink:title="Concrete factory to handle a Gauss&#45;Laguerre quadrature rule. ">
<polygon fill="white" stroke="black" points="154,-0.5 154,-19.5 290,-19.5 290,-0.5 154,-0.5"/>
<text text-anchor="middle" x="222" y="-7.5" font-family="Helvetica,sans-Serif" font-size="10.00">GaussLaguerreRuleFactory</text>
</a>
</g>
</g>
<!-- Node1&#45;&gt;Node3 -->
<g id="edge2" class="edge"><title>Node1&#45;&gt;Node3</title>
<path fill="none" stroke="midnightblue" d="M128.065,-20.9675C136.628,-19.957 145.383,-18.9237 153.931,-17.915"/>
<polygon fill="midnightblue" stroke="midnightblue" points="127.646,-17.4926 118.125,-22.1406 128.466,-24.4444 127.646,-17.4926"/>
</g>
</g>
</svg>
