<?xml version="1.0" encoding="UTF-8" standalone="no"?>
<!DOCTYPE svg PUBLIC "-//W3C//DTD SVG 1.1//EN"
 "http://www.w3.org/Graphics/SVG/1.1/DTD/svg11.dtd">
<!-- Generated by graphviz version 2.36.0 (20140111.2315)
 -->
<!-- Title: Graphical Class Hierarchy Pages: 1 -->
<svg width="258pt" height="66pt"
 viewBox="0.00 0.00 258.00 66.00" xmlns="http://www.w3.org/2000/svg" xmlns:xlink="http://www.w3.org/1999/xlink">
<g id="graph0" class="graph" transform="scale(1 1) rotate(0) translate(4 62)">
<title>Graphical Class Hierarchy</title>
<polygon fill="white" stroke="none" points="-4,4 -4,-62 254,-62 254,4 -4,4"/>
<!-- Node1 -->
<g id="node1" class="node"><title>Node1</title>
<g id="a_node1"><a xlink:href="classChargeFactory.html" target="_top" xlink:title="Abstract factory to handle the constitutive relation for the Density of States. ">
<polygon fill="white" stroke="black" points="0.5,-19.5 0.5,-38.5 81.5,-38.5 81.5,-19.5 0.5,-19.5"/>
<text text-anchor="middle" x="41" y="-26.5" font-family="Helvetica,sans-Serif" font-size="10.00">ChargeFactory</text>
</a>
</g>
</g>
<!-- Node2 -->
<g id="node2" class="node"><title>Node2</title>
<g id="a_node2"><a xlink:href="classExponentialChargeFactory.html" target="_top" xlink:title="Concrete factory to handle a single exponential DoS constitutive relation. ">
<polygon fill="white" stroke="black" points="118,-38.5 118,-57.5 250,-57.5 250,-38.5 118,-38.5"/>
<text text-anchor="middle" x="184" y="-45.5" font-family="Helvetica,sans-Serif" font-size="10.00">ExponentialChargeFactory</text>
</a>
</g>
</g>
<!-- Node1&#45;&gt;Node2 -->
<g id="edge1" class="edge"><title>Node1&#45;&gt;Node2</title>
<path fill="none" stroke="midnightblue" d="M91.6893,-35.6957C100.126,-36.8326 109,-38.0283 117.764,-39.2093"/>
<polygon fill="midnightblue" stroke="midnightblue" points="92.0295,-32.21 81.6516,-34.3431 91.0946,-39.1473 92.0295,-32.21"/>
</g>
<!-- Node3 -->
<g id="node3" class="node"><title>Node3</title>
<g id="a_node3"><a xlink:href="classGaussianChargeFactory.html" target="_top" xlink:title="Concrete factory to handle a multiple gaussians DoS constitutive relation. ">
<polygon fill="white" stroke="black" points="123,-0.5 123,-19.5 245,-19.5 245,-0.5 123,-0.5"/>
<text text-anchor="middle" x="184" y="-7.5" font-family="Helvetica,sans-Serif" font-size="10.00">GaussianChargeFactory</text>
</a>
</g>
</g>
<!-- Node1&#45;&gt;Node3 -->
<g id="edge2" class="edge"><title>Node1&#45;&gt;Node3</title>
<path fill="none" stroke="midnightblue" d="M91.8405,-22.2839C101.867,-20.9328 112.505,-19.4993 122.84,-18.1067"/>
<polygon fill="midnightblue" stroke="midnightblue" points="91.0946,-18.8527 81.6516,-23.6569 92.0295,-25.79 91.0946,-18.8527"/>
</g>
</g>
</svg>
