<?xml version="1.0" encoding="UTF-8" standalone="no"?>
<!DOCTYPE svg PUBLIC "-//W3C//DTD SVG 1.1//EN"
 "http://www.w3.org/Graphics/SVG/1.1/DTD/svg11.dtd">
<!-- Generated by graphviz version 2.36.0 (20140111.2315)
 -->
<!-- Title: Graphical Class Hierarchy Pages: 1 -->
<svg width="192pt" height="66pt"
 viewBox="0.00 0.00 192.00 66.00" xmlns="http://www.w3.org/2000/svg" xmlns:xlink="http://www.w3.org/1999/xlink">
<g id="graph0" class="graph" transform="scale(1 1) rotate(0) translate(4 62)">
<title>Graphical Class Hierarchy</title>
<polygon fill="white" stroke="none" points="-4,4 -4,-62 188,-62 188,4 -4,4"/>
<!-- Node1 -->
<g id="node1" class="node"><title>Node1</title>
<g id="a_node1"><a xlink:href="classCharge.html" target="_top" xlink:title="Abstract class providing methods to calculate total electric charge (the rhs in the Poisson equation)...">
<polygon fill="white" stroke="black" points="0,-19.5 0,-38.5 48,-38.5 48,-19.5 0,-19.5"/>
<text text-anchor="middle" x="24" y="-26.5" font-family="Helvetica,sans-Serif" font-size="10.00">Charge</text>
</a>
</g>
</g>
<!-- Node2 -->
<g id="node2" class="node"><title>Node2</title>
<g id="a_node2"><a xlink:href="classExponentialCharge.html" target="_top" xlink:title="Class derived from Charge, under the hypothesis that Density of States is a single exponential...">
<polygon fill="white" stroke="black" points="84.5,-38.5 84.5,-57.5 183.5,-57.5 183.5,-38.5 84.5,-38.5"/>
<text text-anchor="middle" x="134" y="-45.5" font-family="Helvetica,sans-Serif" font-size="10.00">ExponentialCharge</text>
</a>
</g>
</g>
<!-- Node1&#45;&gt;Node2 -->
<g id="edge1" class="edge"><title>Node1&#45;&gt;Node2</title>
<path fill="none" stroke="midnightblue" d="M58.1043,-34.8239C66.3273,-36.2705 75.3145,-37.8516 84.1187,-39.4005"/>
<polygon fill="midnightblue" stroke="midnightblue" points="58.6239,-31.3616 48.1687,-33.076 57.411,-38.2558 58.6239,-31.3616"/>
</g>
<!-- Node3 -->
<g id="node3" class="node"><title>Node3</title>
<g id="a_node3"><a xlink:href="classGaussianCharge.html" target="_top" xlink:title="Class derived from Charge, under the hypothesis that Density of States is a combination of gaussians...">
<polygon fill="white" stroke="black" points="89.5,-0.5 89.5,-19.5 178.5,-19.5 178.5,-0.5 89.5,-0.5"/>
<text text-anchor="middle" x="134" y="-7.5" font-family="Helvetica,sans-Serif" font-size="10.00">GaussianCharge</text>
</a>
</g>
</g>
<!-- Node1&#45;&gt;Node3 -->
<g id="edge2" class="edge"><title>Node1&#45;&gt;Node3</title>
<path fill="none" stroke="midnightblue" d="M58.3238,-23.1375C68.1408,-21.4104 79.0316,-19.4944 89.3921,-17.6718"/>
<polygon fill="midnightblue" stroke="midnightblue" points="57.411,-19.7442 48.1687,-24.924 58.6239,-26.6384 57.411,-19.7442"/>
</g>
</g>
</svg>
