<?xml version="1.0" encoding="UTF-8" standalone="no"?>
<!DOCTYPE svg PUBLIC "-//W3C//DTD SVG 1.1//EN"
 "http://www.w3.org/Graphics/SVG/1.1/DTD/svg11.dtd">
<!-- Generated by graphviz version 2.36.0 (20140111.2315)
 -->
<!-- Title: /home/elauksap/Dropbox/Progetto&#45;PACS/C++/Source/src/numerics.h Pages: 1 -->
<svg width="391pt" height="206pt"
 viewBox="0.00 0.00 391.00 206.00" xmlns="http://www.w3.org/2000/svg" xmlns:xlink="http://www.w3.org/1999/xlink">
<g id="graph0" class="graph" transform="scale(1 1) rotate(0) translate(4 202)">
<title>/home/elauksap/Dropbox/Progetto&#45;PACS/C++/Source/src/numerics.h</title>
<polygon fill="white" stroke="none" points="-4,4 -4,-202 387,-202 387,4 -4,4"/>
<!-- Node1 -->
<g id="node1" class="node"><title>Node1</title>
<polygon fill="#bfbfbf" stroke="black" points="159.5,-156.5 159.5,-197.5 302.5,-197.5 302.5,-156.5 159.5,-156.5"/>
<text text-anchor="start" x="167.5" y="-185.5" font-family="Helvetica,sans-Serif" font-size="10.00">/home/elauksap/Dropbox</text>
<text text-anchor="start" x="167.5" y="-174.5" font-family="Helvetica,sans-Serif" font-size="10.00">/Progetto&#45;PACS/C++/Source</text>
<text text-anchor="middle" x="231" y="-163.5" font-family="Helvetica,sans-Serif" font-size="10.00">/src/numerics.h</text>
</g>
<!-- Node2 -->
<g id="node2" class="node"><title>Node2</title>
<g id="a_node2"><a xlink:href="dosModel_8h.html" target="_top" xlink:title="Mathematical model for Density of States extraction. ">
<polygon fill="white" stroke="black" points="79.5,-78.5 79.5,-119.5 222.5,-119.5 222.5,-78.5 79.5,-78.5"/>
<text text-anchor="start" x="87.5" y="-107.5" font-family="Helvetica,sans-Serif" font-size="10.00">/home/elauksap/Dropbox</text>
<text text-anchor="start" x="87.5" y="-96.5" font-family="Helvetica,sans-Serif" font-size="10.00">/Progetto&#45;PACS/C++/Source</text>
<text text-anchor="middle" x="151" y="-85.5" font-family="Helvetica,sans-Serif" font-size="10.00">/src/dosModel.h</text>
</a>
</g>
</g>
<!-- Node1&#45;&gt;Node2 -->
<g id="edge1" class="edge"><title>Node1&#45;&gt;Node2</title>
<path fill="none" stroke="midnightblue" d="M203.096,-149.492C192.715,-139.629 181.134,-128.627 171.532,-119.506"/>
<polygon fill="midnightblue" stroke="midnightblue" points="200.737,-152.078 210.398,-156.428 205.559,-147.003 200.737,-152.078"/>
</g>
<!-- Node5 -->
<g id="node5" class="node"><title>Node5</title>
<g id="a_node5"><a xlink:href="numerics_8cc.html" target="_top" xlink:title="/home/elauksap/Dropbox\l/Progetto&#45;PACS/C++/Source\l/src/numerics.cc">
<polygon fill="white" stroke="black" points="240.5,-78.5 240.5,-119.5 383.5,-119.5 383.5,-78.5 240.5,-78.5"/>
<text text-anchor="start" x="248.5" y="-107.5" font-family="Helvetica,sans-Serif" font-size="10.00">/home/elauksap/Dropbox</text>
<text text-anchor="start" x="248.5" y="-96.5" font-family="Helvetica,sans-Serif" font-size="10.00">/Progetto&#45;PACS/C++/Source</text>
<text text-anchor="middle" x="312" y="-85.5" font-family="Helvetica,sans-Serif" font-size="10.00">/src/numerics.cc</text>
</a>
</g>
</g>
<!-- Node1&#45;&gt;Node5 -->
<g id="edge4" class="edge"><title>Node1&#45;&gt;Node5</title>
<path fill="none" stroke="midnightblue" d="M259.252,-149.492C269.763,-139.629 281.489,-128.627 291.211,-119.506"/>
<polygon fill="midnightblue" stroke="midnightblue" points="256.757,-147.033 251.86,-156.428 261.547,-152.138 256.757,-147.033"/>
</g>
<!-- Node3 -->
<g id="node3" class="node"><title>Node3</title>
<g id="a_node3"><a xlink:href="simulate__dos_8cc.html" target="_top" xlink:title="A test file. ">
<polygon fill="white" stroke="black" points="-0.5,-0.5 -0.5,-41.5 142.5,-41.5 142.5,-0.5 -0.5,-0.5"/>
<text text-anchor="start" x="7.5" y="-29.5" font-family="Helvetica,sans-Serif" font-size="10.00">/home/elauksap/Dropbox</text>
<text text-anchor="start" x="7.5" y="-18.5" font-family="Helvetica,sans-Serif" font-size="10.00">/Progetto&#45;PACS/C++/Source</text>
<text text-anchor="middle" x="71" y="-7.5" font-family="Helvetica,sans-Serif" font-size="10.00">/test/simulate_dos.cc</text>
</a>
</g>
</g>
<!-- Node2&#45;&gt;Node3 -->
<g id="edge2" class="edge"><title>Node2&#45;&gt;Node3</title>
<path fill="none" stroke="midnightblue" d="M123.096,-71.4916C112.715,-61.6294 101.134,-50.6273 91.5322,-41.5056"/>
<polygon fill="midnightblue" stroke="midnightblue" points="120.737,-74.0781 130.398,-78.4281 125.559,-69.0031 120.737,-74.0781"/>
</g>
<!-- Node4 -->
<g id="node4" class="node"><title>Node4</title>
<g id="a_node4"><a xlink:href="dosModel_8cc.html" target="_top" xlink:title="/home/elauksap/Dropbox\l/Progetto&#45;PACS/C++/Source\l/src/dosModel.cc">
<polygon fill="white" stroke="black" points="160.5,-0.5 160.5,-41.5 303.5,-41.5 303.5,-0.5 160.5,-0.5"/>
<text text-anchor="start" x="168.5" y="-29.5" font-family="Helvetica,sans-Serif" font-size="10.00">/home/elauksap/Dropbox</text>
<text text-anchor="start" x="168.5" y="-18.5" font-family="Helvetica,sans-Serif" font-size="10.00">/Progetto&#45;PACS/C++/Source</text>
<text text-anchor="middle" x="232" y="-7.5" font-family="Helvetica,sans-Serif" font-size="10.00">/src/dosModel.cc</text>
</a>
</g>
</g>
<!-- Node2&#45;&gt;Node4 -->
<g id="edge3" class="edge"><title>Node2&#45;&gt;Node4</title>
<path fill="none" stroke="midnightblue" d="M179.252,-71.4916C189.763,-61.6294 201.489,-50.6273 211.211,-41.5056"/>
<polygon fill="midnightblue" stroke="midnightblue" points="176.757,-69.0333 171.86,-78.4281 181.547,-74.1381 176.757,-69.0333"/>
</g>
</g>
</svg>
