<?xml version="1.0" encoding="UTF-8" standalone="no"?>
<!DOCTYPE svg PUBLIC "-//W3C//DTD SVG 1.1//EN"
 "http://www.w3.org/Graphics/SVG/1.1/DTD/svg11.dtd">
<!-- Generated by graphviz version 2.36.0 (20140111.2315)
 -->
<!-- Title: /home/elauksap/Dropbox/Progetto&#45;PACS/C++/Source/src/paramList.cc Pages: 1 -->
<svg width="503pt" height="218pt"
 viewBox="0.00 0.00 503.00 218.00" xmlns="http://www.w3.org/2000/svg" xmlns:xlink="http://www.w3.org/1999/xlink">
<g id="graph0" class="graph" transform="scale(1 1) rotate(0) translate(4 214)">
<title>/home/elauksap/Dropbox/Progetto&#45;PACS/C++/Source/src/paramList.cc</title>
<polygon fill="white" stroke="none" points="-4,4 -4,-214 499,-214 499,4 -4,4"/>
<!-- Node1 -->
<g id="node1" class="node"><title>Node1</title>
<polygon fill="#bfbfbf" stroke="black" points="169.5,-168.5 169.5,-209.5 312.5,-209.5 312.5,-168.5 169.5,-168.5"/>
<text text-anchor="start" x="177.5" y="-197.5" font-family="Helvetica,sans-Serif" font-size="10.00">/home/elauksap/Dropbox</text>
<text text-anchor="start" x="177.5" y="-186.5" font-family="Helvetica,sans-Serif" font-size="10.00">/Progetto&#45;PACS/C++/Source</text>
<text text-anchor="middle" x="241" y="-175.5" font-family="Helvetica,sans-Serif" font-size="10.00">/src/paramList.cc</text>
</g>
<!-- Node2 -->
<g id="node2" class="node"><title>Node2</title>
<g id="a_node2"><a xlink:href="paramList_8h.html" target="_top" xlink:title="Interface to process a list of simulation parameters. ">
<polygon fill="white" stroke="black" points="207,-112.5 207,-131.5 275,-131.5 275,-112.5 207,-112.5"/>
<text text-anchor="middle" x="241" y="-119.5" font-family="Helvetica,sans-Serif" font-size="10.00">paramList.h</text>
</a>
</g>
</g>
<!-- Node1&#45;&gt;Node2 -->
<g id="edge1" class="edge"><title>Node1&#45;&gt;Node2</title>
<path fill="none" stroke="midnightblue" d="M241,-168.498C241,-160.065 241,-150.235 241,-141.874"/>
<polygon fill="midnightblue" stroke="midnightblue" points="244.5,-141.652 241,-131.652 237.5,-141.653 244.5,-141.652"/>
</g>
<!-- Node3 -->
<g id="node3" class="node"><title>Node3</title>
<g id="a_node3"><a xlink:href="typedefs_8h.html" target="_top" xlink:title="Typedefs and utility functions. ">
<polygon fill="white" stroke="black" points="210,-56.5 210,-75.5 272,-75.5 272,-56.5 210,-56.5"/>
<text text-anchor="middle" x="241" y="-63.5" font-family="Helvetica,sans-Serif" font-size="10.00">typedefs.h</text>
</a>
</g>
</g>
<!-- Node2&#45;&gt;Node3 -->
<g id="edge2" class="edge"><title>Node2&#45;&gt;Node3</title>
<path fill="none" stroke="midnightblue" d="M241,-112.083C241,-105.006 241,-94.8611 241,-85.9865"/>
<polygon fill="midnightblue" stroke="midnightblue" points="244.5,-85.751 241,-75.7511 237.5,-85.7511 244.5,-85.751"/>
</g>
<!-- Node4 -->
<g id="node4" class="node"><title>Node4</title>
<polygon fill="white" stroke="#bfbfbf" points="-0.5,-0.5 -0.5,-19.5 72.5,-19.5 72.5,-0.5 -0.5,-0.5"/>
<text text-anchor="middle" x="36" y="-7.5" font-family="Helvetica,sans-Serif" font-size="10.00">Eigen/Dense</text>
</g>
<!-- Node3&#45;&gt;Node4 -->
<g id="edge3" class="edge"><title>Node3&#45;&gt;Node4</title>
<path fill="none" stroke="midnightblue" d="M209.865,-56.7986C174.729,-47.5432 117.382,-32.4372 78.2299,-22.124"/>
<polygon fill="midnightblue" stroke="midnightblue" points="79.0074,-18.7095 68.4457,-19.5467 77.2243,-25.4786 79.0074,-18.7095"/>
</g>
<!-- Node5 -->
<g id="node5" class="node"><title>Node5</title>
<polygon fill="white" stroke="#bfbfbf" points="90.5,-0.5 90.5,-19.5 165.5,-19.5 165.5,-0.5 90.5,-0.5"/>
<text text-anchor="middle" x="128" y="-7.5" font-family="Helvetica,sans-Serif" font-size="10.00">Eigen/Sparse</text>
</g>
<!-- Node3&#45;&gt;Node5 -->
<g id="edge4" class="edge"><title>Node3&#45;&gt;Node5</title>
<path fill="none" stroke="midnightblue" d="M223.095,-56.4435C204.746,-47.6751 175.995,-33.9355 154.906,-23.8579"/>
<polygon fill="midnightblue" stroke="midnightblue" points="156.353,-20.6703 145.821,-19.5164 153.335,-26.9862 156.353,-20.6703"/>
</g>
<!-- Node6 -->
<g id="node6" class="node"><title>Node6</title>
<polygon fill="white" stroke="#bfbfbf" points="183.5,-0.5 183.5,-19.5 230.5,-19.5 230.5,-0.5 183.5,-0.5"/>
<text text-anchor="middle" x="207" y="-7.5" font-family="Helvetica,sans-Serif" font-size="10.00">GetPot</text>
</g>
<!-- Node3&#45;&gt;Node6 -->
<g id="edge5" class="edge"><title>Node3&#45;&gt;Node6</title>
<path fill="none" stroke="midnightblue" d="M235.386,-56.083C230.633,-48.5341 223.682,-37.4948 217.848,-28.2298"/>
<polygon fill="midnightblue" stroke="midnightblue" points="220.8,-26.3486 212.51,-19.7511 214.876,-30.0783 220.8,-26.3486"/>
</g>
<!-- Node7 -->
<g id="node7" class="node"><title>Node7</title>
<polygon fill="white" stroke="#bfbfbf" points="249,-0.5 249,-19.5 303,-19.5 303,-0.5 249,-0.5"/>
<text text-anchor="middle" x="276" y="-7.5" font-family="Helvetica,sans-Serif" font-size="10.00">iostream</text>
</g>
<!-- Node3&#45;&gt;Node7 -->
<g id="edge6" class="edge"><title>Node3&#45;&gt;Node7</title>
<path fill="none" stroke="midnightblue" d="M246.78,-56.083C251.672,-48.5341 258.827,-37.4948 264.833,-28.2298"/>
<polygon fill="midnightblue" stroke="midnightblue" points="267.826,-30.0463 270.328,-19.7511 261.952,-26.239 267.826,-30.0463"/>
</g>
<!-- Node8 -->
<g id="node8" class="node"><title>Node8</title>
<polygon fill="white" stroke="#bfbfbf" points="321,-0.5 321,-19.5 371,-19.5 371,-0.5 321,-0.5"/>
<text text-anchor="middle" x="346" y="-7.5" font-family="Helvetica,sans-Serif" font-size="10.00">fstream</text>
</g>
<!-- Node3&#45;&gt;Node8 -->
<g id="edge7" class="edge"><title>Node3&#45;&gt;Node8</title>
<path fill="none" stroke="midnightblue" d="M257.87,-56.324C274.709,-47.6641 300.807,-34.2424 320.238,-24.249"/>
<polygon fill="midnightblue" stroke="midnightblue" points="321.88,-27.3405 329.172,-19.6545 318.678,-21.1155 321.88,-27.3405"/>
</g>
<!-- Node9 -->
<g id="node9" class="node"><title>Node9</title>
<g id="a_node9"><a xlink:href="physicalConstants_8h.html" target="_top" xlink:title="Physical constants. ">
<polygon fill="white" stroke="black" points="389,-0.5 389,-19.5 495,-19.5 495,-0.5 389,-0.5"/>
<text text-anchor="middle" x="442" y="-7.5" font-family="Helvetica,sans-Serif" font-size="10.00">physicalConstants.h</text>
</a>
</g>
</g>
<!-- Node3&#45;&gt;Node9 -->
<g id="edge8" class="edge"><title>Node3&#45;&gt;Node9</title>
<path fill="none" stroke="midnightblue" d="M272.406,-56.5625C306.867,-47.3044 362.335,-32.4026 400.393,-22.1781"/>
<polygon fill="midnightblue" stroke="midnightblue" points="401.402,-25.5312 410.151,-19.5565 399.585,-18.771 401.402,-25.5312"/>
</g>
</g>
</svg>
