<?xml version="1.0" encoding="UTF-8" standalone="no"?>
<!DOCTYPE svg PUBLIC "-//W3C//DTD SVG 1.1//EN"
 "http://www.w3.org/Graphics/SVG/1.1/DTD/svg11.dtd">
<!-- Generated by graphviz version 2.36.0 (20140111.2315)
 -->
<!-- Title: /home/elauksap/Dropbox/Progetto&#45;PACS/C++/Source/src/paramList.h Pages: 1 -->
<svg width="591pt" height="362pt"
 viewBox="0.00 0.00 591.00 362.00" xmlns="http://www.w3.org/2000/svg" xmlns:xlink="http://www.w3.org/1999/xlink">
<g id="graph0" class="graph" transform="scale(1 1) rotate(0) translate(4 358)">
<title>/home/elauksap/Dropbox/Progetto&#45;PACS/C++/Source/src/paramList.h</title>
<polygon fill="white" stroke="none" points="-4,4 -4,-358 587,-358 587,4 -4,4"/>
<!-- Node1 -->
<g id="node1" class="node"><title>Node1</title>
<polygon fill="#bfbfbf" stroke="black" points="317.5,-312.5 317.5,-353.5 460.5,-353.5 460.5,-312.5 317.5,-312.5"/>
<text text-anchor="start" x="325.5" y="-341.5" font-family="Helvetica,sans-Serif" font-size="10.00">/home/elauksap/Dropbox</text>
<text text-anchor="start" x="325.5" y="-330.5" font-family="Helvetica,sans-Serif" font-size="10.00">/Progetto&#45;PACS/C++/Source</text>
<text text-anchor="middle" x="389" y="-319.5" font-family="Helvetica,sans-Serif" font-size="10.00">/src/paramList.h</text>
</g>
<!-- Node2 -->
<g id="node2" class="node"><title>Node2</title>
<g id="a_node2"><a xlink:href="charge_8h.html" target="_top" xlink:title="Classes for computing total electric charge. ">
<polygon fill="white" stroke="black" points="198.5,-234.5 198.5,-275.5 341.5,-275.5 341.5,-234.5 198.5,-234.5"/>
<text text-anchor="start" x="206.5" y="-263.5" font-family="Helvetica,sans-Serif" font-size="10.00">/home/elauksap/Dropbox</text>
<text text-anchor="start" x="206.5" y="-252.5" font-family="Helvetica,sans-Serif" font-size="10.00">/Progetto&#45;PACS/C++/Source</text>
<text text-anchor="middle" x="270" y="-241.5" font-family="Helvetica,sans-Serif" font-size="10.00">/src/charge.h</text>
</a>
</g>
</g>
<!-- Node1&#45;&gt;Node2 -->
<g id="edge1" class="edge"><title>Node1&#45;&gt;Node2</title>
<path fill="none" stroke="midnightblue" d="M349.729,-306.919C333.731,-296.702 315.518,-285.07 300.542,-275.506"/>
<polygon fill="midnightblue" stroke="midnightblue" points="348.043,-309.995 358.355,-312.428 351.811,-304.096 348.043,-309.995"/>
</g>
<!-- Node4 -->
<g id="node4" class="node"><title>Node4</title>
<g id="a_node4"><a xlink:href="dosModel_8h.html" target="_top" xlink:title="Mathematical model for Density of States extraction. ">
<polygon fill="white" stroke="black" points="279.5,-78.5 279.5,-119.5 422.5,-119.5 422.5,-78.5 279.5,-78.5"/>
<text text-anchor="start" x="287.5" y="-107.5" font-family="Helvetica,sans-Serif" font-size="10.00">/home/elauksap/Dropbox</text>
<text text-anchor="start" x="287.5" y="-96.5" font-family="Helvetica,sans-Serif" font-size="10.00">/Progetto&#45;PACS/C++/Source</text>
<text text-anchor="middle" x="351" y="-85.5" font-family="Helvetica,sans-Serif" font-size="10.00">/src/dosModel.h</text>
</a>
</g>
</g>
<!-- Node1&#45;&gt;Node4 -->
<g id="edge13" class="edge"><title>Node1&#45;&gt;Node4</title>
<path fill="none" stroke="midnightblue" d="M384.104,-302.111C376.215,-253.943 360.899,-160.436 354.232,-119.73"/>
<polygon fill="midnightblue" stroke="midnightblue" points="380.69,-302.917 385.76,-312.22 387.598,-301.786 380.69,-302.917"/>
</g>
<!-- Node7 -->
<g id="node7" class="node"><title>Node7</title>
<g id="a_node7"><a xlink:href="factory_8h.html" target="_top" xlink:title="Abstract factory design patterns. ">
<polygon fill="white" stroke="black" points="398.5,-156.5 398.5,-197.5 541.5,-197.5 541.5,-156.5 398.5,-156.5"/>
<text text-anchor="start" x="406.5" y="-185.5" font-family="Helvetica,sans-Serif" font-size="10.00">/home/elauksap/Dropbox</text>
<text text-anchor="start" x="406.5" y="-174.5" font-family="Helvetica,sans-Serif" font-size="10.00">/Progetto&#45;PACS/C++/Source</text>
<text text-anchor="middle" x="470" y="-163.5" font-family="Helvetica,sans-Serif" font-size="10.00">/src/factory.h</text>
</a>
</g>
</g>
<!-- Node1&#45;&gt;Node7 -->
<g id="edge12" class="edge"><title>Node1&#45;&gt;Node7</title>
<path fill="none" stroke="midnightblue" d="M398.381,-302.662C405.312,-282.692 415.663,-255.997 428,-234 435.193,-221.174 444.969,-207.962 453.28,-197.595"/>
<polygon fill="midnightblue" stroke="midnightblue" points="395.06,-301.558 395.168,-312.153 401.69,-303.803 395.06,-301.558"/>
</g>
<!-- Node11 -->
<g id="node11" class="node"><title>Node11</title>
<g id="a_node11"><a xlink:href="paramList_8cc.html" target="_top" xlink:title="/home/elauksap/Dropbox\l/Progetto&#45;PACS/C++/Source\l/src/paramList.cc">
<polygon fill="white" stroke="black" points="436.5,-234.5 436.5,-275.5 579.5,-275.5 579.5,-234.5 436.5,-234.5"/>
<text text-anchor="start" x="444.5" y="-263.5" font-family="Helvetica,sans-Serif" font-size="10.00">/home/elauksap/Dropbox</text>
<text text-anchor="start" x="444.5" y="-252.5" font-family="Helvetica,sans-Serif" font-size="10.00">/Progetto&#45;PACS/C++/Source</text>
<text text-anchor="middle" x="508" y="-241.5" font-family="Helvetica,sans-Serif" font-size="10.00">/src/paramList.cc</text>
</a>
</g>
</g>
<!-- Node1&#45;&gt;Node11 -->
<g id="edge14" class="edge"><title>Node1&#45;&gt;Node11</title>
<path fill="none" stroke="midnightblue" d="M428.271,-306.919C444.269,-296.702 462.482,-285.07 477.458,-275.506"/>
<polygon fill="midnightblue" stroke="midnightblue" points="426.189,-304.096 419.645,-312.428 429.957,-309.995 426.189,-304.096"/>
</g>
<!-- Node3 -->
<g id="node3" class="node"><title>Node3</title>
<g id="a_node3"><a xlink:href="charge_8cc.html" target="_top" xlink:title="/home/elauksap/Dropbox\l/Progetto&#45;PACS/C++/Source\l/src/charge.cc">
<polygon fill="white" stroke="black" points="-0.5,-156.5 -0.5,-197.5 142.5,-197.5 142.5,-156.5 -0.5,-156.5"/>
<text text-anchor="start" x="7.5" y="-185.5" font-family="Helvetica,sans-Serif" font-size="10.00">/home/elauksap/Dropbox</text>
<text text-anchor="start" x="7.5" y="-174.5" font-family="Helvetica,sans-Serif" font-size="10.00">/Progetto&#45;PACS/C++/Source</text>
<text text-anchor="middle" x="71" y="-163.5" font-family="Helvetica,sans-Serif" font-size="10.00">/src/charge.cc</text>
</a>
</g>
</g>
<!-- Node2&#45;&gt;Node3 -->
<g id="edge2" class="edge"><title>Node2&#45;&gt;Node3</title>
<path fill="none" stroke="midnightblue" d="M209.117,-230.748C181.261,-220.11 148.625,-207.646 122.074,-197.506"/>
<polygon fill="midnightblue" stroke="midnightblue" points="208.162,-234.13 218.753,-234.428 210.659,-227.591 208.162,-234.13"/>
</g>
<!-- Node2&#45;&gt;Node4 -->
<g id="edge3" class="edge"><title>Node2&#45;&gt;Node4</title>
<path fill="none" stroke="midnightblue" d="M292.959,-226.418C299.615,-217.661 306.549,-207.719 312,-198 326.421,-172.286 338.129,-140.154 344.832,-119.847"/>
<polygon fill="midnightblue" stroke="midnightblue" points="290.117,-224.37 286.72,-234.405 295.634,-228.679 290.117,-224.37"/>
</g>
<!-- Node2&#45;&gt;Node7 -->
<g id="edge6" class="edge"><title>Node2&#45;&gt;Node7</title>
<path fill="none" stroke="midnightblue" d="M331.189,-230.748C359.185,-220.11 391.985,-207.646 418.67,-197.506"/>
<polygon fill="midnightblue" stroke="midnightblue" points="329.61,-227.604 321.505,-234.428 332.096,-234.148 329.61,-227.604"/>
</g>
<!-- Node9 -->
<g id="node9" class="node"><title>Node9</title>
<g id="a_node9"><a xlink:href="solvers_8h.html" target="_top" xlink:title="Generic solvers for PDEs. ">
<polygon fill="white" stroke="black" points="160.5,-156.5 160.5,-197.5 303.5,-197.5 303.5,-156.5 160.5,-156.5"/>
<text text-anchor="start" x="168.5" y="-185.5" font-family="Helvetica,sans-Serif" font-size="10.00">/home/elauksap/Dropbox</text>
<text text-anchor="start" x="168.5" y="-174.5" font-family="Helvetica,sans-Serif" font-size="10.00">/Progetto&#45;PACS/C++/Source</text>
<text text-anchor="middle" x="232" y="-163.5" font-family="Helvetica,sans-Serif" font-size="10.00">/src/solvers.h</text>
</a>
</g>
</g>
<!-- Node2&#45;&gt;Node9 -->
<g id="edge9" class="edge"><title>Node2&#45;&gt;Node9</title>
<path fill="none" stroke="midnightblue" d="M255.733,-225.466C251.071,-216.143 246.004,-206.007 241.753,-197.506"/>
<polygon fill="midnightblue" stroke="midnightblue" points="252.611,-227.049 260.214,-234.428 258.872,-223.919 252.611,-227.049"/>
</g>
<!-- Node5 -->
<g id="node5" class="node"><title>Node5</title>
<g id="a_node5"><a xlink:href="simulate__dos_8cc.html" target="_top" xlink:title="A test file. ">
<polygon fill="white" stroke="black" points="199.5,-0.5 199.5,-41.5 342.5,-41.5 342.5,-0.5 199.5,-0.5"/>
<text text-anchor="start" x="207.5" y="-29.5" font-family="Helvetica,sans-Serif" font-size="10.00">/home/elauksap/Dropbox</text>
<text text-anchor="start" x="207.5" y="-18.5" font-family="Helvetica,sans-Serif" font-size="10.00">/Progetto&#45;PACS/C++/Source</text>
<text text-anchor="middle" x="271" y="-7.5" font-family="Helvetica,sans-Serif" font-size="10.00">/test/simulate_dos.cc</text>
</a>
</g>
</g>
<!-- Node4&#45;&gt;Node5 -->
<g id="edge4" class="edge"><title>Node4&#45;&gt;Node5</title>
<path fill="none" stroke="midnightblue" d="M323.096,-71.4916C312.715,-61.6294 301.134,-50.6273 291.532,-41.5056"/>
<polygon fill="midnightblue" stroke="midnightblue" points="320.737,-74.0781 330.398,-78.4281 325.559,-69.0031 320.737,-74.0781"/>
</g>
<!-- Node6 -->
<g id="node6" class="node"><title>Node6</title>
<g id="a_node6"><a xlink:href="dosModel_8cc.html" target="_top" xlink:title="/home/elauksap/Dropbox\l/Progetto&#45;PACS/C++/Source\l/src/dosModel.cc">
<polygon fill="white" stroke="black" points="360.5,-0.5 360.5,-41.5 503.5,-41.5 503.5,-0.5 360.5,-0.5"/>
<text text-anchor="start" x="368.5" y="-29.5" font-family="Helvetica,sans-Serif" font-size="10.00">/home/elauksap/Dropbox</text>
<text text-anchor="start" x="368.5" y="-18.5" font-family="Helvetica,sans-Serif" font-size="10.00">/Progetto&#45;PACS/C++/Source</text>
<text text-anchor="middle" x="432" y="-7.5" font-family="Helvetica,sans-Serif" font-size="10.00">/src/dosModel.cc</text>
</a>
</g>
</g>
<!-- Node4&#45;&gt;Node6 -->
<g id="edge5" class="edge"><title>Node4&#45;&gt;Node6</title>
<path fill="none" stroke="midnightblue" d="M379.252,-71.4916C389.763,-61.6294 401.489,-50.6273 411.211,-41.5056"/>
<polygon fill="midnightblue" stroke="midnightblue" points="376.757,-69.0333 371.86,-78.4281 381.547,-74.1381 376.757,-69.0333"/>
</g>
<!-- Node7&#45;&gt;Node4 -->
<g id="edge7" class="edge"><title>Node7&#45;&gt;Node4</title>
<path fill="none" stroke="midnightblue" d="M430.729,-150.919C414.731,-140.702 396.518,-129.07 381.542,-119.506"/>
<polygon fill="midnightblue" stroke="midnightblue" points="429.043,-153.995 439.355,-156.428 432.811,-148.096 429.043,-153.995"/>
</g>
<!-- Node8 -->
<g id="node8" class="node"><title>Node8</title>
<g id="a_node8"><a xlink:href="factory_8cc.html" target="_top" xlink:title="/home/elauksap/Dropbox\l/Progetto&#45;PACS/C++/Source\l/src/factory.cc">
<polygon fill="white" stroke="black" points="440.5,-78.5 440.5,-119.5 583.5,-119.5 583.5,-78.5 440.5,-78.5"/>
<text text-anchor="start" x="448.5" y="-107.5" font-family="Helvetica,sans-Serif" font-size="10.00">/home/elauksap/Dropbox</text>
<text text-anchor="start" x="448.5" y="-96.5" font-family="Helvetica,sans-Serif" font-size="10.00">/Progetto&#45;PACS/C++/Source</text>
<text text-anchor="middle" x="512" y="-85.5" font-family="Helvetica,sans-Serif" font-size="10.00">/src/factory.cc</text>
</a>
</g>
</g>
<!-- Node7&#45;&gt;Node8 -->
<g id="edge8" class="edge"><title>Node7&#45;&gt;Node8</title>
<path fill="none" stroke="midnightblue" d="M485.769,-147.466C490.921,-138.143 496.522,-128.007 501.221,-119.506"/>
<polygon fill="midnightblue" stroke="midnightblue" points="482.59,-145.983 480.816,-156.428 488.716,-149.369 482.59,-145.983"/>
</g>
<!-- Node9&#45;&gt;Node4 -->
<g id="edge10" class="edge"><title>Node9&#45;&gt;Node4</title>
<path fill="none" stroke="midnightblue" d="M271.271,-150.919C287.269,-140.702 305.482,-129.07 320.458,-119.506"/>
<polygon fill="midnightblue" stroke="midnightblue" points="269.189,-148.096 262.645,-156.428 272.957,-153.995 269.189,-148.096"/>
</g>
<!-- Node10 -->
<g id="node10" class="node"><title>Node10</title>
<g id="a_node10"><a xlink:href="solvers_8cc.html" target="_top" xlink:title="/home/elauksap/Dropbox\l/Progetto&#45;PACS/C++/Source\l/src/solvers.cc">
<polygon fill="white" stroke="black" points="118.5,-78.5 118.5,-119.5 261.5,-119.5 261.5,-78.5 118.5,-78.5"/>
<text text-anchor="start" x="126.5" y="-107.5" font-family="Helvetica,sans-Serif" font-size="10.00">/home/elauksap/Dropbox</text>
<text text-anchor="start" x="126.5" y="-96.5" font-family="Helvetica,sans-Serif" font-size="10.00">/Progetto&#45;PACS/C++/Source</text>
<text text-anchor="middle" x="190" y="-85.5" font-family="Helvetica,sans-Serif" font-size="10.00">/src/solvers.cc</text>
</a>
</g>
</g>
<!-- Node9&#45;&gt;Node10 -->
<g id="edge11" class="edge"><title>Node9&#45;&gt;Node10</title>
<path fill="none" stroke="midnightblue" d="M216.231,-147.466C211.079,-138.143 205.478,-128.007 200.779,-119.506"/>
<polygon fill="midnightblue" stroke="midnightblue" points="213.284,-149.369 221.184,-156.428 219.41,-145.983 213.284,-149.369"/>
</g>
</g>
</svg>
