<?xml version="1.0" encoding="UTF-8" standalone="no"?>
<!DOCTYPE svg PUBLIC "-//W3C//DTD SVG 1.1//EN"
 "http://www.w3.org/Graphics/SVG/1.1/DTD/svg11.dtd">
<!-- Generated by graphviz version 2.36.0 (20140111.2315)
 -->
<!-- Title: /home/elauksap/Dropbox/Progetto&#45;PACS/C++/Source/src/solvers.h Pages: 1 -->
<svg width="503pt" height="274pt"
 viewBox="0.00 0.00 503.00 274.00" xmlns="http://www.w3.org/2000/svg" xmlns:xlink="http://www.w3.org/1999/xlink">
<g id="graph0" class="graph" transform="scale(1 1) rotate(0) translate(4 270)">
<title>/home/elauksap/Dropbox/Progetto&#45;PACS/C++/Source/src/solvers.h</title>
<polygon fill="white" stroke="none" points="-4,4 -4,-270 499,-270 499,4 -4,4"/>
<!-- Node1 -->
<g id="node1" class="node"><title>Node1</title>
<polygon fill="#bfbfbf" stroke="black" points="304.5,-224.5 304.5,-265.5 447.5,-265.5 447.5,-224.5 304.5,-224.5"/>
<text text-anchor="start" x="312.5" y="-253.5" font-family="Helvetica,sans-Serif" font-size="10.00">/home/elauksap/Dropbox</text>
<text text-anchor="start" x="312.5" y="-242.5" font-family="Helvetica,sans-Serif" font-size="10.00">/Progetto&#45;PACS/C++/Source</text>
<text text-anchor="middle" x="376" y="-231.5" font-family="Helvetica,sans-Serif" font-size="10.00">/src/solvers.h</text>
</g>
<!-- Node2 -->
<g id="node2" class="node"><title>Node2</title>
<g id="a_node2"><a xlink:href="charge_8h.html" target="_top" xlink:title="Classes for computing total electric charge. ">
<polygon fill="white" stroke="black" points="214,-168.5 214,-187.5 268,-187.5 268,-168.5 214,-168.5"/>
<text text-anchor="middle" x="241" y="-175.5" font-family="Helvetica,sans-Serif" font-size="10.00">charge.h</text>
</a>
</g>
</g>
<!-- Node1&#45;&gt;Node2 -->
<g id="edge1" class="edge"><title>Node1&#45;&gt;Node2</title>
<path fill="none" stroke="midnightblue" d="M335.496,-224.498C313.703,-214.005 287.416,-201.348 268.105,-192.051"/>
<polygon fill="midnightblue" stroke="midnightblue" points="269.499,-188.837 258.971,-187.652 266.462,-195.144 269.499,-188.837"/>
</g>
<!-- Node4 -->
<g id="node4" class="node"><title>Node4</title>
<g id="a_node4"><a xlink:href="typedefs_8h.html" target="_top" xlink:title="Typedefs and utility functions. ">
<polygon fill="white" stroke="black" points="210,-56.5 210,-75.5 272,-75.5 272,-56.5 210,-56.5"/>
<text text-anchor="middle" x="241" y="-63.5" font-family="Helvetica,sans-Serif" font-size="10.00">typedefs.h</text>
</a>
</g>
</g>
<!-- Node1&#45;&gt;Node4 -->
<g id="edge13" class="edge"><title>Node1&#45;&gt;Node4</title>
<path fill="none" stroke="midnightblue" d="M374.161,-224.207C370.598,-196.149 360.403,-144.603 332,-112 318.813,-96.8628 299.345,-86.2871 281.796,-79.2105"/>
<polygon fill="midnightblue" stroke="midnightblue" points="282.888,-75.8818 272.297,-75.6322 280.421,-82.4325 282.888,-75.8818"/>
</g>
<!-- Node12 -->
<g id="node12" class="node"><title>Node12</title>
<polygon fill="white" stroke="#bfbfbf" points="380,-168.5 380,-187.5 420,-187.5 420,-168.5 380,-168.5"/>
<text text-anchor="middle" x="400" y="-175.5" font-family="Helvetica,sans-Serif" font-size="10.00">utility</text>
</g>
<!-- Node1&#45;&gt;Node12 -->
<g id="edge14" class="edge"><title>Node1&#45;&gt;Node12</title>
<path fill="none" stroke="midnightblue" d="M383.201,-224.498C386.385,-215.874 390.109,-205.788 393.241,-197.306"/>
<polygon fill="midnightblue" stroke="midnightblue" points="396.625,-198.246 396.805,-187.652 390.058,-195.821 396.625,-198.246"/>
</g>
<!-- Node13 -->
<g id="node13" class="node"><title>Node13</title>
<polygon fill="white" stroke="#bfbfbf" points="438,-168.5 438,-187.5 478,-187.5 478,-168.5 438,-168.5"/>
<text text-anchor="middle" x="458" y="-175.5" font-family="Helvetica,sans-Serif" font-size="10.00">limits</text>
</g>
<!-- Node1&#45;&gt;Node13 -->
<g id="edge15" class="edge"><title>Node1&#45;&gt;Node13</title>
<path fill="none" stroke="midnightblue" d="M400.603,-224.498C412.933,-214.724 427.632,-203.072 439.069,-194.007"/>
<polygon fill="midnightblue" stroke="midnightblue" points="441.422,-196.607 447.085,-187.652 437.074,-191.122 441.422,-196.607"/>
</g>
<!-- Node3 -->
<g id="node3" class="node"><title>Node3</title>
<g id="a_node3"><a xlink:href="paramList_8h.html" target="_top" xlink:title="Interface to process a list of simulation parameters. ">
<polygon fill="white" stroke="black" points="108,-112.5 108,-131.5 176,-131.5 176,-112.5 108,-112.5"/>
<text text-anchor="middle" x="142" y="-119.5" font-family="Helvetica,sans-Serif" font-size="10.00">paramList.h</text>
</a>
</g>
</g>
<!-- Node2&#45;&gt;Node3 -->
<g id="edge2" class="edge"><title>Node2&#45;&gt;Node3</title>
<path fill="none" stroke="midnightblue" d="M225.094,-168.324C209.362,-159.743 185.058,-146.486 166.791,-136.522"/>
<polygon fill="midnightblue" stroke="midnightblue" points="168.322,-133.37 157.867,-131.655 164.97,-139.516 168.322,-133.37"/>
</g>
<!-- Node2&#45;&gt;Node4 -->
<g id="edge12" class="edge"><title>Node2&#45;&gt;Node4</title>
<path fill="none" stroke="midnightblue" d="M235.907,-168.274C229.3,-155.897 219.058,-132.467 223,-112 224.79,-102.705 228.483,-92.8887 232.061,-84.8048"/>
<polygon fill="midnightblue" stroke="midnightblue" points="235.273,-86.1981 236.379,-75.6611 228.944,-83.2089 235.273,-86.1981"/>
</g>
<!-- Node11 -->
<g id="node11" class="node"><title>Node11</title>
<g id="a_node11"><a xlink:href="quadratureRule_8h.html" target="_top" xlink:title="Quadrature rules. ">
<polygon fill="white" stroke="black" points="232.5,-112.5 232.5,-131.5 323.5,-131.5 323.5,-112.5 232.5,-112.5"/>
<text text-anchor="middle" x="278" y="-119.5" font-family="Helvetica,sans-Serif" font-size="10.00">quadratureRule.h</text>
</a>
</g>
</g>
<!-- Node2&#45;&gt;Node11 -->
<g id="edge10" class="edge"><title>Node2&#45;&gt;Node11</title>
<path fill="none" stroke="midnightblue" d="M247.11,-168.083C252.282,-160.534 259.846,-149.495 266.194,-140.23"/>
<polygon fill="midnightblue" stroke="midnightblue" points="269.239,-141.979 272.004,-131.751 263.464,-138.022 269.239,-141.979"/>
</g>
<!-- Node3&#45;&gt;Node4 -->
<g id="edge3" class="edge"><title>Node3&#45;&gt;Node4</title>
<path fill="none" stroke="midnightblue" d="M157.906,-112.324C173.638,-103.743 197.942,-90.486 216.209,-80.5224"/>
<polygon fill="midnightblue" stroke="midnightblue" points="218.03,-83.5157 225.133,-75.6545 214.678,-77.3704 218.03,-83.5157"/>
</g>
<!-- Node5 -->
<g id="node5" class="node"><title>Node5</title>
<polygon fill="white" stroke="#bfbfbf" points="-0.5,-0.5 -0.5,-19.5 72.5,-19.5 72.5,-0.5 -0.5,-0.5"/>
<text text-anchor="middle" x="36" y="-7.5" font-family="Helvetica,sans-Serif" font-size="10.00">Eigen/Dense</text>
</g>
<!-- Node4&#45;&gt;Node5 -->
<g id="edge4" class="edge"><title>Node4&#45;&gt;Node5</title>
<path fill="none" stroke="midnightblue" d="M209.865,-56.7986C174.729,-47.5432 117.382,-32.4372 78.2299,-22.124"/>
<polygon fill="midnightblue" stroke="midnightblue" points="79.0074,-18.7095 68.4457,-19.5467 77.2243,-25.4786 79.0074,-18.7095"/>
</g>
<!-- Node6 -->
<g id="node6" class="node"><title>Node6</title>
<polygon fill="white" stroke="#bfbfbf" points="90.5,-0.5 90.5,-19.5 165.5,-19.5 165.5,-0.5 90.5,-0.5"/>
<text text-anchor="middle" x="128" y="-7.5" font-family="Helvetica,sans-Serif" font-size="10.00">Eigen/Sparse</text>
</g>
<!-- Node4&#45;&gt;Node6 -->
<g id="edge5" class="edge"><title>Node4&#45;&gt;Node6</title>
<path fill="none" stroke="midnightblue" d="M223.095,-56.4435C204.746,-47.6751 175.995,-33.9355 154.906,-23.8579"/>
<polygon fill="midnightblue" stroke="midnightblue" points="156.353,-20.6703 145.821,-19.5164 153.335,-26.9862 156.353,-20.6703"/>
</g>
<!-- Node7 -->
<g id="node7" class="node"><title>Node7</title>
<polygon fill="white" stroke="#bfbfbf" points="183.5,-0.5 183.5,-19.5 230.5,-19.5 230.5,-0.5 183.5,-0.5"/>
<text text-anchor="middle" x="207" y="-7.5" font-family="Helvetica,sans-Serif" font-size="10.00">GetPot</text>
</g>
<!-- Node4&#45;&gt;Node7 -->
<g id="edge6" class="edge"><title>Node4&#45;&gt;Node7</title>
<path fill="none" stroke="midnightblue" d="M235.386,-56.083C230.633,-48.5341 223.682,-37.4948 217.848,-28.2298"/>
<polygon fill="midnightblue" stroke="midnightblue" points="220.8,-26.3486 212.51,-19.7511 214.876,-30.0783 220.8,-26.3486"/>
</g>
<!-- Node8 -->
<g id="node8" class="node"><title>Node8</title>
<polygon fill="white" stroke="#bfbfbf" points="249,-0.5 249,-19.5 303,-19.5 303,-0.5 249,-0.5"/>
<text text-anchor="middle" x="276" y="-7.5" font-family="Helvetica,sans-Serif" font-size="10.00">iostream</text>
</g>
<!-- Node4&#45;&gt;Node8 -->
<g id="edge7" class="edge"><title>Node4&#45;&gt;Node8</title>
<path fill="none" stroke="midnightblue" d="M246.78,-56.083C251.672,-48.5341 258.827,-37.4948 264.833,-28.2298"/>
<polygon fill="midnightblue" stroke="midnightblue" points="267.826,-30.0463 270.328,-19.7511 261.952,-26.239 267.826,-30.0463"/>
</g>
<!-- Node9 -->
<g id="node9" class="node"><title>Node9</title>
<polygon fill="white" stroke="#bfbfbf" points="321,-0.5 321,-19.5 371,-19.5 371,-0.5 321,-0.5"/>
<text text-anchor="middle" x="346" y="-7.5" font-family="Helvetica,sans-Serif" font-size="10.00">fstream</text>
</g>
<!-- Node4&#45;&gt;Node9 -->
<g id="edge8" class="edge"><title>Node4&#45;&gt;Node9</title>
<path fill="none" stroke="midnightblue" d="M257.87,-56.324C274.709,-47.6641 300.807,-34.2424 320.238,-24.249"/>
<polygon fill="midnightblue" stroke="midnightblue" points="321.88,-27.3405 329.172,-19.6545 318.678,-21.1155 321.88,-27.3405"/>
</g>
<!-- Node10 -->
<g id="node10" class="node"><title>Node10</title>
<g id="a_node10"><a xlink:href="physicalConstants_8h.html" target="_top" xlink:title="Physical constants. ">
<polygon fill="white" stroke="black" points="389,-0.5 389,-19.5 495,-19.5 495,-0.5 389,-0.5"/>
<text text-anchor="middle" x="442" y="-7.5" font-family="Helvetica,sans-Serif" font-size="10.00">physicalConstants.h</text>
</a>
</g>
</g>
<!-- Node4&#45;&gt;Node10 -->
<g id="edge9" class="edge"><title>Node4&#45;&gt;Node10</title>
<path fill="none" stroke="midnightblue" d="M272.406,-56.5625C306.867,-47.3044 362.335,-32.4026 400.393,-22.1781"/>
<polygon fill="midnightblue" stroke="midnightblue" points="401.402,-25.5312 410.151,-19.5565 399.585,-18.771 401.402,-25.5312"/>
</g>
<!-- Node11&#45;&gt;Node4 -->
<g id="edge11" class="edge"><title>Node11&#45;&gt;Node4</title>
<path fill="none" stroke="midnightblue" d="M271.89,-112.083C266.718,-104.534 259.154,-93.4948 252.806,-84.2298"/>
<polygon fill="midnightblue" stroke="midnightblue" points="255.536,-82.0221 246.996,-75.7511 249.761,-85.9787 255.536,-82.0221"/>
</g>
</g>
</svg>
