<?xml version="1.0" encoding="UTF-8" standalone="no"?>
<!DOCTYPE svg PUBLIC "-//W3C//DTD SVG 1.1//EN"
 "http://www.w3.org/Graphics/SVG/1.1/DTD/svg11.dtd">
<!-- Generated by graphviz version 2.36.0 (20140111.2315)
 -->
<!-- Title: /home/elauksap/Dropbox/Progetto&#45;PACS/C++/Source/src/solvers.cc Pages: 1 -->
<!--zoomable 330 -->
<svg id="main" version="1.1" xmlns="http://www.w3.org/2000/svg" xmlns:xlink="http://www.w3.org/1999/xlink" xml:space="preserve" onload="init(evt)">
<style type="text/css"><![CDATA[
.edge:hover path { stroke: red; }
.edge:hover polygon { stroke: red; fill: red; }
]]></style>
<script type="text/javascript"><![CDATA[
var edges = document.getElementsByTagName('g');
if (edges && edges.length) {
  for (var i=0;i<edges.length;i++) {
    if (edges[i].id.substr(0,4)=='edge') {
      edges[i].setAttribute('class','edge');
    }
  }
}
]]></script>
        <defs>
                <circle id="rim" cx="0" cy="0" r="7"/>
                <circle id="rim2" cx="0" cy="0" r="3.5"/>
                <g id="zoomPlus">
                        <use xlink:href="#rim" fill="#404040">
                                <set attributeName="fill" to="#808080" begin="zoomplus.mouseover" end="zoomplus.mouseout"/>
                        </use>
                        <path d="M-4,0h8M0,-4v8" fill="none" stroke="white" stroke-width="1.5" pointer-events="none"/>
                </g>
                <g id="zoomMin">
                        <use xlink:href="#rim" fill="#404040">
                                <set attributeName="fill" to="#808080" begin="zoomminus.mouseover" end="zoomminus.mouseout"/>
                        </use>
                        <path d="M-4,0h8" fill="none" stroke="white" stroke-width="1.5" pointer-events="none"/>
                </g>
                <g id="dirArrow">
                        <path fill="none" stroke="white" stroke-width="1.5" d="M0,-3.0v7 M-2.5,-0.5L0,-3.0L2.5,-0.5"/>
                </g>
               <g id="resetDef">
                       <use xlink:href="#rim2" fill="#404040">
                               <set attributeName="fill" to="#808080" begin="reset.mouseover" end="reset.mouseout"/>
                       </use>
               </g>
        </defs>

<script type="text/javascript">
var viewWidth = 503;
var viewHeight = 330;
var sectionId = 'dynsection-0';
</script>
<script xlink:href="svgpan.js"/>
<svg id="graph" class="graph">
<g id="viewport">
<title>/home/elauksap/Dropbox/Progetto&#45;PACS/C++/Source/src/solvers.cc</title>
<polygon fill="white" stroke="none" points="-4,4 -4,-326 499,-326 499,4 -4,4"/>
<!-- Node1 -->
<g id="node1" class="node"><title>Node1</title>
<polygon fill="#bfbfbf" stroke="black" points="304.5,-280.5 304.5,-321.5 447.5,-321.5 447.5,-280.5 304.5,-280.5"/>
<text text-anchor="start" x="312.5" y="-309.5" font-family="Helvetica,sans-Serif" font-size="10.00">/home/elauksap/Dropbox</text>
<text text-anchor="start" x="312.5" y="-298.5" font-family="Helvetica,sans-Serif" font-size="10.00">/Progetto&#45;PACS/C++/Source</text>
<text text-anchor="middle" x="376" y="-287.5" font-family="Helvetica,sans-Serif" font-size="10.00">/src/solvers.cc</text>
</g>
<!-- Node2 -->
<g id="node2" class="node"><title>Node2</title>
<g id="a_node2"><a xlink:href="solvers_8h.html" target="_top" xlink:title="Generic solvers for PDEs. ">
<polygon fill="white" stroke="black" points="348,-224.5 348,-243.5 404,-243.5 404,-224.5 348,-224.5"/>
<text text-anchor="middle" x="376" y="-231.5" font-family="Helvetica,sans-Serif" font-size="10.00">solvers.h</text>
</a>
</g>
</g>
<!-- Node1&#45;&gt;Node2 -->
<g id="edge1" class="edge"><title>Node1&#45;&gt;Node2</title>
<path fill="none" stroke="midnightblue" d="M376,-280.498C376,-272.065 376,-262.235 376,-253.874"/>
<polygon fill="midnightblue" stroke="midnightblue" points="379.5,-253.652 376,-243.652 372.5,-253.653 379.5,-253.652"/>
</g>
<!-- Node3 -->
<g id="node3" class="node"><title>Node3</title>
<g id="a_node3"><a xlink:href="charge_8h.html" target="_top" xlink:title="Classes for computing total electric charge. ">
<polygon fill="white" stroke="black" points="214,-168.5 214,-187.5 268,-187.5 268,-168.5 214,-168.5"/>
<text text-anchor="middle" x="241" y="-175.5" font-family="Helvetica,sans-Serif" font-size="10.00">charge.h</text>
</a>
</g>
</g>
<!-- Node2&#45;&gt;Node3 -->
<g id="edge2" class="edge"><title>Node2&#45;&gt;Node3</title>
<path fill="none" stroke="midnightblue" d="M354.609,-224.444C332.293,-215.517 297.097,-201.439 271.792,-191.317"/>
<polygon fill="midnightblue" stroke="midnightblue" points="272.876,-187.981 262.291,-187.516 270.276,-194.48 272.876,-187.981"/>
</g>
<!-- Node5 -->
<g id="node5" class="node"><title>Node5</title>
<g id="a_node5"><a xlink:href="typedefs_8h.html" target="_top" xlink:title="Typedefs and utility functions. ">
<polygon fill="white" stroke="black" points="210,-56.5 210,-75.5 272,-75.5 272,-56.5 210,-56.5"/>
<text text-anchor="middle" x="241" y="-63.5" font-family="Helvetica,sans-Serif" font-size="10.00">typedefs.h</text>
</a>
</g>
</g>
<!-- Node2&#45;&gt;Node5 -->
<g id="edge14" class="edge"><title>Node2&#45;&gt;Node5</title>
<path fill="none" stroke="midnightblue" d="M375.056,-224.256C372.296,-202.638 362.414,-145.975 332,-112 318.511,-96.9315 298.83,-86.3302 281.22,-79.219"/>
<polygon fill="midnightblue" stroke="midnightblue" points="282.293,-75.883 271.701,-75.6211 279.818,-82.4308 282.293,-75.883"/>
</g>
<!-- Node13 -->
<g id="node13" class="node"><title>Node13</title>
<polygon fill="white" stroke="#bfbfbf" points="380,-168.5 380,-187.5 420,-187.5 420,-168.5 380,-168.5"/>
<text text-anchor="middle" x="400" y="-175.5" font-family="Helvetica,sans-Serif" font-size="10.00">utility</text>
</g>
<!-- Node2&#45;&gt;Node13 -->
<g id="edge15" class="edge"><title>Node2&#45;&gt;Node13</title>
<path fill="none" stroke="midnightblue" d="M379.963,-224.083C383.213,-216.77 387.919,-206.181 391.954,-197.103"/>
<polygon fill="midnightblue" stroke="midnightblue" points="395.248,-198.311 396.111,-187.751 388.851,-195.468 395.248,-198.311"/>
</g>
<!-- Node14 -->
<g id="node14" class="node"><title>Node14</title>
<polygon fill="white" stroke="#bfbfbf" points="438,-168.5 438,-187.5 478,-187.5 478,-168.5 438,-168.5"/>
<text text-anchor="middle" x="458" y="-175.5" font-family="Helvetica,sans-Serif" font-size="10.00">limits</text>
</g>
<!-- Node2&#45;&gt;Node14 -->
<g id="edge16" class="edge"><title>Node2&#45;&gt;Node14</title>
<path fill="none" stroke="midnightblue" d="M389.175,-224.324C401.847,-215.979 421.233,-203.212 436.206,-193.352"/>
<polygon fill="midnightblue" stroke="midnightblue" points="438.431,-196.078 444.858,-187.655 434.581,-190.231 438.431,-196.078"/>
</g>
<!-- Node4 -->
<g id="node4" class="node"><title>Node4</title>
<g id="a_node4"><a xlink:href="paramList_8h.html" target="_top" xlink:title="Interface to process a list of simulation parameters. ">
<polygon fill="white" stroke="black" points="108,-112.5 108,-131.5 176,-131.5 176,-112.5 108,-112.5"/>
<text text-anchor="middle" x="142" y="-119.5" font-family="Helvetica,sans-Serif" font-size="10.00">paramList.h</text>
</a>
</g>
</g>
<!-- Node3&#45;&gt;Node4 -->
<g id="edge3" class="edge"><title>Node3&#45;&gt;Node4</title>
<path fill="none" stroke="midnightblue" d="M225.094,-168.324C209.362,-159.743 185.058,-146.486 166.791,-136.522"/>
<polygon fill="midnightblue" stroke="midnightblue" points="168.322,-133.37 157.867,-131.655 164.97,-139.516 168.322,-133.37"/>
</g>
<!-- Node3&#45;&gt;Node5 -->
<g id="edge13" class="edge"><title>Node3&#45;&gt;Node5</title>
<path fill="none" stroke="midnightblue" d="M235.907,-168.274C229.3,-155.897 219.058,-132.467 223,-112 224.79,-102.705 228.483,-92.8887 232.061,-84.8048"/>
<polygon fill="midnightblue" stroke="midnightblue" points="235.273,-86.1981 236.379,-75.6611 228.944,-83.2089 235.273,-86.1981"/>
</g>
<!-- Node12 -->
<g id="node12" class="node"><title>Node12</title>
<g id="a_node12"><a xlink:href="quadratureRule_8h.html" target="_top" xlink:title="Quadrature rules. ">
<polygon fill="white" stroke="black" points="232.5,-112.5 232.5,-131.5 323.5,-131.5 323.5,-112.5 232.5,-112.5"/>
<text text-anchor="middle" x="278" y="-119.5" font-family="Helvetica,sans-Serif" font-size="10.00">quadratureRule.h</text>
</a>
</g>
</g>
<!-- Node3&#45;&gt;Node12 -->
<g id="edge11" class="edge"><title>Node3&#45;&gt;Node12</title>
<path fill="none" stroke="midnightblue" d="M247.11,-168.083C252.282,-160.534 259.846,-149.495 266.194,-140.23"/>
<polygon fill="midnightblue" stroke="midnightblue" points="269.239,-141.979 272.004,-131.751 263.464,-138.022 269.239,-141.979"/>
</g>
<!-- Node4&#45;&gt;Node5 -->
<g id="edge4" class="edge"><title>Node4&#45;&gt;Node5</title>
<path fill="none" stroke="midnightblue" d="M157.906,-112.324C173.638,-103.743 197.942,-90.486 216.209,-80.5224"/>
<polygon fill="midnightblue" stroke="midnightblue" points="218.03,-83.5157 225.133,-75.6545 214.678,-77.3704 218.03,-83.5157"/>
</g>
<!-- Node6 -->
<g id="node6" class="node"><title>Node6</title>
<polygon fill="white" stroke="#bfbfbf" points="-0.5,-0.5 -0.5,-19.5 72.5,-19.5 72.5,-0.5 -0.5,-0.5"/>
<text text-anchor="middle" x="36" y="-7.5" font-family="Helvetica,sans-Serif" font-size="10.00">Eigen/Dense</text>
</g>
<!-- Node5&#45;&gt;Node6 -->
<g id="edge5" class="edge"><title>Node5&#45;&gt;Node6</title>
<path fill="none" stroke="midnightblue" d="M209.865,-56.7986C174.729,-47.5432 117.382,-32.4372 78.2299,-22.124"/>
<polygon fill="midnightblue" stroke="midnightblue" points="79.0074,-18.7095 68.4457,-19.5467 77.2243,-25.4786 79.0074,-18.7095"/>
</g>
<!-- Node7 -->
<g id="node7" class="node"><title>Node7</title>
<polygon fill="white" stroke="#bfbfbf" points="90.5,-0.5 90.5,-19.5 165.5,-19.5 165.5,-0.5 90.5,-0.5"/>
<text text-anchor="middle" x="128" y="-7.5" font-family="Helvetica,sans-Serif" font-size="10.00">Eigen/Sparse</text>
</g>
<!-- Node5&#45;&gt;Node7 -->
<g id="edge6" class="edge"><title>Node5&#45;&gt;Node7</title>
<path fill="none" stroke="midnightblue" d="M223.095,-56.4435C204.746,-47.6751 175.995,-33.9355 154.906,-23.8579"/>
<polygon fill="midnightblue" stroke="midnightblue" points="156.353,-20.6703 145.821,-19.5164 153.335,-26.9862 156.353,-20.6703"/>
</g>
<!-- Node8 -->
<g id="node8" class="node"><title>Node8</title>
<polygon fill="white" stroke="#bfbfbf" points="183.5,-0.5 183.5,-19.5 230.5,-19.5 230.5,-0.5 183.5,-0.5"/>
<text text-anchor="middle" x="207" y="-7.5" font-family="Helvetica,sans-Serif" font-size="10.00">GetPot</text>
</g>
<!-- Node5&#45;&gt;Node8 -->
<g id="edge7" class="edge"><title>Node5&#45;&gt;Node8</title>
<path fill="none" stroke="midnightblue" d="M235.386,-56.083C230.633,-48.5341 223.682,-37.4948 217.848,-28.2298"/>
<polygon fill="midnightblue" stroke="midnightblue" points="220.8,-26.3486 212.51,-19.7511 214.876,-30.0783 220.8,-26.3486"/>
</g>
<!-- Node9 -->
<g id="node9" class="node"><title>Node9</title>
<polygon fill="white" stroke="#bfbfbf" points="249,-0.5 249,-19.5 303,-19.5 303,-0.5 249,-0.5"/>
<text text-anchor="middle" x="276" y="-7.5" font-family="Helvetica,sans-Serif" font-size="10.00">iostream</text>
</g>
<!-- Node5&#45;&gt;Node9 -->
<g id="edge8" class="edge"><title>Node5&#45;&gt;Node9</title>
<path fill="none" stroke="midnightblue" d="M246.78,-56.083C251.672,-48.5341 258.827,-37.4948 264.833,-28.2298"/>
<polygon fill="midnightblue" stroke="midnightblue" points="267.826,-30.0463 270.328,-19.7511 261.952,-26.239 267.826,-30.0463"/>
</g>
<!-- Node10 -->
<g id="node10" class="node"><title>Node10</title>
<polygon fill="white" stroke="#bfbfbf" points="321,-0.5 321,-19.5 371,-19.5 371,-0.5 321,-0.5"/>
<text text-anchor="middle" x="346" y="-7.5" font-family="Helvetica,sans-Serif" font-size="10.00">fstream</text>
</g>
<!-- Node5&#45;&gt;Node10 -->
<g id="edge9" class="edge"><title>Node5&#45;&gt;Node10</title>
<path fill="none" stroke="midnightblue" d="M257.87,-56.324C274.709,-47.6641 300.807,-34.2424 320.238,-24.249"/>
<polygon fill="midnightblue" stroke="midnightblue" points="321.88,-27.3405 329.172,-19.6545 318.678,-21.1155 321.88,-27.3405"/>
</g>
<!-- Node11 -->
<g id="node11" class="node"><title>Node11</title>
<g id="a_node11"><a xlink:href="physicalConstants_8h.html" target="_top" xlink:title="Physical constants. ">
<polygon fill="white" stroke="black" points="389,-0.5 389,-19.5 495,-19.5 495,-0.5 389,-0.5"/>
<text text-anchor="middle" x="442" y="-7.5" font-family="Helvetica,sans-Serif" font-size="10.00">physicalConstants.h</text>
</a>
</g>
</g>
<!-- Node5&#45;&gt;Node11 -->
<g id="edge10" class="edge"><title>Node5&#45;&gt;Node11</title>
<path fill="none" stroke="midnightblue" d="M272.406,-56.5625C306.867,-47.3044 362.335,-32.4026 400.393,-22.1781"/>
<polygon fill="midnightblue" stroke="midnightblue" points="401.402,-25.5312 410.151,-19.5565 399.585,-18.771 401.402,-25.5312"/>
</g>
<!-- Node12&#45;&gt;Node5 -->
<g id="edge12" class="edge"><title>Node12&#45;&gt;Node5</title>
<path fill="none" stroke="midnightblue" d="M271.89,-112.083C266.718,-104.534 259.154,-93.4948 252.806,-84.2298"/>
<polygon fill="midnightblue" stroke="midnightblue" points="255.536,-82.0221 246.996,-75.7511 249.761,-85.9787 255.536,-82.0221"/>
</g>
</g>
</svg>
        <g id="navigator" transform="translate(0 0)" fill="#404254">
                <rect fill="#f2f5e9" fill-opacity="0.5" stroke="#606060" stroke-width=".5" x="0" y="0" width="60" height="60"/>
                <use id="zoomplus" xlink:href="#zoomPlus" x="17" y="9" onmousedown="handleZoom(evt,'in')"/>
                <use id="zoomminus" xlink:href="#zoomMin" x="42" y="9" onmousedown="handleZoom(evt,'out')"/>
                <use id="reset" xlink:href="#resetDef" x="30" y="36" onmousedown="handleReset()"/>
                <g id="arrowUp" xlink:href="#dirArrow" transform="translate(30 24)" onmousedown="handlePan(0,-1)">
                  <use xlink:href="#rim" fill="#404040">
                        <set attributeName="fill" to="#808080" begin="arrowUp.mouseover" end="arrowUp.mouseout"/>
                  </use>
                  <path fill="none" stroke="white" stroke-width="1.5" d="M0,-3.0v7 M-2.5,-0.5L0,-3.0L2.5,-0.5"/>
                </g>
                <g id="arrowRight" xlink:href="#dirArrow" transform="rotate(90) translate(36 -43)" onmousedown="handlePan(1,0)">
                  <use xlink:href="#rim" fill="#404040">
                        <set attributeName="fill" to="#808080" begin="arrowRight.mouseover" end="arrowRight.mouseout"/>
                  </use>
                  <path fill="none" stroke="white" stroke-width="1.5" d="M0,-3.0v7 M-2.5,-0.5L0,-3.0L2.5,-0.5"/>
                </g>
                <g id="arrowDown" xlink:href="#dirArrow" transform="rotate(180) translate(-30 -48)" onmousedown="handlePan(0,1)">
                  <use xlink:href="#rim" fill="#404040">
                        <set attributeName="fill" to="#808080" begin="arrowDown.mouseover" end="arrowDown.mouseout"/>
                  </use>
                  <path fill="none" stroke="white" stroke-width="1.5" d="M0,-3.0v7 M-2.5,-0.5L0,-3.0L2.5,-0.5"/>
                </g>
                <g id="arrowLeft" xlink:href="#dirArrow" transform="rotate(270) translate(-36 17)" onmousedown="handlePan(-1,0)">
                  <use xlink:href="#rim" fill="#404040">
                        <set attributeName="fill" to="#808080" begin="arrowLeft.mouseover" end="arrowLeft.mouseout"/>
                  </use>
                  <path fill="none" stroke="white" stroke-width="1.5" d="M0,-3.0v7 M-2.5,-0.5L0,-3.0L2.5,-0.5"/>
                </g>
        </g>
        <svg viewBox="0 0 15 15" width="100%" height="30px" preserveAspectRatio="xMaxYMin meet">
         <g id="arrow_out" transform="scale(0.3 0.3)">
          <a xlink:href="solvers_8cc__incl_org.svg" target="_base">
           <rect id="button" ry="5" rx="5" y="6" x="6" height="38" width="38"
                fill="#f2f5e9" fill-opacity="0.5" stroke="#606060" stroke-width="1.0"/>
           <path id="arrow"
             d="M 11.500037,31.436501 C 11.940474,20.09759 22.043105,11.32322 32.158766,21.979434 L 37.068811,17.246167 C 37.068811,17.246167 37.088388,32 37.088388,32 L 22.160133,31.978069 C 22.160133,31.978069 26.997745,27.140456 26.997745,27.140456 C 18.528582,18.264221 13.291696,25.230495 11.500037,31.436501 z"
             style="fill:#404040;"/>
          </a>
         </g>
        </svg>
</svg>
