<?xml version="1.0" encoding="UTF-8" standalone="no"?>
<!DOCTYPE svg PUBLIC "-//W3C//DTD SVG 1.1//EN"
 "http://www.w3.org/Graphics/SVG/1.1/DTD/svg11.dtd">
<!-- Generated by graphviz version 2.36.0 (20140111.2315)
 -->
<!-- Title: /home/elauksap/Dropbox/Progetto&#45;PACS/C++/Source/src/typedefs.h Pages: 1 -->
<!--zoomable 440 -->
<svg id="main" version="1.1" xmlns="http://www.w3.org/2000/svg" xmlns:xlink="http://www.w3.org/1999/xlink" xml:space="preserve" onload="init(evt)">
<style type="text/css"><![CDATA[
.edge:hover path { stroke: red; }
.edge:hover polygon { stroke: red; fill: red; }
]]></style>
<script type="text/javascript"><![CDATA[
var edges = document.getElementsByTagName('g');
if (edges && edges.length) {
  for (var i=0;i<edges.length;i++) {
    if (edges[i].id.substr(0,4)=='edge') {
      edges[i].setAttribute('class','edge');
    }
  }
}
]]></script>
        <defs>
                <circle id="rim" cx="0" cy="0" r="7"/>
                <circle id="rim2" cx="0" cy="0" r="3.5"/>
                <g id="zoomPlus">
                        <use xlink:href="#rim" fill="#404040">
                                <set attributeName="fill" to="#808080" begin="zoomplus.mouseover" end="zoomplus.mouseout"/>
                        </use>
                        <path d="M-4,0h8M0,-4v8" fill="none" stroke="white" stroke-width="1.5" pointer-events="none"/>
                </g>
                <g id="zoomMin">
                        <use xlink:href="#rim" fill="#404040">
                                <set attributeName="fill" to="#808080" begin="zoomminus.mouseover" end="zoomminus.mouseout"/>
                        </use>
                        <path d="M-4,0h8" fill="none" stroke="white" stroke-width="1.5" pointer-events="none"/>
                </g>
                <g id="dirArrow">
                        <path fill="none" stroke="white" stroke-width="1.5" d="M0,-3.0v7 M-2.5,-0.5L0,-3.0L2.5,-0.5"/>
                </g>
               <g id="resetDef">
                       <use xlink:href="#rim2" fill="#404040">
                               <set attributeName="fill" to="#808080" begin="reset.mouseover" end="reset.mouseout"/>
                       </use>
               </g>
        </defs>

<script type="text/javascript">
var viewWidth = 1246;
var viewHeight = 440;
var sectionId = 'dynsection-1';
</script>
<script xlink:href="svgpan.js"/>
<svg id="graph" class="graph">
<g id="viewport">
<title>/home/elauksap/Dropbox/Progetto&#45;PACS/C++/Source/src/typedefs.h</title>
<polygon fill="white" stroke="none" points="-4,4 -4,-436 1242.25,-436 1242.25,4 -4,4"/>
<!-- Node1 -->
<g id="node1" class="node"><title>Node1</title>
<polygon fill="#bfbfbf" stroke="black" points="525.753,-390.5 525.753,-431.5 668.753,-431.5 668.753,-390.5 525.753,-390.5"/>
<text text-anchor="start" x="533.753" y="-419.5" font-family="Helvetica,sans-Serif" font-size="10.00">/home/elauksap/Dropbox</text>
<text text-anchor="start" x="533.753" y="-408.5" font-family="Helvetica,sans-Serif" font-size="10.00">/Progetto&#45;PACS/C++/Source</text>
<text text-anchor="middle" x="597.253" y="-397.5" font-family="Helvetica,sans-Serif" font-size="10.00">/src/typedefs.h</text>
</g>
<!-- Node2 -->
<g id="node2" class="node"><title>Node2</title>
<g id="a_node2"><a xlink:href="paramList_8h.html" target="_top" xlink:title="Interface to process a list of simulation parameters. ">
<polygon fill="white" stroke="black" points="445.753,-312.5 445.753,-353.5 588.753,-353.5 588.753,-312.5 445.753,-312.5"/>
<text text-anchor="start" x="453.753" y="-341.5" font-family="Helvetica,sans-Serif" font-size="10.00">/home/elauksap/Dropbox</text>
<text text-anchor="start" x="453.753" y="-330.5" font-family="Helvetica,sans-Serif" font-size="10.00">/Progetto&#45;PACS/C++/Source</text>
<text text-anchor="middle" x="517.253" y="-319.5" font-family="Helvetica,sans-Serif" font-size="10.00">/src/paramList.h</text>
</a>
</g>
</g>
<!-- Node1&#45;&gt;Node2 -->
<g id="edge1" class="edge"><title>Node1&#45;&gt;Node2</title>
<path fill="none" stroke="midnightblue" d="M569.349,-383.492C558.968,-373.629 547.387,-362.627 537.785,-353.506"/>
<polygon fill="midnightblue" stroke="midnightblue" points="566.99,-386.078 576.651,-390.428 571.812,-381.003 566.99,-386.078"/>
</g>
<!-- Node3 -->
<g id="node3" class="node"><title>Node3</title>
<g id="a_node3"><a xlink:href="charge_8h.html" target="_top" xlink:title="Classes for computing total electric charge. ">
<polygon fill="white" stroke="black" points="296.753,-234.5 296.753,-275.5 439.753,-275.5 439.753,-234.5 296.753,-234.5"/>
<text text-anchor="start" x="304.753" y="-263.5" font-family="Helvetica,sans-Serif" font-size="10.00">/home/elauksap/Dropbox</text>
<text text-anchor="start" x="304.753" y="-252.5" font-family="Helvetica,sans-Serif" font-size="10.00">/Progetto&#45;PACS/C++/Source</text>
<text text-anchor="middle" x="368.253" y="-241.5" font-family="Helvetica,sans-Serif" font-size="10.00">/src/charge.h</text>
</a>
</g>
</g>
<!-- Node1&#45;&gt;Node3 -->
<g id="edge21" class="edge"><title>Node1&#45;&gt;Node3</title>
<path fill="none" stroke="midnightblue" d="M515.708,-392.488C488.603,-383.961 459.448,-371.613 436.253,-354 408.711,-333.085 388.165,-297.754 377.208,-275.715"/>
<polygon fill="midnightblue" stroke="midnightblue" points="515.002,-395.93 525.586,-395.459 517.018,-389.227 515.002,-395.93"/>
</g>
<!-- Node5 -->
<g id="node5" class="node"><title>Node5</title>
<g id="a_node5"><a xlink:href="dosModel_8h.html" target="_top" xlink:title="Mathematical model for Density of States extraction. ">
<polygon fill="white" stroke="black" points="528.753,-78.5 528.753,-119.5 671.753,-119.5 671.753,-78.5 528.753,-78.5"/>
<text text-anchor="start" x="536.753" y="-107.5" font-family="Helvetica,sans-Serif" font-size="10.00">/home/elauksap/Dropbox</text>
<text text-anchor="start" x="536.753" y="-96.5" font-family="Helvetica,sans-Serif" font-size="10.00">/Progetto&#45;PACS/C++/Source</text>
<text text-anchor="middle" x="600.253" y="-85.5" font-family="Helvetica,sans-Serif" font-size="10.00">/src/dosModel.h</text>
</a>
</g>
</g>
<!-- Node1&#45;&gt;Node5 -->
<g id="edge29" class="edge"><title>Node1&#45;&gt;Node5</title>
<path fill="none" stroke="midnightblue" d="M515.523,-409.24C424.092,-406.244 272.628,-394.804 149.253,-354 72.0852,-328.479 -33.2846,-301.99 11.253,-234 58.8055,-161.408 106.694,-179.427 190.253,-156 252.25,-138.618 428.439,-118.122 528.511,-107.395"/>
<polygon fill="midnightblue" stroke="midnightblue" points="515.446,-412.739 525.548,-409.542 515.658,-405.742 515.446,-412.739"/>
</g>
<!-- Node10 -->
<g id="node10" class="node"><title>Node10</title>
<g id="a_node10"><a xlink:href="solvers_8h.html" target="_top" xlink:title="Generic solvers for PDEs. ">
<polygon fill="white" stroke="black" points="895.753,-156.5 895.753,-197.5 1038.75,-197.5 1038.75,-156.5 895.753,-156.5"/>
<text text-anchor="start" x="903.753" y="-185.5" font-family="Helvetica,sans-Serif" font-size="10.00">/home/elauksap/Dropbox</text>
<text text-anchor="start" x="903.753" y="-174.5" font-family="Helvetica,sans-Serif" font-size="10.00">/Progetto&#45;PACS/C++/Source</text>
<text text-anchor="middle" x="967.253" y="-163.5" font-family="Helvetica,sans-Serif" font-size="10.00">/src/solvers.h</text>
</a>
</g>
</g>
<!-- Node1&#45;&gt;Node10 -->
<g id="edge28" class="edge"><title>Node1&#45;&gt;Node10</title>
<path fill="none" stroke="midnightblue" d="M678.955,-408.39C752.021,-404.327 860.627,-391.706 947.253,-354 998.935,-331.504 1022.52,-326.651 1047.25,-276 1055.44,-259.226 1055.87,-250.557 1047.25,-234 1039.19,-218.511 1024.66,-206.421 1010.18,-197.502"/>
<polygon fill="midnightblue" stroke="midnightblue" points="678.694,-404.898 668.887,-408.908 679.053,-411.889 678.694,-404.898"/>
</g>
<!-- Node13 -->
<g id="node13" class="node"><title>Node13</title>
<g id="a_node13"><a xlink:href="quadratureRule_8h.html" target="_top" xlink:title="Quadrature rules. ">
<polygon fill="white" stroke="black" points="158.753,-312.5 158.753,-353.5 301.753,-353.5 301.753,-312.5 158.753,-312.5"/>
<text text-anchor="start" x="166.753" y="-341.5" font-family="Helvetica,sans-Serif" font-size="10.00">/home/elauksap/Dropbox</text>
<text text-anchor="start" x="166.753" y="-330.5" font-family="Helvetica,sans-Serif" font-size="10.00">/Progetto&#45;PACS/C++/Source</text>
<text text-anchor="middle" x="230.253" y="-319.5" font-family="Helvetica,sans-Serif" font-size="10.00">/src/quadratureRule.h</text>
</a>
</g>
</g>
<!-- Node1&#45;&gt;Node13 -->
<g id="edge16" class="edge"><title>Node1&#45;&gt;Node13</title>
<path fill="none" stroke="midnightblue" d="M515.562,-393.083C451.544,-379.826 363.34,-361.56 302.018,-348.861"/>
<polygon fill="midnightblue" stroke="midnightblue" points="515.119,-396.565 525.621,-395.166 516.538,-389.711 515.119,-396.565"/>
</g>
<!-- Node15 -->
<g id="node15" class="node"><title>Node15</title>
<g id="a_node15"><a xlink:href="csvParser_8h.html" target="_top" xlink:title="Tools to store content from a .csv file in matrices or vectors. ">
<polygon fill="white" stroke="black" points="606.753,-312.5 606.753,-353.5 749.753,-353.5 749.753,-312.5 606.753,-312.5"/>
<text text-anchor="start" x="614.753" y="-341.5" font-family="Helvetica,sans-Serif" font-size="10.00">/home/elauksap/Dropbox</text>
<text text-anchor="start" x="614.753" y="-330.5" font-family="Helvetica,sans-Serif" font-size="10.00">/Progetto&#45;PACS/C++/Source</text>
<text text-anchor="middle" x="678.253" y="-319.5" font-family="Helvetica,sans-Serif" font-size="10.00">/src/csvParser.h</text>
</a>
</g>
</g>
<!-- Node1&#45;&gt;Node15 -->
<g id="edge22" class="edge"><title>Node1&#45;&gt;Node15</title>
<path fill="none" stroke="midnightblue" d="M625.505,-383.492C636.016,-373.629 647.742,-362.627 657.464,-353.506"/>
<polygon fill="midnightblue" stroke="midnightblue" points="623.01,-381.033 618.113,-390.428 627.8,-386.138 623.01,-381.033"/>
</g>
<!-- Node17 -->
<g id="node17" class="node"><title>Node17</title>
<g id="a_node17"><a xlink:href="numerics_8h.html" target="_top" xlink:title="Generic numeric algorithms. ">
<polygon fill="white" stroke="black" points="795.753,-312.5 795.753,-353.5 938.753,-353.5 938.753,-312.5 795.753,-312.5"/>
<text text-anchor="start" x="803.753" y="-341.5" font-family="Helvetica,sans-Serif" font-size="10.00">/home/elauksap/Dropbox</text>
<text text-anchor="start" x="803.753" y="-330.5" font-family="Helvetica,sans-Serif" font-size="10.00">/Progetto&#45;PACS/C++/Source</text>
<text text-anchor="middle" x="867.253" y="-319.5" font-family="Helvetica,sans-Serif" font-size="10.00">/src/numerics.h</text>
</a>
</g>
</g>
<!-- Node1&#45;&gt;Node17 -->
<g id="edge25" class="edge"><title>Node1&#45;&gt;Node17</title>
<path fill="none" stroke="midnightblue" d="M676.411,-387.718C714.938,-376.874 760.831,-363.956 797.957,-353.506"/>
<polygon fill="midnightblue" stroke="midnightblue" points="675.462,-384.349 666.785,-390.428 677.359,-391.088 675.462,-384.349"/>
</g>
<!-- Node19 -->
<g id="node19" class="node"><title>Node19</title>
<g id="a_node19"><a xlink:href="typedefs_8cc.html" target="_top" xlink:title="/home/elauksap/Dropbox\l/Progetto&#45;PACS/C++/Source\l/src/typedefs.cc">
<polygon fill="white" stroke="black" points="1095.75,-312.5 1095.75,-353.5 1238.75,-353.5 1238.75,-312.5 1095.75,-312.5"/>
<text text-anchor="start" x="1103.75" y="-341.5" font-family="Helvetica,sans-Serif" font-size="10.00">/home/elauksap/Dropbox</text>
<text text-anchor="start" x="1103.75" y="-330.5" font-family="Helvetica,sans-Serif" font-size="10.00">/Progetto&#45;PACS/C++/Source</text>
<text text-anchor="middle" x="1167.25" y="-319.5" font-family="Helvetica,sans-Serif" font-size="10.00">/src/typedefs.cc</text>
</a>
</g>
</g>
<!-- Node1&#45;&gt;Node19 -->
<g id="edge30" class="edge"><title>Node1&#45;&gt;Node19</title>
<path fill="none" stroke="midnightblue" d="M678.951,-403.393C775.501,-394.929 940.791,-378.378 1081.25,-354 1085.94,-353.187 1090.74,-352.278 1095.58,-351.308"/>
<polygon fill="midnightblue" stroke="midnightblue" points="678.622,-399.908 668.963,-404.261 679.229,-406.882 678.622,-399.908"/>
</g>
<!-- Node2&#45;&gt;Node3 -->
<g id="edge2" class="edge"><title>Node2&#45;&gt;Node3</title>
<path fill="none" stroke="midnightblue" d="M469.745,-307.768C449.32,-297.35 425.767,-285.336 406.494,-275.506"/>
<polygon fill="midnightblue" stroke="midnightblue" points="468.383,-311.002 478.882,-312.428 471.564,-304.766 468.383,-311.002"/>
</g>
<!-- Node2&#45;&gt;Node5 -->
<g id="edge14" class="edge"><title>Node2&#45;&gt;Node5</title>
<path fill="none" stroke="midnightblue" d="M578.087,-307.118C590.539,-299.091 602.033,-288.847 609.253,-276 637.508,-225.723 619.274,-154.063 607.693,-119.769"/>
<polygon fill="midnightblue" stroke="midnightblue" points="576.15,-304.198 569.354,-312.325 579.735,-310.21 576.15,-304.198"/>
</g>
<!-- Node8 -->
<g id="node8" class="node"><title>Node8</title>
<g id="a_node8"><a xlink:href="factory_8h.html" target="_top" xlink:title="Abstract factory design patterns. ">
<polygon fill="white" stroke="black" points="220.753,-156.5 220.753,-197.5 363.753,-197.5 363.753,-156.5 220.753,-156.5"/>
<text text-anchor="start" x="228.753" y="-185.5" font-family="Helvetica,sans-Serif" font-size="10.00">/home/elauksap/Dropbox</text>
<text text-anchor="start" x="228.753" y="-174.5" font-family="Helvetica,sans-Serif" font-size="10.00">/Progetto&#45;PACS/C++/Source</text>
<text text-anchor="middle" x="292.253" y="-163.5" font-family="Helvetica,sans-Serif" font-size="10.00">/src/factory.h</text>
</a>
</g>
</g>
<!-- Node2&#45;&gt;Node8 -->
<g id="edge13" class="edge"><title>Node2&#45;&gt;Node8</title>
<path fill="none" stroke="midnightblue" d="M435.539,-322.778C377.108,-314.304 305.675,-299.445 287.253,-276 269.781,-253.763 277.07,-219.159 284.355,-197.576"/>
<polygon fill="midnightblue" stroke="midnightblue" points="435.146,-326.257 445.536,-324.185 436.121,-319.325 435.146,-326.257"/>
</g>
<!-- Node12 -->
<g id="node12" class="node"><title>Node12</title>
<g id="a_node12"><a xlink:href="paramList_8cc.html" target="_top" xlink:title="/home/elauksap/Dropbox\l/Progetto&#45;PACS/C++/Source\l/src/paramList.cc">
<polygon fill="white" stroke="black" points="457.753,-234.5 457.753,-275.5 600.753,-275.5 600.753,-234.5 457.753,-234.5"/>
<text text-anchor="start" x="465.753" y="-263.5" font-family="Helvetica,sans-Serif" font-size="10.00">/home/elauksap/Dropbox</text>
<text text-anchor="start" x="465.753" y="-252.5" font-family="Helvetica,sans-Serif" font-size="10.00">/Progetto&#45;PACS/C++/Source</text>
<text text-anchor="middle" x="529.253" y="-241.5" font-family="Helvetica,sans-Serif" font-size="10.00">/src/paramList.cc</text>
</a>
</g>
</g>
<!-- Node2&#45;&gt;Node12 -->
<g id="edge15" class="edge"><title>Node2&#45;&gt;Node12</title>
<path fill="none" stroke="midnightblue" d="M521.943,-302.297C523.363,-293.301 524.887,-283.653 526.173,-275.506"/>
<polygon fill="midnightblue" stroke="midnightblue" points="518.446,-302.005 520.343,-312.428 525.36,-303.096 518.446,-302.005"/>
</g>
<!-- Node4 -->
<g id="node4" class="node"><title>Node4</title>
<g id="a_node4"><a xlink:href="charge_8cc.html" target="_top" xlink:title="/home/elauksap/Dropbox\l/Progetto&#45;PACS/C++/Source\l/src/charge.cc">
<polygon fill="white" stroke="black" points="381.753,-156.5 381.753,-197.5 524.753,-197.5 524.753,-156.5 381.753,-156.5"/>
<text text-anchor="start" x="389.753" y="-185.5" font-family="Helvetica,sans-Serif" font-size="10.00">/home/elauksap/Dropbox</text>
<text text-anchor="start" x="389.753" y="-174.5" font-family="Helvetica,sans-Serif" font-size="10.00">/Progetto&#45;PACS/C++/Source</text>
<text text-anchor="middle" x="453.253" y="-163.5" font-family="Helvetica,sans-Serif" font-size="10.00">/src/charge.cc</text>
</a>
</g>
</g>
<!-- Node3&#45;&gt;Node4 -->
<g id="edge3" class="edge"><title>Node3&#45;&gt;Node4</title>
<path fill="none" stroke="midnightblue" d="M397.901,-227.492C408.931,-217.629 421.236,-206.627 431.438,-197.506"/>
<polygon fill="midnightblue" stroke="midnightblue" points="395.264,-225.154 390.143,-234.428 399.93,-230.372 395.264,-225.154"/>
</g>
<!-- Node3&#45;&gt;Node5 -->
<g id="edge4" class="edge"><title>Node3&#45;&gt;Node5</title>
<path fill="none" stroke="midnightblue" d="M449.704,-231.614C484.036,-221.117 519.266,-208.614 533.253,-198 560.671,-177.193 580.829,-141.829 591.531,-119.754"/>
<polygon fill="midnightblue" stroke="midnightblue" points="448.629,-228.282 440.063,-234.518 450.648,-234.985 448.629,-228.282"/>
</g>
<!-- Node3&#45;&gt;Node8 -->
<g id="edge7" class="edge"><title>Node3&#45;&gt;Node8</title>
<path fill="none" stroke="midnightblue" d="M341.457,-227.204C331.669,-217.416 320.792,-206.539 311.759,-197.506"/>
<polygon fill="midnightblue" stroke="midnightblue" points="339.135,-229.832 348.681,-234.428 344.085,-224.882 339.135,-229.832"/>
</g>
<!-- Node3&#45;&gt;Node10 -->
<g id="edge10" class="edge"><title>Node3&#45;&gt;Node10</title>
<path fill="none" stroke="midnightblue" d="M450.382,-233.728C614.31,-205.144 796.95,-189.635 895.454,-182.612"/>
<polygon fill="midnightblue" stroke="midnightblue" points="449.35,-230.356 440.111,-235.54 450.567,-237.249 449.35,-230.356"/>
</g>
<!-- Node6 -->
<g id="node6" class="node"><title>Node6</title>
<g id="a_node6"><a xlink:href="simulate__dos_8cc.html" target="_top" xlink:title="A test file. ">
<polygon fill="white" stroke="black" points="448.753,-0.5 448.753,-41.5 591.753,-41.5 591.753,-0.5 448.753,-0.5"/>
<text text-anchor="start" x="456.753" y="-29.5" font-family="Helvetica,sans-Serif" font-size="10.00">/home/elauksap/Dropbox</text>
<text text-anchor="start" x="456.753" y="-18.5" font-family="Helvetica,sans-Serif" font-size="10.00">/Progetto&#45;PACS/C++/Source</text>
<text text-anchor="middle" x="520.253" y="-7.5" font-family="Helvetica,sans-Serif" font-size="10.00">/test/simulate_dos.cc</text>
</a>
</g>
</g>
<!-- Node5&#45;&gt;Node6 -->
<g id="edge5" class="edge"><title>Node5&#45;&gt;Node6</title>
<path fill="none" stroke="midnightblue" d="M572.349,-71.4916C561.968,-61.6294 550.387,-50.6273 540.785,-41.5056"/>
<polygon fill="midnightblue" stroke="midnightblue" points="569.99,-74.0781 579.651,-78.4281 574.812,-69.0031 569.99,-74.0781"/>
</g>
<!-- Node7 -->
<g id="node7" class="node"><title>Node7</title>
<g id="a_node7"><a xlink:href="dosModel_8cc.html" target="_top" xlink:title="/home/elauksap/Dropbox\l/Progetto&#45;PACS/C++/Source\l/src/dosModel.cc">
<polygon fill="white" stroke="black" points="609.753,-0.5 609.753,-41.5 752.753,-41.5 752.753,-0.5 609.753,-0.5"/>
<text text-anchor="start" x="617.753" y="-29.5" font-family="Helvetica,sans-Serif" font-size="10.00">/home/elauksap/Dropbox</text>
<text text-anchor="start" x="617.753" y="-18.5" font-family="Helvetica,sans-Serif" font-size="10.00">/Progetto&#45;PACS/C++/Source</text>
<text text-anchor="middle" x="681.253" y="-7.5" font-family="Helvetica,sans-Serif" font-size="10.00">/src/dosModel.cc</text>
</a>
</g>
</g>
<!-- Node5&#45;&gt;Node7 -->
<g id="edge6" class="edge"><title>Node5&#45;&gt;Node7</title>
<path fill="none" stroke="midnightblue" d="M628.505,-71.4916C639.016,-61.6294 650.742,-50.6273 660.464,-41.5056"/>
<polygon fill="midnightblue" stroke="midnightblue" points="626.01,-69.0333 621.113,-78.4281 630.8,-74.1381 626.01,-69.0333"/>
</g>
<!-- Node8&#45;&gt;Node5 -->
<g id="edge8" class="edge"><title>Node8&#45;&gt;Node5</title>
<path fill="none" stroke="midnightblue" d="M373.736,-155.636C430.998,-141.457 486.143,-127.918 528.608,-117.517"/>
<polygon fill="midnightblue" stroke="midnightblue" points="372.644,-152.301 363.779,-158.103 374.327,-159.096 372.644,-152.301"/>
</g>
<!-- Node9 -->
<g id="node9" class="node"><title>Node9</title>
<g id="a_node9"><a xlink:href="factory_8cc.html" target="_top" xlink:title="/home/elauksap/Dropbox\l/Progetto&#45;PACS/C++/Source\l/src/factory.cc">
<polygon fill="white" stroke="black" points="220.753,-78.5 220.753,-119.5 363.753,-119.5 363.753,-78.5 220.753,-78.5"/>
<text text-anchor="start" x="228.753" y="-107.5" font-family="Helvetica,sans-Serif" font-size="10.00">/home/elauksap/Dropbox</text>
<text text-anchor="start" x="228.753" y="-96.5" font-family="Helvetica,sans-Serif" font-size="10.00">/Progetto&#45;PACS/C++/Source</text>
<text text-anchor="middle" x="292.253" y="-85.5" font-family="Helvetica,sans-Serif" font-size="10.00">/src/factory.cc</text>
</a>
</g>
</g>
<!-- Node8&#45;&gt;Node9 -->
<g id="edge9" class="edge"><title>Node8&#45;&gt;Node9</title>
<path fill="none" stroke="midnightblue" d="M292.253,-146.297C292.253,-137.301 292.253,-127.653 292.253,-119.506"/>
<polygon fill="midnightblue" stroke="midnightblue" points="288.753,-146.428 292.253,-156.428 295.753,-146.428 288.753,-146.428"/>
</g>
<!-- Node10&#45;&gt;Node5 -->
<g id="edge11" class="edge"><title>Node10&#45;&gt;Node5</title>
<path fill="none" stroke="midnightblue" d="M885.645,-156.954C884.169,-156.632 882.705,-156.313 881.253,-156 810.262,-140.675 728.848,-124.616 671.99,-113.644"/>
<polygon fill="midnightblue" stroke="midnightblue" points="884.975,-160.391 895.495,-159.132 886.487,-153.556 884.975,-160.391"/>
</g>
<!-- Node11 -->
<g id="node11" class="node"><title>Node11</title>
<g id="a_node11"><a xlink:href="solvers_8cc.html" target="_top" xlink:title="/home/elauksap/Dropbox\l/Progetto&#45;PACS/C++/Source\l/src/solvers.cc">
<polygon fill="white" stroke="black" points="895.753,-78.5 895.753,-119.5 1038.75,-119.5 1038.75,-78.5 895.753,-78.5"/>
<text text-anchor="start" x="903.753" y="-107.5" font-family="Helvetica,sans-Serif" font-size="10.00">/home/elauksap/Dropbox</text>
<text text-anchor="start" x="903.753" y="-96.5" font-family="Helvetica,sans-Serif" font-size="10.00">/Progetto&#45;PACS/C++/Source</text>
<text text-anchor="middle" x="967.253" y="-85.5" font-family="Helvetica,sans-Serif" font-size="10.00">/src/solvers.cc</text>
</a>
</g>
</g>
<!-- Node10&#45;&gt;Node11 -->
<g id="edge12" class="edge"><title>Node10&#45;&gt;Node11</title>
<path fill="none" stroke="midnightblue" d="M967.253,-146.297C967.253,-137.301 967.253,-127.653 967.253,-119.506"/>
<polygon fill="midnightblue" stroke="midnightblue" points="963.753,-146.428 967.253,-156.428 970.753,-146.428 963.753,-146.428"/>
</g>
<!-- Node13&#45;&gt;Node3 -->
<g id="edge17" class="edge"><title>Node13&#45;&gt;Node3</title>
<path fill="none" stroke="midnightblue" d="M274.766,-307.486C293.563,-297.134 315.146,-285.247 332.835,-275.506"/>
<polygon fill="midnightblue" stroke="midnightblue" points="272.863,-304.538 265.791,-312.428 276.239,-310.67 272.863,-304.538"/>
</g>
<!-- Node13&#45;&gt;Node5 -->
<g id="edge19" class="edge"><title>Node13&#45;&gt;Node5</title>
<path fill="none" stroke="midnightblue" d="M215.493,-303.208C198.117,-264.799 175.819,-196.9 211.253,-156 231.693,-132.407 421.69,-113.929 528.385,-105.308"/>
<polygon fill="midnightblue" stroke="midnightblue" points="212.346,-304.741 219.767,-312.303 218.682,-301.764 212.346,-304.741"/>
</g>
<!-- Node13&#45;&gt;Node8 -->
<g id="edge18" class="edge"><title>Node13&#45;&gt;Node8</title>
<path fill="none" stroke="midnightblue" d="M234.714,-302.145C238.367,-282.25 244.545,-255.845 254.253,-234 259.979,-221.116 268.686,-208.006 276.322,-197.713"/>
<polygon fill="midnightblue" stroke="midnightblue" points="231.235,-301.727 232.984,-312.176 238.133,-302.917 231.235,-301.727"/>
</g>
<!-- Node14 -->
<g id="node14" class="node"><title>Node14</title>
<g id="a_node14"><a xlink:href="quadratureRule_8cc.html" target="_top" xlink:title="/home/elauksap/Dropbox\l/Progetto&#45;PACS/C++/Source\l/src/quadratureRule.cc">
<polygon fill="white" stroke="black" points="20.753,-234.5 20.753,-275.5 163.753,-275.5 163.753,-234.5 20.753,-234.5"/>
<text text-anchor="start" x="28.753" y="-263.5" font-family="Helvetica,sans-Serif" font-size="10.00">/home/elauksap/Dropbox</text>
<text text-anchor="start" x="28.753" y="-252.5" font-family="Helvetica,sans-Serif" font-size="10.00">/Progetto&#45;PACS/C++/Source</text>
<text text-anchor="middle" x="92.253" y="-241.5" font-family="Helvetica,sans-Serif" font-size="10.00">/src/quadratureRule.cc</text>
</a>
</g>
</g>
<!-- Node13&#45;&gt;Node14 -->
<g id="edge20" class="edge"><title>Node13&#45;&gt;Node14</title>
<path fill="none" stroke="midnightblue" d="M185.74,-307.486C166.943,-297.134 145.36,-285.247 127.671,-275.506"/>
<polygon fill="midnightblue" stroke="midnightblue" points="184.267,-310.67 194.715,-312.428 187.644,-304.538 184.267,-310.67"/>
</g>
<!-- Node15&#45;&gt;Node5 -->
<g id="edge24" class="edge"><title>Node15&#45;&gt;Node5</title>
<path fill="none" stroke="midnightblue" d="M676.455,-302.04C673.37,-265.965 665.108,-204.216 643.253,-156 637.231,-142.714 627.516,-129.68 618.843,-119.534"/>
<polygon fill="midnightblue" stroke="midnightblue" points="672.994,-302.668 677.256,-312.368 679.973,-302.127 672.994,-302.668"/>
</g>
<!-- Node16 -->
<g id="node16" class="node"><title>Node16</title>
<g id="a_node16"><a xlink:href="csvParser_8cc.html" target="_top" xlink:title="/home/elauksap/Dropbox\l/Progetto&#45;PACS/C++/Source\l/src/csvParser.cc">
<polygon fill="white" stroke="black" points="695.753,-234.5 695.753,-275.5 838.753,-275.5 838.753,-234.5 695.753,-234.5"/>
<text text-anchor="start" x="703.753" y="-263.5" font-family="Helvetica,sans-Serif" font-size="10.00">/home/elauksap/Dropbox</text>
<text text-anchor="start" x="703.753" y="-252.5" font-family="Helvetica,sans-Serif" font-size="10.00">/Progetto&#45;PACS/C++/Source</text>
<text text-anchor="middle" x="767.253" y="-241.5" font-family="Helvetica,sans-Serif" font-size="10.00">/src/csvParser.cc</text>
</a>
</g>
</g>
<!-- Node15&#45;&gt;Node16 -->
<g id="edge23" class="edge"><title>Node15&#45;&gt;Node16</title>
<path fill="none" stroke="midnightblue" d="M708.96,-305.779C720.595,-295.843 733.625,-284.716 744.411,-275.506"/>
<polygon fill="midnightblue" stroke="midnightblue" points="706.505,-303.273 701.173,-312.428 711.05,-308.596 706.505,-303.273"/>
</g>
<!-- Node17&#45;&gt;Node5 -->
<g id="edge26" class="edge"><title>Node17&#45;&gt;Node5</title>
<path fill="none" stroke="midnightblue" d="M867.581,-302.131C866.381,-281.212 861.775,-253.606 847.253,-234 803.624,-175.097 726.124,-139.177 669.541,-119.553"/>
<polygon fill="midnightblue" stroke="midnightblue" points="864.092,-302.508 867.933,-312.382 871.088,-302.268 864.092,-302.508"/>
</g>
<!-- Node18 -->
<g id="node18" class="node"><title>Node18</title>
<g id="a_node18"><a xlink:href="numerics_8cc.html" target="_top" xlink:title="/home/elauksap/Dropbox\l/Progetto&#45;PACS/C++/Source\l/src/numerics.cc">
<polygon fill="white" stroke="black" points="895.753,-234.5 895.753,-275.5 1038.75,-275.5 1038.75,-234.5 895.753,-234.5"/>
<text text-anchor="start" x="903.753" y="-263.5" font-family="Helvetica,sans-Serif" font-size="10.00">/home/elauksap/Dropbox</text>
<text text-anchor="start" x="903.753" y="-252.5" font-family="Helvetica,sans-Serif" font-size="10.00">/Progetto&#45;PACS/C++/Source</text>
<text text-anchor="middle" x="967.253" y="-241.5" font-family="Helvetica,sans-Serif" font-size="10.00">/src/numerics.cc</text>
</a>
</g>
</g>
<!-- Node17&#45;&gt;Node18 -->
<g id="edge27" class="edge"><title>Node17&#45;&gt;Node18</title>
<path fill="none" stroke="midnightblue" d="M901.003,-306.35C914.264,-296.272 929.236,-284.893 941.588,-275.506"/>
<polygon fill="midnightblue" stroke="midnightblue" points="898.849,-303.591 893.006,-312.428 903.085,-309.164 898.849,-303.591"/>
</g>
</g>
</svg>
        <g id="navigator" transform="translate(0 0)" fill="#404254">
                <rect fill="#f2f5e9" fill-opacity="0.5" stroke="#606060" stroke-width=".5" x="0" y="0" width="60" height="60"/>
                <use id="zoomplus" xlink:href="#zoomPlus" x="17" y="9" onmousedown="handleZoom(evt,'in')"/>
                <use id="zoomminus" xlink:href="#zoomMin" x="42" y="9" onmousedown="handleZoom(evt,'out')"/>
                <use id="reset" xlink:href="#resetDef" x="30" y="36" onmousedown="handleReset()"/>
                <g id="arrowUp" xlink:href="#dirArrow" transform="translate(30 24)" onmousedown="handlePan(0,-1)">
                  <use xlink:href="#rim" fill="#404040">
                        <set attributeName="fill" to="#808080" begin="arrowUp.mouseover" end="arrowUp.mouseout"/>
                  </use>
                  <path fill="none" stroke="white" stroke-width="1.5" d="M0,-3.0v7 M-2.5,-0.5L0,-3.0L2.5,-0.5"/>
                </g>
                <g id="arrowRight" xlink:href="#dirArrow" transform="rotate(90) translate(36 -43)" onmousedown="handlePan(1,0)">
                  <use xlink:href="#rim" fill="#404040">
                        <set attributeName="fill" to="#808080" begin="arrowRight.mouseover" end="arrowRight.mouseout"/>
                  </use>
                  <path fill="none" stroke="white" stroke-width="1.5" d="M0,-3.0v7 M-2.5,-0.5L0,-3.0L2.5,-0.5"/>
                </g>
                <g id="arrowDown" xlink:href="#dirArrow" transform="rotate(180) translate(-30 -48)" onmousedown="handlePan(0,1)">
                  <use xlink:href="#rim" fill="#404040">
                        <set attributeName="fill" to="#808080" begin="arrowDown.mouseover" end="arrowDown.mouseout"/>
                  </use>
                  <path fill="none" stroke="white" stroke-width="1.5" d="M0,-3.0v7 M-2.5,-0.5L0,-3.0L2.5,-0.5"/>
                </g>
                <g id="arrowLeft" xlink:href="#dirArrow" transform="rotate(270) translate(-36 17)" onmousedown="handlePan(-1,0)">
                  <use xlink:href="#rim" fill="#404040">
                        <set attributeName="fill" to="#808080" begin="arrowLeft.mouseover" end="arrowLeft.mouseout"/>
                  </use>
                  <path fill="none" stroke="white" stroke-width="1.5" d="M0,-3.0v7 M-2.5,-0.5L0,-3.0L2.5,-0.5"/>
                </g>
        </g>
        <svg viewBox="0 0 15 15" width="100%" height="30px" preserveAspectRatio="xMaxYMin meet">
         <g id="arrow_out" transform="scale(0.3 0.3)">
          <a xlink:href="typedefs_8h__dep__incl_org.svg" target="_base">
           <rect id="button" ry="5" rx="5" y="6" x="6" height="38" width="38"
                fill="#f2f5e9" fill-opacity="0.5" stroke="#606060" stroke-width="1.0"/>
           <path id="arrow"
             d="M 11.500037,31.436501 C 11.940474,20.09759 22.043105,11.32322 32.158766,21.979434 L 37.068811,17.246167 C 37.068811,17.246167 37.088388,32 37.088388,32 L 22.160133,31.978069 C 22.160133,31.978069 26.997745,27.140456 26.997745,27.140456 C 18.528582,18.264221 13.291696,25.230495 11.500037,31.436501 z"
             style="fill:#404040;"/>
          </a>
         </g>
        </svg>
</svg>
